<?xml version="1.0" encoding="utf-8"?>
<!-- Generator: Adobe Illustrator 23.0.2, SVG Export Plug-In . SVG Version: 6.00 Build 0)  -->
<svg version="1.1" baseProfile="tiny" id="Layer_3" 
  xmlns="http://www.w3.org/2000/svg" 
  xmlns:xlink="http://www.w3.org/1999/xlink" x="0px" y="0px" viewBox="0 0 424.9 424.9" xml:space="preserve">
  <path d="M 48.3 163.4 h 328.2 V 362 c 0 9.5 -7.7 17.3 -17.3 17.3 H 65.6 c -9.5 0 -17.3 -7.7 -17.3 -17.3 V 163.4 z M 126.1 64 c 0 -7.1 5.8 -13 13 -13 c 7.1 0 13 5.8 13 13 v 34.5 c 0 7.1 -5.8 13 -13 13 c -7.1 0 -13 -5.8 -13 -13 V 64 z M 272.9 64 c 0 -7.1 5.8 -13 13 -13 s 13 5.8 13 13 v 34.5 c 0 7.1 -5.8 13 -13 13 s -13 -5.8 -13 -13 V 64 z M 65.6 396.5 h 293.7 c 19.1 0 34.5 -15.5 34.5 -34.5 V 111.5 c 0 -19.1 -15.5 -34.5 -34.5 -34.5 h -43.2 V 64 c 0 -16.7 -13.6 -30.2 -30.2 -30.2 c -16.7 0 -30.2 13.6 -30.2 30.2 v 13 h -86.4 V 64 c 0 -16.7 -13.6 -30.2 -30.2 -30.2 S 108.8 47.4 108.8 64 v 13 H 65.6 C 46.5 77 31 92.5 31 111.5 V 362 C 31 381.1 46.5 396.5 65.6 396.5 z M 117.4 206.5 c 9.5 0 17.3 7.7 17.3 17.3 c 0 9.5 -7.7 17.3 -17.3 17.3 s -17.3 -7.7 -17.3 -17.3 C 100.1 214.3 107.9 206.5 117.4 206.5 z M 117.4 258.4 c 19.1 0 34.5 -15.5 34.5 -34.5 s -15.5 -34.5 -34.5 -34.5 s -34.5 15.5 -34.5 34.5 S 98.4 258.4 117.4 258.4 z M 212.4 206.5 c 9.5 0 17.3 7.7 17.3 17.3 c 0 9.5 -7.7 17.3 -17.3 17.3 c -9.5 0 -17.3 -7.7 -17.3 -17.3 C 195.1 214.3 202.9 206.5 212.4 206.5 z M 212.4 258.4 c 19.1 0 34.5 -15.5 34.5 -34.5 s -15.5 -34.5 -34.5 -34.5 s -34.5 15.5 -34.5 34.5 S 193.4 258.4 212.4 258.4 z M 307.4 206.5 c 9.5 0 17.3 7.7 17.3 17.3 c 0 9.5 -7.7 17.3 -17.3 17.3 s -17.3 -7.7 -17.3 -17.3 C 290.2 214.3 297.9 206.5 307.4 206.5 z M 307.4 258.4 c 19.1 0 34.5 -15.5 34.5 -34.5 s -15.5 -34.5 -34.5 -34.5 c -19.1 0 -34.5 15.5 -34.5 34.5 S 288.4 258.4 307.4 258.4 z M 117.4 301.5 c 9.5 0 17.3 7.7 17.3 17.3 s -7.7 17.3 -17.3 17.3 s -17.3 -7.7 -17.3 -17.3 S 107.9 301.5 117.4 301.5 z M 117.4 353.4 c 19.1 0 34.5 -15.5 34.5 -34.5 c 0 -19.1 -15.5 -34.5 -34.5 -34.5 s -34.5 15.5 -34.5 34.5 C 82.9 337.9 98.4 353.4 117.4 353.4 z M 212.4 301.5 c 9.5 0 17.3 7.7 17.3 17.3 s -7.7 17.3 -17.3 17.3 c -9.5 0 -17.3 -7.7 -17.3 -17.3 S 202.9 301.5 212.4 301.5 z M 212.4 353.4 c 19.1 0 34.5 -15.5 34.5 -34.5 c 0 -19.1 -15.5 -34.5 -34.5 -34.5 s -34.5 15.5 -34.5 34.5 C 177.9 337.9 193.4 353.4 212.4 353.4 z M 307.4 301.5 c 9.5 0 17.3 7.7 17.3 17.3 s -7.7 17.3 -17.3 17.3 s -17.3 -7.7 -17.3 -17.3 S 297.9 301.5 307.4 301.5 z M 307.4 353.4 c 19.1 0 34.5 -15.5 34.5 -34.5 c 0 -19.1 -15.5 -34.5 -34.5 -34.5 c -19.1 0 -34.5 15.5 -34.5 34.5 C 272.9 337.9 288.4 353.4 307.4 353.4 z"/>
</svg>
