<?xml version="1.0" encoding="utf-8"?>
<!-- Generator: Adobe Illustrator 23.0.2, SVG Export Plug-In . SVG Version: 6.00 Build 0)  -->
<svg version="1.1" baseProfile="tiny" id="Layer_3" 
  xmlns="http://www.w3.org/2000/svg" 
  xmlns:xlink="http://www.w3.org/1999/xlink" x="0px" y="0px" viewBox="0 0 424.9 424.9" xml:space="preserve">
  <g>
    <g>
      <path d="M217.8,382.2H59.6c-3.2,0-5.8-2.6-5.8-5.8V256.6c0-2.1,1.2-4.1,3-5.1h0c20.8-11.3,50.6-17.8,81.9-17.8
			c31.2,0,61.1,6.5,81.9,17.8l0,0c1.9,1,3,3,3,5.1v119.8C223.6,379.6,221,382.2,217.8,382.2z M71.2,370.6h134.9
			c3.2,0,5.8-2.6,5.8-5.8v-101c0-2.3-1.3-4.4-3.4-5.3c-18.7-8.4-43.7-13.2-69.9-13.2c-26.2,0-51.2,4.8-69.9,13.2
			c-2.1,0.9-3.4,3-3.4,5.3v101C65.4,368,68,370.6,71.2,370.6z"/>
    </g>
    <g>
      <path d="M375.5,382.2H217.3c-3.2,0-5.8-2.6-5.8-5.8V256.6c0-2.1,1.2-4.1,3-5.1l0,0c20.8-11.3,50.6-17.8,81.9-17.8
			c31.2,0,61.1,6.5,81.9,17.8h0c1.9,1,3,3,3,5.1v119.8C381.3,379.6,378.7,382.2,375.5,382.2z M228.9,370.6h134.9
			c3.2,0,5.8-2.6,5.8-5.8v-101c0-2.3-1.3-4.4-3.4-5.3c-18.7-8.4-43.7-13.2-69.9-13.2c-26.2,0-51.2,4.8-69.9,13.2
			c-2.1,0.9-3.4,3-3.4,5.3v101C223.1,368,225.7,370.6,228.9,370.6z"/>
    </g>
    <g>
      <path d="M254.2,220.6h-74.6c-4.4,0-8-3.6-8-8v-34.1c0-15.4,12.5-28,28-28h34.6c15.4,0,28,12.5,28,28v34.1
			C262.1,217,258.6,220.6,254.2,220.6z"/>
    </g>
    <g>
      <path d="M216.9,77.8c-14.6,0-26.5,11.9-26.5,26.5s11.9,26.5,26.5,26.5s26.5-11.9,26.5-26.5S231.5,77.8,216.9,77.8z
			"/>
    </g>
    <g>
      <path d="M216.7,116.9c-18.7,0-33.9,5.4-33.9,12.1c0,6.7,15.2,12.1,33.9,12.1s33.9-5.4,33.9-12.1
			C250.6,122.3,235.4,116.9,216.7,116.9z"/>
    </g>
    <g>
      <g>
        <path d="M249.7,125.4c-3.8-3.7-6.2-8.8-6.2-14.5v-6.5h-53.3v6.5c0,5.7-2.4,10.8-6.2,14.5
				c-2.2,2.1-0.9,5.7,2.1,5.7h61.4C250.6,131,251.8,127.4,249.7,125.4z"/>
      </g>
    </g>
    <g>
      <path d="M146,192.9H71.4c-4.4,0-8-3.6-8-8v-34.1c0-15.4,12.5-28,28-28H126c15.4,0,28,12.5,28,28V185
			C154,189.3,150.4,192.9,146,192.9z"/>
    </g>
    <g>
      <path d="M108.7,55.9c-14.6,0-26.5,11.9-26.5,26.5s11.9,26.5,26.5,26.5s26.5-11.9,26.5-26.5S123.3,55.9,108.7,55.9z
			"/>
    </g>
    <g>
      <path d="M362.3,194.4h-74.6c-4.4,0-8-3.6-8-8v-34.1c0-15.4,12.5-28,28-28h34.6c15.4,0,28,12.5,28,28v34.1
			C370.3,190.8,366.7,194.4,362.3,194.4z"/>
    </g>
    <g>
      <path d="M325,57.3c-14.6,0-26.5,11.9-26.5,26.5s11.9,26.5,26.5,26.5s26.5-11.9,26.5-26.5S339.7,57.3,325,57.3z"/>
    </g>
  </g>
</svg>
