<?xml version="1.0" encoding="utf-8"?>
<!-- Generator: Adobe Illustrator 23.0.3, SVG Export Plug-In . SVG Version: 6.00 Build 0)  -->
<svg version="1.1" id="Layer_3" xmlns="http://www.w3.org/2000/svg" xmlns:xlink="http://www.w3.org/1999/xlink" x="0px" y="0px"
	 viewBox="0 0 365.8 365.8" style="enable-background:new 0 0 365.8 365.8;" xml:space="preserve">
<g id="XMLID_1_">
	<g id="XMLID_22_">
		<path id="XMLID_25_" d="M265,212.7c-0.1,0.2-0.1,0.3-0.2,0.4C264.9,213,265,212.9,265,212.7z"/>
		<path id="XMLID_24_" d="M264.9,213.2c-0.1,0.1-0.1,0.3-0.2,0.4C264.8,213.5,264.8,213.4,264.9,213.2z"/>
		<path id="XMLID_23_" d="M265.2,212.2c0,0.1-0.1,0.3-0.1,0.4C265.1,212.5,265.2,212.3,265.2,212.2z"/>
	</g>
	<g id="XMLID_18_">
		<path id="XMLID_19_" d="M16.2,163.1h20.7V254l3.9-0.9c59.6-14.5,86.8-21.1,149.5-21.1c21.6,0,44.6,2.5,65.6,5.9
			c1.8,0.3,3.5,0.6,5.2,0.9s3.4,0.6,5.1,0.9c2.5,0.5,5,0.9,7.5,1.4c2.4,0.5,4.8,0.9,7.2,1.4c1.6,0.3,3.1,0.6,4.6,0.9
			c2.3,0.5,4.5,0.9,6.6,1.4c1.4,0.3,2.8,0.6,4.2,0.9c2.1,0.5,4.1,0.9,6,1.4c2.6,0.6,5,1.2,7.3,1.7c2.9,0.7,5.5,1.4,7.8,2
			c5.2,1.3,9.1,2.4,11.5,3.1l0,0l0,0v-90.8h20.7v-54.9l0,0H16.2V163.1z M341.6,155.2h-20.5v87.4c-43.1-11.5-86.2-17.7-124.9-18.8
			h-14.6c-77.6,1-136.7,19-136.7,19v-87.5H24.2v-39.2h317.4V155.2z"/>
	</g>
	<g id="XMLID_6_">
		<path id="XMLID_12_" d="M183.4,206.1c0-10.2-1.3-17.8-3.8-22.9c-2.6-5.1-7.4-9.4-14.6-13.1c7.2-3.7,12.1-8.1,14.7-13.2
			c2.5-5,3.8-12.6,3.8-22.8v-9.9h-26.9v6.2c0,6.6-1.4,12-4.2,16.3c-1.5,2.3-4.9,5.9-10.3,10.7c-5.4-4.8-8.8-8.4-10.3-10.7
			c-2.8-4.3-4.2-9.7-4.2-16.3v-6.2h-26h-1H32.3v22.9H53v85l27.8-5.8v-79.2h20.7c0.6,4,1.6,7.3,2.9,9.9c2.6,5.1,7.5,9.5,14.7,13.2
			c-7.2,3.7-12.1,8-14.6,13c-2.6,5-3.8,12.6-3.8,22.6v17c8.4-1.3,17.5-2.5,27.3-3.5l-0.4-9.4c0-6.6,1.4-12,4.2-16.3
			c1.5-2.3,5-5.9,10.3-10.7c5.3,4.8,8.8,8.4,10.3,10.7c2.8,4.3,4.2,9.7,4.2,16.3v7.1c7.7-0.4,15.6-0.7,23.8-0.8h3.2L183.4,206.1z"/>
		<path id="XMLID_7_" d="M264.8,124.1h-0.2h-46.8c-7.9,0-13.2,1.2-15.8,3.5c-4,3.6-5.9,11.4-5.9,23.5v5.9c0,10.1,1.1,17,3.2,20.7
			c2.6,4.4,8.4,6.5,17.4,6.5h27.4l0.1,13.3l-47.9-0.7l0.1,19.1l52.8,2.8c5,0.3,9.3,0.4,11.8-1.2c2.6-1.6,3.1-2.3,4.3-6.1
			c1.2-3.7,1.8-9.7,1.8-18.2v-5.7c0-10.3-1.4-17.3-4.1-20.8c-2.8-3.7-8.3-5.5-16.3-5.5h-26.4v-14.1h44.2h20.7v79.1l27.5,5.8
			l0.3-84.9h20.4v-22.9L264.8,124.1z"/>
	</g>
	<g id="XMLID_2_">
		<path id="XMLID_5_" d="M265.8,213.3c-0.1,0.2-0.1,0.3-0.2,0.4C265.7,213.6,265.8,213.4,265.8,213.3z"/>
		<path id="XMLID_4_" d="M265.7,213.7c-0.1,0.1-0.1,0.3-0.2,0.4C265.6,214,265.6,213.9,265.7,213.7z"/>
		<path id="XMLID_3_" d="M266,212.7c0,0.1-0.1,0.3-0.1,0.4C265.9,213,266,212.9,266,212.7z"/>
	</g>
</g>
<g>
	<path d="M334.1,256.3c0.4,0.2,0.9,0.4,1.5,0.4c0.7,0,1.1-0.3,1.1-0.8c0-0.4-0.3-0.6-1.1-0.9c-1-0.3-1.6-0.8-1.6-1.6
		c0-0.9,0.8-1.6,2.1-1.6c0.7,0,1.2,0.1,1.5,0.3l-0.3,0.8c-0.2-0.1-0.7-0.3-1.2-0.3c-0.7,0-1,0.3-1,0.7c0,0.4,0.4,0.6,1.1,0.9
		c1,0.3,1.6,0.8,1.6,1.7c0,0.8-0.7,1.7-2.2,1.7c-0.6,0-1.3-0.2-1.6-0.4L334.1,256.3z"/>
	<path d="M343.8,255.1c0-0.7-0.1-1.6-0.1-2.4l0,0c-0.2,0.7-0.5,1.5-0.7,2.2l-0.9,2.4h-0.8l-0.8-2.4c-0.2-0.8-0.4-1.5-0.6-2.2l0,0
		c0,0.8-0.1,1.7-0.1,2.5l-0.1,2.3h-1l0.4-5.5h1.5l0.8,2.2c0.2,0.6,0.4,1.3,0.5,1.9l0,0c0.2-0.6,0.4-1.3,0.6-1.9l0.8-2.2h1.4l0.3,5.5
		h-1L343.8,255.1z"/>
</g>
</svg>
