<?xml version="1.0" encoding="utf-8"?>
<!-- Generator: Adobe Illustrator 23.0.3, SVG Export Plug-In . SVG Version: 6.00 Build 0)  -->
<svg version="1.1" id="Layer_3" xmlns="http://www.w3.org/2000/svg" xmlns:xlink="http://www.w3.org/1999/xlink" x="0px" y="0px"
	 viewBox="0 0 365.8 365.8" style="enable-background:new 0 0 365.8 365.8;" xml:space="preserve">
<g id="XMLID_1177_">
	<g id="XMLID_1069_">
		<path id="XMLID_1072_" d="M265.1,212.8c-0.1,0.2-0.1,0.3-0.2,0.4C265,213.1,265,212.9,265.1,212.8z"/>
		<path id="XMLID_1071_" d="M264.9,213.3c-0.1,0.1-0.1,0.3-0.2,0.4C264.8,213.6,264.8,213.4,264.9,213.3z"/>
		<path id="XMLID_1070_" d="M265.3,212.3c0,0.1-0.1,0.3-0.1,0.4C265.2,212.5,265.2,212.4,265.3,212.3z"/>
	</g>
	<g id="XMLID_1065_">
		<path id="XMLID_1066_" d="M16.2,163.1h20.7V254l3.9-0.9c59.6-14.5,86.8-21.1,149.5-21.1c21.6,0,44.6,2.5,65.6,5.9
			c1.8,0.3,3.5,0.6,5.2,0.9s3.4,0.6,5.1,0.9c2.5,0.5,5,0.9,7.5,1.4c2.4,0.5,4.8,0.9,7.2,1.4c1.6,0.3,3.1,0.6,4.6,0.9
			c2.3,0.5,4.5,0.9,6.6,1.4c1.4,0.3,2.8,0.6,4.2,0.9c2.1,0.5,4.1,0.9,6,1.4c2.6,0.6,5,1.2,7.3,1.7c2.9,0.7,5.5,1.4,7.8,2
			c5.2,1.3,9.1,2.4,11.5,3.1l0,0l0,0v-90.8h20.7v-54.9l0,0H16.2V163.1z M341.7,155.3h-20.5v87.4c-43.1-11.5-86.2-17.7-124.9-18.8
			h-14.6c-77.6,1-136.7,19-136.7,19v-87.5H24.2v-39.2h317.5V155.3z"/>
	</g>
	<g id="XMLID_1053_">
		<path id="XMLID_1059_" d="M183.5,206.1c0-10.2-1.3-17.8-3.8-22.9c-2.6-5.1-7.4-9.4-14.6-13.1c7.2-3.7,12.1-8.1,14.7-13.2
			c2.5-5,3.8-12.6,3.8-22.8v-9.9h-26.9v6.2c0,6.6-1.4,12-4.2,16.3c-1.5,2.3-4.9,5.9-10.3,10.7c-5.4-4.8-8.8-8.4-10.3-10.7
			c-2.8-4.3-4.2-9.7-4.2-16.3v-6.2h-26h-0.9H32.3v22.9H53v85l27.8-5.8v-79.2h20.7c0.6,4,1.6,7.3,2.9,9.9c2.6,5.1,7.5,9.5,14.7,13.2
			c-7.2,3.7-12.1,8-14.6,13c-2.6,5-3.8,12.6-3.8,22.6v17c8.4-1.3,17.5-2.5,27.3-3.5l-0.4-9.4c0-6.6,1.4-12,4.2-16.3
			c1.5-2.3,5-5.9,10.3-10.7c5.3,4.8,8.8,8.4,10.3,10.7c2.8,4.3,4.2,9.7,4.2,16.3v7.1c7.7-0.4,15.6-0.7,23.8-0.8h3.2L183.5,206.1z
			 M77.9,144.8L67,135.9v82.2l10.9,6.5l-22.6,4.5v-80.8v-2.9v-0.7H34.7V127l7.4,8.8H67h26.8l7.6,8.9L77.9,144.8L77.9,144.8z
			 M131,175.6c-6.1,3.5-12.9,8.6-15,14.7c-2.3,6.8-1,20.9-1,20.9l0,0l9.4,6l-21.2,2.8c-0.1-13.2-0.5-22.3,2-32
			c2.6-9.8,13.9-15.6,15.8-16.5c1.7-0.8,3.1-1.1,3.3-1.1c-0.1,0-0.6-0.1-3.2-1.1c-0.2-0.1-0.3-0.1-0.5-0.2
			c-2.4-1.1-12.9-6.9-15.3-15.6c-2.2-7.9-2.7-21.5-2.7-27.4l11.7,8.4c-0.1,4.1,0.3,10.4,2.9,16.3c3.7,8.5,21.4,17.7,24.6,19.3
			C139.2,171.2,135.1,173.1,131,175.6z M142.1,160.8c0.9-0.8,2.8-2.4,2.9-2.5c5-4.5,8.3-8,9.7-10.2c2.8-4.3,4.2-9.7,4.2-16.3v-5.9
			l12,8.4c0.1,4.4,0,11.2-1.8,15.2c-5,11.2-27.1,20.6-27.1,20.6v-9.3H142.1z M159.4,214.5v-5.8c0-6.6-1.4-12-4.2-16.3
			c-1.5-2.2-4.7-5.6-9.7-10.1c-0.4-0.4-1.8-1.5-3.3-2.5v-9.6l0,0c0.4,0.2,10.6,5.1,19.8,14.8s8.5,21.9,8.5,21.9l9.6,6.9L159.4,214.5
			z"/>
		<path id="XMLID_1054_" d="M264.9,124.2h-0.2h-46.8c-7.9,0-13.2,1.2-15.8,3.5c-4,3.6-5.9,11.4-5.9,23.5v5.9c0,10.1,1.1,17,3.2,20.7
			c2.6,4.4,8.4,6.5,17.4,6.5h27.4l0.1,13.3l-47.9-0.7l0.1,19.1l52.8,2.8c5,0.3,9.3,0.4,11.8-1.2c2.6-1.6,3.1-2.3,4.3-6.1
			c1.2-3.7,1.8-9.7,1.8-18.2v-5.8c0-10.3-1.4-17.3-4.1-20.8c-2.8-3.7-8.3-5.5-16.3-5.5h-26.4v-14.1h44.2h20.7v79.1l27.5,5.8
			l0.3-84.9h20.4v-22.9L264.9,124.2z M219,144.8l-5.6-8.9c-1.7,0.9-2,2.9-2,5.4c0,6.3-0.4,16.6-0.4,23.9c0,5,2.1,6.6,5.9,6.6
			c6.9,0,24.1,0,33.1,0c5.8,0,5.8,4.5,5.8,6.7c0,7.6,0,28.9,0,28.9l6.6,5.6c-0.6,0.9-1.4,1.4-2.7,2.3c-2.5,1.6-6.8,1.5-11.8,1.2
			l-49.1-2.6l-0.1-13.8l4.6,5.8l52.4,1.6l-9.3-7.9l-0.1-17.7h-27.8c-9.2,0.1-15.3-1.6-17.6-5.8c-1.9-3.6-3-10.1-3-19.5v-5.5
			c0-11.3,2-18.5,5.9-21.9c1-0.8,2.4-1.5,4.2-2l5.2,8.7h43.7l7.7,8.9H219z M287.7,224.4v-79.6h-22.9v-20.6l9.7,11.7h24.6l0.2,82.1
			l10.6,11L287.7,224.4z M310.2,144.8l-11-8.9h24.9l7.5,8.9H310.2z"/>
	</g>
	<g id="XMLID_1049_">
		<path id="XMLID_1052_" d="M265.9,213.3c-0.1,0.2-0.1,0.3-0.2,0.4C265.8,213.6,265.8,213.5,265.9,213.3z"/>
		<path id="XMLID_1051_" d="M265.7,213.8c-0.1,0.1-0.1,0.3-0.2,0.4C265.6,214.1,265.6,213.9,265.7,213.8z"/>
		<path id="XMLID_1050_" d="M266.1,212.8c0,0.1-0.1,0.3-0.1,0.4C266,213.1,266,212.9,266.1,212.8z"/>
	</g>
</g>
<g>
	<path d="M334.1,256.3c0.4,0.2,0.9,0.4,1.5,0.4c0.7,0,1.1-0.3,1.1-0.8c0-0.4-0.3-0.6-1.1-0.9c-1-0.3-1.6-0.8-1.6-1.6
		c0-0.9,0.8-1.6,2.1-1.6c0.7,0,1.2,0.1,1.5,0.3l-0.3,0.8c-0.2-0.1-0.7-0.3-1.2-0.3c-0.7,0-1,0.3-1,0.7c0,0.4,0.4,0.6,1.1,0.9
		c1,0.3,1.6,0.8,1.6,1.7c0,0.8-0.7,1.7-2.2,1.7c-0.6,0-1.3-0.2-1.6-0.4L334.1,256.3z"/>
	<path d="M343.8,255.2c0-0.7-0.1-1.6-0.1-2.4l0,0c-0.2,0.7-0.5,1.5-0.7,2.2l-0.9,2.4h-0.8l-0.8-2.4c-0.2-0.8-0.4-1.5-0.6-2.2l0,0
		c0,0.8-0.1,1.7-0.1,2.5l-0.1,2.3h-1l0.4-5.5h1.5l0.8,2.2c0.2,0.6,0.4,1.3,0.5,1.9l0,0c0.2-0.6,0.4-1.3,0.6-1.9l0.8-2.2h1.4l0.3,5.5
		h-1L343.8,255.2z"/>
</g>
</svg>
