<?xml version="1.0" encoding="utf-8"?>
<!-- Generator: Adobe Illustrator 23.0.2, SVG Export Plug-In . SVG Version: 6.00 Build 0)  -->
<svg version="1.1" baseProfile="tiny" id="Layer_3" xmlns="http://www.w3.org/2000/svg" xmlns:xlink="http://www.w3.org/1999/xlink"
	 x="0px" y="0px" viewBox="0 0 365.8 365.8" xml:space="preserve">
<g>
	<rect x="45.3" y="92.9" width="188" height="186"/>
	<circle cx="265.2" cy="195.4" r="56.9"/>
	<path d="M231.3,262.5c0,6.4-5.2,11.6-11.6,11.6H57.1c-6.4,0-11.6-5.2-11.6-11.6V105.7c0-6.4,5.2-11.6,11.6-11.6
		h21.7V97c0,8,6.5,14.5,14.5,14.5h89c8,0,14.5-6.5,14.5-14.5v-2.9h22.8c6.4,0,11.6,5.2,11.6,11.6v33.1c3.7-2.2,7.5-4,11.6-5.5v-27.7
		c0-12.8-10.4-23.2-23.2-23.2h-22.5H78.8H57.1c-12.8,0-23.2,10.4-23.2,23.2v156.8c0,12.8,10.4,23.2,23.2,23.2h162.6
		c12.8,0,23.2-10.4,23.2-23.2V258c-4.1-1.5-8-3.3-11.6-5.5V262.5z"/>
	<path fill="#FFFFFF" d="M190.5,230.4H60.9c-2.6,0-4.8,2.4-4.8,5.4s2.1,5.4,4.8,5.4h129.6c2.6,0,4.8-2.4,4.8-5.4
		S193.1,230.4,190.5,230.4z"/>
	<path fill="#FFFFFF" d="M190.5,144.3H60.9c-2.6,0-4.8,2.4-4.8,5.4s2.1,5.4,4.8,5.4h129.6c2.6,0,4.8-2.4,4.8-5.4
		S193.1,144.3,190.5,144.3z"/>
	<path fill="#FFFFFF" d="M190.5,187.4H60.9c-2.6,0-4.8,2.4-4.8,5.4s2.1,5.4,4.8,5.4h129.6c2.6,0,4.8-2.4,4.8-5.4
		C195.3,189.8,193.1,187.4,190.5,187.4z"/>
	<path fill="#FFFFFF" d="M208.8,195.7c0-18.4,8.8-34.7,22.5-45v-11.9c-19.4,11.6-32.4,32.7-32.4,56.9s13,45.3,32.4,56.9v-11.9
		C217.6,230.4,208.8,214.1,208.8,195.7z"/>
	<path d="M265.1,129.5c-7.8,0-15.3,1.4-22.2,3.8v10.6c6.8-2.9,14.3-4.6,22.2-4.6c31,0,56.3,25.3,56.3,56.3
		c0,31.1-25.3,56.3-56.3,56.3c-7.9,0-15.4-1.6-22.2-4.6v10.6c6.9,2.5,14.4,3.8,22.2,3.8c36.5,0,66.2-29.7,66.2-66.2
		C331.3,159.2,301.6,129.5,265.1,129.5z"/>
	<path fill="#FFFFFF" d="M231.3,240.7v11.9c3.7,2.2,7.5,4,11.6,5.5v-10.6C238.7,245.7,234.8,243.4,231.3,240.7z"/>
	<path fill="#FFFFFF" d="M231.3,150.7c3.6-2.7,7.5-5,11.6-6.8v-10.6c-4.1,1.5-8,3.3-11.6,5.5V150.7z"/>
	<g transform="translate(-50.000000, -163.000000)">
		<g>
			<path fill="#FFFFFF" d="M302.1,339.8c0-6.4,4.9-11,12.3-11.9v25.7C307.8,350.8,302.1,347.1,302.1,339.8L302.1,339.8z
				 M317.9,358.9c9.8,4.4,12,8.4,12,13.3c0,6.7-4.5,11.5-12,12.9V358.9z M316.1,396.9c1,0,1.8-0.8,1.8-1.8v-6.5
				c9.6-1.7,15.6-7.9,15.6-16.5c0-7.5-4.6-12.5-15.6-17.1v-27.3c4.3,0.2,8.8,1.3,12.7,3.2c0.9,0.4,2,0.1,2.4-0.8s0.1-1.9-0.8-2.4
				c-4.4-2.2-9.5-3.4-14.3-3.5v-4.6c0-1-0.8-1.8-1.8-1.8s-1.8,0.8-1.8,1.8v4.7c-9.5,0.9-15.9,7-15.9,15.5c0,10,8.5,14.7,15.9,17.6
				v28.1c-1.2,0.1-2.5,0.2-3.5,0.2c-3.9-0.2-7.3-0.9-10.2-2.2c-0.9-0.4-2,0-2.4,0.9s0,1.9,0.9,2.3c3.3,1.5,7.2,2.3,11.7,2.5
				c1.1,0,2.4-0.1,3.6-0.2v6.1C314.3,396.1,315.1,396.9,316.1,396.9L316.1,396.9z"/>
			<path fill="#FFFFFF" d="M316.1,398.7c-2,0-3.7-1.6-3.7-3.6V391c-0.6,0-1.2,0.1-1.7,0.1c-4.8-0.2-8.9-1.1-12.4-2.6
				c-0.9-0.4-1.6-1.1-1.9-2s-0.3-1.9,0.1-2.8c0.8-1.8,3-2.6,4.8-1.8c2.6,1.2,5.8,1.9,9.5,2c0.5,0,1,0,1.7-0.1v-25.1
				c-7.1-3-15.9-8.2-15.9-18.9c0-8.8,6.3-15.5,15.9-17.1v-3.1c0-2,1.6-3.6,3.7-3.6c2,0,3.7,1.6,3.7,3.6v2.9
				c4.6,0.4,9.2,1.7,13.3,3.6c0.9,0.4,1.5,1.2,1.9,2.1c0.3,0.9,0.2,1.9-0.2,2.8c-0.9,1.8-3.1,2.5-4.9,1.6c-3.1-1.5-6.6-2.5-10.1-2.9
				v24.1c10.9,4.8,15.6,10.3,15.6,18.3c0,9-5.9,15.8-15.6,18v4.9C319.8,397.1,318.1,398.7,316.1,398.7z M319.8,361.8v20.9
				c5.3-1.7,8.3-5.5,8.3-10.5C328,369,327.4,365.7,319.8,361.8z M312.5,330.1c-5.3,1.3-8.6,4.9-8.6,9.7c0,4.7,2.5,7.9,8.6,10.9
				V330.1z"/>
		</g>
	</g>
</g>
</svg>
