<svg xmlns="http://www.w3.org/2000/svg" id="Layer_3" data-name="Layer 3" viewBox="0 0 424.9 424.9">
    <title>
        bobcatmail
    </title>
    <path d="M43.4,139.8a18.6,18.6,0,0,1,.5-4.2L205.3,260.5a6.7,6.7,0,0,0,1.2.6l1,.5a8.6,8.6,0,0,0,3.6.8h0a9.4,9.4,0,0,0,3.6-.8l1-.5,1.2-.7L379.8,132.9l.3-.4a17.7,17.7,0,0,1,1.5,7.3v169a18.8,18.8,0,0,1-18.8,18.8H62.2a18.8,18.8,0,0,1-18.8-18.8Zm-18.7,0v169a37.5,37.5,0,0,0,37.5,37.6H362.8a37.6,37.6,0,0,0,37.6-37.6v-169a37.6,37.6,0,0,0-37.6-37.6H62.2a37.5,37.5,0,0,0-37.5,37.6Z"/>
</svg>
