<?xml version="1.0" encoding="utf-8"?>
<!-- Generator: Adobe Illustrator 23.0.3, SVG Export Plug-In . SVG Version: 6.00 Build 0)  -->
<svg version="1.1" id="Layer_1" xmlns="http://www.w3.org/2000/svg" xmlns:xlink="http://www.w3.org/1999/xlink" x="0px" y="0px"
	 viewBox="0 0 365.8 365.8" style="enable-background:new 0 0 365.8 365.8;" xml:space="preserve">
<g>
	<path style="fill:#171717;" d="M174.5,89.6c-0.6-2,1-2.9,2.2-3.7c6.2-4.3,12.9-7.6,20-9.8c1.9-0.6,3.2-0.6,3.5,1.5
		c8.4-7.2,15.9-15.2,21.7-24.7c5.3-8.5,9.1-17.8,13.5-26.8c2.7-5.5,5.3-11,8-16.5c0.4-0.8,0.8-1.5,1.5-2.2c0.8-0.7,1.6-1.1,2.7-0.8
		c1.2,0.4,1.1,1.4,1.1,2.4c-0.1,7.7,1.8,15,2.7,22.6c0.1,0.7,0,1.8,0.8,2c1,0.2,1.3-0.9,1.9-1.5c1.1-1.2,2.2-2.5,3.4-3.6
		c0.5-0.5,1.1-1.3,2-0.6c0.6,0.5,0.4,1.2,0.2,1.9c-0.5,2.5-0.7,5-1.1,7.5c-0.9,6.7,2.2,12.4,4.3,18.5c3.4,10,7.5,19.9,7.4,30.7
		c-0.1,5.6,0.1,11.1,0.6,16.6c0.5,5.7-0.5,10.9-2.9,16.1c-1.3,2.9-1,3.1,2.2,2.5c2-0.4,4-0.6,6-1.1c0.9-0.2,1.8-0.7,2.5,0.1
		c0.8,0.8,0.5,1.9,0.1,2.7c-2.2,4.5-3.9,9.4-7.7,12.9c-0.5,0.5-0.8,1.1-1.5,2c6,0,11.6,0,18.1,0c-4.3,5.3-8.9,9.5-11.6,15.1
		c4.8,1.6,9.5,3.3,14.5,3.2c1,0,2-0.2,2.6,0.9c0.5,1.1-0.2,1.9-0.8,2.6c-2.1,2.6-4.4,5.1-4.7,8.8c-0.2,2.1,0.2,3.4,2,4.7
		c5.6,3.7,11.2,7.2,17.7,9.2c8.1,2.5,11.9,8.8,12.7,17.1c0.7,7.7-1.3,15.1-1.5,22.7c-0.1,6.7-2.9,12.6-5.1,18.6
		c-0.6,1.5-1.8,2.3-3.2,2.8c-3.8,1.3-7.5,2.5-11.6,2.7c-7.3,0.5-14.6,0.8-21.9,0.2c-0.9-0.1-1.8-0.1-2.5,0.5
		c-4,2.7-7.8,5.7-10.9,9.6c-4.1,5.2-8.5,10.1-12.9,15c-1.9,2.2-2.5,4.6-2.5,7.4c0,12.3-0.6,24.5-2.9,36.6c-0.9,4.9-1.3,9.8-2.7,14.6
		c-1.3,4.3-4.3,6.8-7.7,9.1c-1.1,0.7-1.8,1.3-2,2.6c-0.8,3.7-2,7.3-2.6,11c-0.6,4.1-3.3,5.6-7.1,4c-5.8-2.3-11.8-1.6-17.8-0.7
		c-15.7,2.3-31.6,3.6-46.9-1.2c-10.5-3.3-20.7-8.2-28.8-16.4c-2.6-2.6-5.4-5-8.1-7.6c-3.2-3-3.9-6.9-3.3-10.9
		c0.5-3.3,0.1-6.6,0.2-9.9c0.1-1.2-0.5-2.2-1.5-3c-5.1-3.4-9.3-8.3-15.6-10c-2.2-3.8-6-2.8-9.3-3c-6.5-0.4-10.2-4.3-12.9-9.5
		c-0.2-0.8-0.5-1.5-0.6-2.2c-3.3-12.8-8.9-25.1-9.9-38.5c0.8-11.6,7.7-18.2,17.9-22.2c3-1.2,5.9-2.7,9.2-4.9
		c-5.3-1.4-10.2-1.6-15.1-1.2c-1.9,0.2-3.9,0.6-5.7,1.1c-1.3,0.4-2.3,0.4-3.1-0.8c-0.8-1.2,0-2.1,0.6-3.2
		c4.7-7.5,12.2-11.5,19.5-15.7c0.5-0.3,0.9-0.6,1.4-1.6c-3.2,0-6.3,0-9.4,0c-2.2,0-4.3,0-6.4-0.1c-1,0-1.9-0.2-2.5-1.2
		c-0.6-1.2,0.1-2,0.8-2.9c2.7-3.2,5.4-6.3,8.2-9.5c2.4-2.7,2.4-2.7-0.9-3.8c-2.2-0.8-4.4-1.6-6.6-2.3c-1.1-0.4-2.1-0.7-2.2-2
		c-0.1-1.3,0.8-1.9,1.9-2.3c3.9-1.9,7.7-3.7,11.2-6.3c0.4-0.3,0.8-0.6,1.3-1.1c-2.6-1-5-1.8-7.4-2.8c-8.9-3.7-14.5-10.5-18.3-19.1
		c-6.8-15.2-13.2-30.5-15.7-47.1c-1.4-9.5-1.6-19-1.3-28.5c0.1-2.9,1.9-4.1,4.7-3.7c2.7,0.5,5.1,1.9,6.5,4
		c6.1,9.3,15.7,12.7,25.7,15.7c16.4,4.9,32.1,11.7,46.8,20.4c1.1,0.6,1.8,0.8,2.7-0.1c4.7-4.3,10.5-7,15.8-10.4
		c1.7-1.1,3.6-1.3,5.6-1.2c1.8,0.1,2.7-0.5,3.3-2.3c1.1-3.6,2.5-7.2,3.9-10.6c1.7-3.9,4.1-7.3,8.3-8.9c1.2-0.5,2.5-1,3.6-0.2
		c1.3,1,0.6,2.2,0.4,3.4c-1.1,5.8-1.4,11.6-1.2,17.4c-0.5,1.2,0.8,3.3-1.1,3.4c-2.3,0.2-1.3-2.3-1.8-3.6c-0.1-0.2-0.1-0.6-0.1-0.9
		c-0.2-5.1-0.2-10.3,1.2-15.7c-3.2,1.1-4.8,3.2-5.8,5.8c-1.6,4.1-3.2,8.2-4.1,12.4c-0.4,2-1.5,2.7-3.5,2.6c-2.2-0.1-4.3,0.4-6.2,1.5
		c-4.9,2.6-9.6,5.6-14.6,7.9c-5.3,2.5-6.8,8-10.4,11.9c-0.1,0.1,0.1,0.4,0.1,0.5c1,2.7,3.4,2.7,5.7,3.3c2,0.5,2.2-1.1,2.6-2.3
		c1.8-4.5,3.3-9,7-12.6c5.4-5.2,12.2-6.5,18.6-2.6c3.9,2.4,7.2,5.5,10.1,9.1c4.9,6.2,9.8,12.2,12.4,19.8c2.8,8.2,5.1,16.4,4,25.1
		c-0.1,0.2-0.1,0.4-0.1,0.6c0.2-0.1,0.4-0.2,0.5-0.3c3.2-1.8,6.4-3.6,10.2-4c1.9-0.2,2.5-1,1.5-2.9c-1.7-3.5-3.4-7.1-3.7-11
		c-1-15.4-4.1-30.9,2.1-45.9c-2.5,0-4.9-0.4-7.2,0.4c-1.2,0.4-2.2-0.1-2.5-1.3c-0.4-1.3,0.1-2.3,1.5-2.7c0.9-0.2,1.9-0.4,2.9-0.5
		c1.2-0.2,2.2-0.7,2.6-2c0.7-2.2,1.4-4.4,2.2-6.6c0.7-1.9-0.1-2-1.6-1.6c-4,1.2-7.8,2.7-11.5,4.9C180.4,86,177.9,88.6,174.5,89.6z
		 M119.2,292.8c-4.1,1.7-8.5,2.7-13.4,3.4c3.5,2.5,6.5,4.8,9.6,6.9c1.5,1,2.6,0.6,2.8-1.3c0.4-2.9,0.9-5.7,1.4-8.7
		c0.1-0.2,0.3-0.4,0.2-0.5C119.7,292.4,119.5,292.6,119.2,292.8z M224.4,181.6c-1.1,0.2-2.5,1-3-0.6c-0.5-1.6,1.2-1.7,2-2.3
		c0.8-0.6,2.5-0.5,2-1.9c-0.6-1.5-2-0.5-3.1-0.4c-0.7,0.1-1.3,0.8-2,1.1c-0.7,0.3-1.3,0.1-1.8-0.6c-0.4-0.6-0.2-1.2,0.2-1.6
		c0.8-0.7,1.8-1.2,2.6-1.9c0.5-0.4,1.6-0.6,1.3-1.3c-1.2-3.2-1.2-6.8-3.8-9.3c-0.7-0.7-1.9-1.5-1.8,0.5c0.2,3.3-1.6,5.7-3.3,8.2
		c-0.7,1-1,1.7-0.1,2.8c1.2,1.5,1.6,3.2,1.8,5.1c0.5,4.9,1.1,9.8,1.5,14.7c0.1,1.5,0.5,1.7,1.9,1.6c7.1-0.5,12.9-4.5,19-7.7
		c0.5-0.2,0.9-0.8,1.2-1.2c0.5-0.8,0.6-1.5-0.5-1.8c-2.9-0.7-5.6-2.9-8.8-0.8c-0.8,0.5-1.9,0.4-2.9,0.5c-2.2,0.4-2.6-0.6-2-2.5
		c0.4-0.1,0.6-0.2,1-0.3C225.4,181.1,224.9,181.4,224.4,181.6z M228.2,90.8c-0.1-0.1-0.2-0.2-0.4-0.3c0,0.1,0,0.2,0,0.2
		c0.1,0,0.2,0,0.4-0.1c-0.2,1.8,0.8,2.5,2.3,2.5c2.2-0.1,4.2,0.2,6.3,0.8c2.2,0.7,4.6-1.7,3.7-3.6c-1.7-3.8-2.3-8.3-6.5-10.7
		c-1.6-0.9-1.1-1.8,0.5-2.3c2-0.6,4.1-1.1,6.2-1.7c6.5-1.8,8.9-5,9.1-11.7c0.2-8.4-2.7-16.2-4.6-24.1c-0.1-0.2-0.2-0.3-0.7-0.8
		c-1,10.8-4.3,20.1-13,27.3c2.9,0.5,4.9,0.8,6.8,1.3c1,0.3,2.7-0.1,2.7,1.6c0.1,1.4-1.4,1.7-2.5,2.2c-5.8,2.7-11.5,5.6-18,7.9
		c3.7,2.3,6.7,4.7,9.4,7.4c1.1,1.1,2.9,2,2.1,3.8C231.2,92.6,229.5,90.4,228.2,90.8z M198.5,92.7c1.6-0.8,3.2-1.5,4.9-2.3
		c-1.1-0.5-2.8,0.4-2.7-1.2c0.1-1.3,1.6-1.2,2.6-1.2c1.2-0.1,2.5,0.3,3.4-0.2c4.9-2.6,9.9-2.3,15-1.5c1.6,0.2,3.3,0.6,5.6,1.1
		c-3.1-2.5-6-3.9-8.9-5c-1.1-0.4-2.5-0.4-2.5-2c-0.1-1.5,0.8-2.3,2-3c4.4-2.6,8.9-5.1,14.1-5.8c1.7-0.2,3.4-0.7,4.7-2
		c-1.3-1.2-2.6-0.5-4-0.4c-1.8,0.1-3.8-0.1-4.6-1.8c-0.9-1.8,1.1-2.6,2.3-3.6c3.4-2.6,6.1-5.7,7.7-9.7c2.6-6.4,4-13,5.2-19.7
		c0.2-1,0.1-2.4,1.6-2.3c1.4,0.1,1.3,1.4,1.5,2.5c1.1,5.1,1.7,10.4,3.4,15.3c2.2,6.2,2.6,12.3,1.9,18.6c-0.4,3.6-2.2,6.1-5.2,8
		c-2.6,1.6-5.6,2.5-9.1,2.9c2.4,2.7,3.3,5.7,4.4,8.5c0.5,1.2,1,1.3,2.4,0.8c3.4-1.1,5.1-3.4,6.2-6.5c0.3-0.9,1-1.7,1.5-2.5
		c1.6-2.2,3.6-2.3,5.3-0.4c0.4,0.5,0.6,1.3,1.3,1.5c0.1,0.1,0.2,0.3,0.2,0.4c0.1-0.1,0.1-0.2,0.1-0.4c-0.1,0-0.2,0-0.4,0
		c0.6-1.2-0.1-2.2-0.4-3.3c-2.7-11.8-4.6-23.7-4.1-35.8c0.1-1.8,0.2-3.6,0.4-5.5c-1.2,1.1-1.9,2.2-2.6,3.3c-0.4,0.6-0.7,1.4-1.8,1.2
		c-1-0.2-1.5-0.7-1.7-1.7c-0.1-0.8-0.4-1.5-0.5-2.3c-0.9-6.3-1.9-12.6-2.9-19.8c-1.7,4.6-3.2,8.4-4.5,12.2
		c-5.7,16.2-14.3,30.5-27.4,42c-4,3.5-8.2,7-11,11.6c-1.7,2.9-4.3,5.7-3.9,9.5c-0.1,0.2-0.2,0.4-0.2,0.5
		C198.2,92.9,198.4,92.8,198.5,92.7z M135.2,137.2c0.3-2,0.5-3.6,0.7-5.2c0.4-3.4-1.3-5.8-4.3-7.3c-6.2-3.1-14.4-0.2-17.2,6.1
		c-0.4,0.8-0.8,1.7-1.7,1.9c-1.7,0.5-2,1.6-2,3.1c0,2.7-0.1,5.4-0.1,8.2c0,2.2,0.4,4.3,1.6,6.1c5.5,8.9,7.3,18.5,6.3,28.8
		c-0.4,3.6-0.7,7.2-1.5,10.7c-1.8,8.1-4,15.9-9.6,22.4c-6.9,7.9-16.2,11.8-25.1,16.5c-6.9,3.7-11.5,11.3-10.5,19
		c1.5,12,6.4,23,9.2,34.6c0.4,1.6,1.4,3,2,4.5c1.6,3.8,4.7,5.3,8.5,5.7c5.3,0.4,10.5,0.4,15.7-0.5c8.4-1.5,15.9-4.4,20.9-11.9
		c1.3-2,2-4.4,3.2-6.5c3-5.3,5.8-10.8,8-16.5c4.1-11.2,6.1-22.9,8.4-34.4c0.3-1.3-0.2-1.4-1.3-1.5c-3.5-0.4-6.9-1.2-10.2-2.2
		c-1.5-0.5-1.5-1.1-0.5-2.2c0.8-0.9,1.7-0.9,2.6-0.6c3,1,6.1,1.2,9.2,1.5c5.4,0.5,10.3-1.2,14.5-4.9c4.4-4,5.2-9.6,6.5-15
		c0.4-1.4-0.3-1.7-1.6-1.5c-2.6,0.4-5.3,0.4-7.8-0.6c-0.9-0.4-2-0.7-1.6-2c0.4-1.2,1.1-1.8,2.5-1.4c2.6,0.6,5.3,0,7.8,0
		c3.2,0,5.7-1.2,7.9-3.3c3.3-3.2,5-7.4,6.5-11.5c1.2-3.2,0.6-6.7-1.1-9.9c-1.3-2.5-2.9-4.3-6.1-3.8c-1,0.2-2.1-0.2-3.2-0.3
		c-1.9-0.2-2.2-1.3-1.6-2.9c0.6-1.4,2.5-2.9,1.6-4c-0.9-1.1-3.1-0.2-4.7-0.1c-1.6,0.1-3.3,0.3-4.9,0.6s-3.2,1.1-4.1,2.6
		c-2.3,3.6-3.7,7.5-3,11.9c0.5,3.2,1.1,6.3,2.6,9.2c0.4,0.8,1.2,1.8-0.1,2.5c-1.1,0.6-1.9-0.1-2.6-0.8c-1-1.1-1.7-2.4-2.1-3.8
		c-1.4-4.9-2-9.9-0.9-15c0.8-3.7,2.6-7.2,6.4-8.9c1.9-0.9,4-0.8,6-1.2c0.9-0.2,1.7-0.3,2.2-1.2c3.2-6.3,0.8-16-5-20
		c-1.5-1.1-2.7-1.9-2.7,1.1c0,0.9,0,2.3-1.6,2.3c-2.5,0-5,1-7.4-0.5c-0.3-0.2-0.4-0.9-0.2-1.3c0.6-2.7-1.2-2.1-2.5-1.6
		C143.3,133.4,139.2,134.6,135.2,137.2z M206.2,129c-1.7,1.6-3,3.4-3.9,5.5c-1.9,4.4-1.1,11.4,1.9,13.7c4.7,3.5,8.9,7.9,14.3,10.5
		c2.9,1.4,4.7,3.8,5.4,6.9c0.9,4.7,3.7,8.3,6.4,11.9c0.8,1.1,2.1,1.9,3.9,2.2c3.7,0.6,6.6,3.2,9.7,5.1c0.9,0.6,1.6,1.7,1.7,3
		c0.1,1.5,0.7,2.8,1.3,4.1c3,6.5,5.6,13.2,7.4,20.2c1.2,4.9,3.3,9.6,4.4,14.4c1.3,5.7,4.1,10.1,9.1,12.8c7,3.9,14.6,5.8,22.7,5
		c6.1-0.6,12.4-0.4,18.2-3.5c1.3-0.7,2.3-1.5,2.8-3c3.5-11.8,5.4-23.9,5.6-36.2c0.2-8.2-4.1-13.6-11.9-16.2
		c-4.4-1.5-8.7-2.8-12.6-5.7c-4.4-3.4-9.3-6.4-14-9.5c-2.9-2-5-4.4-6.6-7.5c-3-5.8-5.3-11.9-7.5-18c-1.3-3.6-1.8-7.4-1.4-11.2
		c0.3-3.7,0.2-7.5-0.5-11c-0.5-2.2-0.1-3.6,1.1-5.3c3.7-5.1,5.6-11,4.8-17.3c-0.6-5.4-3-10-8.4-12.5c-0.6,3.3-0.6,3.3-3.8,3.4
		c-1.5,0.1-3,0.3-4.4,0c-4.3-0.9-6.9,1.8-9.6,4.3c-0.6,0.6-1,1.2-0.1,1.9c2.9,2.2,3.3,5.6,4,8.8c1.1,4.5,1.2,9.1-0.6,13.4
		c-0.4,0.9-0.9,2.2-2.3,1.6c-1.3-0.5-1.1-1.6-0.6-2.7c1.9-4.9,1.3-9.6-0.1-14.6c-1.2-4.3-4.4-6-8.2-7c-1.5-0.4-3.4-1-3.4,1.8
		c0,0.4-0.7,0.9-1.2,1.1c-1.9,0.6-3.6,1.5-5.1,2.7c-0.6,0.5-1.2,0.6-1.6-0.3c-0.4-0.9-0.5-2.1-1.9-1.7c-1.2,0.4-1.8,1.6-2,2.7
		c-1.1,4-2.2,8.1-2.3,12.3c-0.1,2.7,0.6,3.9,3.3,4.2c4.1,0.6,7.9,1.9,10.8,5.2c1.4,1.6,1.7,3.4,1.5,5.4c-0.1,0.9-0.8,1.6-1.6,2
		c-1,0.4-1.6-0.4-2.2-1.1c-0.7-0.9-1.3-1.9-2-2.9c-2.1-3.2-9.5-5.4-13.2-3.7c1.5,1.3,4.2,2,3.3,4.8c-0.9,2.9-3.6,3.3-6.1,3.9
		C207.4,133.8,207.9,130.4,206.2,129z M129.4,284.2c-1.5,0.9-3,1-3.5,2.5c-1,2.8-2.4,5.5-3,8.5c-2.2,10-1.6,20.1-1.6,30.2
		c0,1.6,0.6,3.3,2.1,4.6c3.8,3.2,7.4,6.7,11.1,9.8c2.8,2.3,5.4,4.9,9.2,5.9c1.3,0.4,2.6,0.6,3.9,1.1c6,2.5,11.5,6.1,18.1,7.2
		c6.1,0.9,12.1,0.8,18.2,0.5c7.4-0.4,14.6-1.6,21.7-3.4c1.8-0.5,3.6-1.1,5.4-0.7c4.2,0.7,8.4,1.1,12.3,3.2c1.5,0.8,2.9,0.6,3.2-1.9
		c0.2-2.4,1.1-4.7,1.9-7c0.9-2.7,0.8-2.9-2.2-2.5c-0.4,0.1-0.8,0.2-1.1,0.2c-3.4,0.3-6.7,0.7-10.1,0.8c-1.6,0.1-3-0.9-3-2.6
		c0-1.8,1.8-1.4,2.9-1.5c4.3-0.2,8.5-0.2,12.8-0.7c4.3-0.5,7.9-2.4,10-6.5c2.1-4.1,3-8.5,3.6-13.1c0.8-6,2.4-12,2.6-18.1
		c0.2-9.7,0.1-19.3,0.6-29c0.4-6.7-1.1-13.4-0.6-20.1c0.1-1.4-0.8-1.8-1.8-2.2c-5.6-2.7-11.1-5.6-15.7-9.8c-1.2-1.1-2.3-1.2-3.7-0.4
		c-7.1,4.1-14.5,7.4-22.9,8c-6.4,0.5-12.6,0.2-18.1-3.7c-2.4-1.7-4.3-3.9-6.4-5.9c-0.9-0.9-1.7-1.5-2.8-0.2
		c-2.6,3.2-5.3,6.5-8.1,9.5c-4,4.4-7.3,9.3-10.6,14.2c-0.4,0.5-0.9,1.3-1.5,1.3c-1.1,0-0.7-1.2-0.9-1.9c-1.6-4.8-3-9.6-4.8-15
		c-2.3,6.5-4.4,12.4-6.6,18.5c5.7-0.5,5.8-0.4,5.7,5.1c0,0.2,0,0.4,0,0.6c0,1.8-0.5,2.9-2.6,3c-1.7,0.1-2.5,1-2.7,3
		c-0.6,4.8-0.6,9.6-1.4,14.4c-0.5,2.8-1.9,3.6-4.3,3.5c-0.7,0-1.3,0-2,0c-2.2,0.1-3.3-0.9-3.2-3.2
		C129.4,288.6,129.4,286.6,129.4,284.2z M154.2,255.2c1.6-2.2,2.6-4.4,4.3-5.9c5.1-4.6,8.9-10.2,13-15.7c1.6-2.1,2.2-1.8,3.7,0.2
		c4.1,5.4,8.8,10.1,16.1,11c12.6,1.5,23.8-1.9,34.1-9c1.6-1.1,2.4-1,3.6,0.4c4,4.4,9.1,7.2,14,10.3c0.7,0.5,1.4,1.2,2.4,0.5
		c0.9-0.6,0.6-1.5,0.6-2.4c-0.7-8.5-1.3-17.1-2.2-25.6c-0.2-2,0.5-2.3,2-1.8c2.6,0.9,5.1,1.9,7.8,4c-0.6-2.4-1-4.1-1.5-5.9
		c-2.7-8.4-4.2-17.2-9.1-24.8c-0.4-0.6-0.5-1.8-1.5-1.6c-1,0.2-1.5,1.3-1.6,2.2c-0.1,0.8,0.1,1.5,0.2,2.3c0.5,2.7,0,5.2-0.9,7.7
		c-0.6,1.6-1.7,2-3.2,1.1c-1.2-0.7-2.3-1.5-2.7-2.9c-0.9-3-2.9-3.4-5.6-2.2c-3,1.4-6.2,2.3-9.6,2.2c-0.4,0-0.9,0-1.1,0.2
		c-2.9,3.6-7.3,4.1-11.2,3.9c-6.3-0.2-9.5,2.1-10.8,8.1c-0.5,2.4-1.9,2.5-3.4,0.5c-2-2.6-4.4-5-5.5-8.2c-0.4-1.2-1.1-1.8-2.2-2
		c-3.6-0.8-7.2-1.8-10.6-3c-1.1-0.4-1.7-0.2-2,1.1c-0.5,2.5-1.1,5-2,7.3c-2.8,7.2-8.7,11-15.9,12.9c-1.5,0.4-2.3,0.9-2.6,2.5
		c-0.5,3.3-1.5,6.4-1.9,9.7c-0.4,2.4-1.6,5-0.5,7.2C151.1,244.5,152.4,249.8,154.2,255.2z M74.7,215.3c6.8-1.2,13.4-1.1,20,0.1
		c0.9,0.2,1.8-0.1,2.5-0.6c2.5-1.9,5.1-3.7,7.2-6.3c4.1-5.4,7.2-11,8.9-17.9c3-12.3,3.1-24-2.7-35.5c-1.1-2-1.4-5.6-2.9-6.1
		c-1.8-0.6-4.4,1.3-6.7,1.9c-1.5,0.4-2.7,1.5-4.4,0.8c-7.5-3.5-15.6-5.9-22.2-11.5c-2.1-1.8-3.7-3.6-4.7-6.1
		c-1.6-3.9-2.7-7.9-4.9-11.6c-5.6-9.6-6.4-20-5.7-30.8c0.2-3,1.8-3.7,4.3-2c2.5,1.7,5,3.4,7.5,5.1c4,2.6,8.2,4.6,13.1,5.3
		c4.7,0.6,9.3,0.9,14,0.9c3.8,0.1,4,0.5,2.3,3.7c-0.4,0.8-0.8,1.7-1.2,2.8c4.2,0.6,7.8-0.7,11.5-1.4c3.9-0.8,4.1-0.7,5.5,3
		c1.1,3,1.4,6.2,2.2,9.5c3.2-5.7,3.2-5.7,7.3-3.3c-2-2.8,3.6-4.6,0.7-7.2c-2-1.8-4.9-2.9-7.3-4.3c-0.1-0.1-0.2-0.1-0.3-0.1
		c-13.6-6.8-27.6-12.5-42.2-16.8c-8.5-2.5-16.2-6.5-22-13.6c-0.9-1.1-1.8-2.5-3.5-3.2c-0.1,7.3,1.8,14,2.8,20.8
		c2.5,16.1,7.4,31.6,13.5,46.6c6,14.7,16.7,22.5,32.6,23c2,0.1,4.2,0.2,4.1,2.9c-0.1,2.9-2.3,2.6-4.3,2.4c-1.9-0.2-3.9-0.4-5.8-0.5
		c-0.6-0.1-1.3-0.2-1.7,0.1c-4.1,2.6-8.2,5.3-12.4,8.1c0.5,0.4,0.8,0.6,1.1,0.7c1.8,0.7,3.6,1.4,5.4,2.2c4.9,1.9,4.8,1.9,1.3,6
		c-2.6,3.2-5.4,6.3-7.5,10.3c2,0.2,3.6,0.4,5.1,0.4c4.1-0.2,8.2-0.5,12.2-0.8c0.9-0.1,1.9-0.5,2.5,0.4c0.6,0.9,0.1,1.9-0.5,2.7
		c-0.6,1.1-1.7,1.9-2.8,2.5c-1.7,0.9-3.4,1.8-5.1,2.8C85,204.9,78.3,208.1,74.7,215.3z M181.3,187.2c2.9-0.2,5.4-0.3,7.9-0.5
		c1.2-0.1,2.2,0.5,2.2,1.8c0,1.2-1.1,1.2-1.9,1.2c-1.9,0.2-3.7,0.5-5.6,0.3c-5.1-0.4-8.3,2.6-11.9,5.6c3,0.7,5.8,1.3,8.5,2
		c8.6,2.1,17.2,4.3,26.2,3.1c6-0.8,6.2-0.9,6.4-6.8c0.1-1,0.1-1.9,0.1-2.9c0.1-4.6-0.1-9.1-1.9-13.4c-0.6-1.5-1.6-2.3-3.2-2.6
		c-4.9-0.8-8.9-3.1-12.7-6.1c-0.9-0.8-2.2-1.5-1.8-3c0.4-1.6,1.5-2.3,3-2.7c5.1-1.5,10.2-3,15.9-3.7c-2.5-1.7-4.7-3.2-6.8-4.6
		c-1.3-0.9-2.7-2.4-3.4,0.6c-0.2,0.6-1.1,0.8-1.8,0.8c-6,0.2-10.6,3.9-15.4,6.8c-0.5,0.4-1.1,0.6-0.7,1.3c1.6,3.3,0.9,6.9,1.4,10.3
		c0.2,1.2,0.4,1.6,1.7,1.6c1.9,0,3.9,0.5,5.8,0.7c1,0.2,2.1,0.4,1.9,1.7c-0.2,1.2-1.3,1.3-2.3,1.2c-1.6-0.1-3.4,0-4.9-0.6
		c-2.7-1.2-3.3,0.2-3.6,2.6c3,0.4,6,0.6,8.9,1c0.9,0.1,1.8,0.4,1.7,1.6c-0.1,1.1-0.8,1.6-1.8,1.5c-3.4-0.6-7.2,0.1-10.5-2.1
		C182.3,184.9,181.9,185.8,181.3,187.2z M65.4,100.1c2.2,5,3,10,5.6,14.4c3.2,5.3,5.8,10.9,8.6,16.5c3.6,7.1,9.9,10.5,17.4,12.1
		c1,0.2,1.9,0.2,2.6-0.8c4-5.4,7.8-10.9,7.1-18.2c-0.4-4.4-2.2-6.3-6.7-6.1c-4.1,0.2-8.1,0.9-12.2,0.2c-2-0.3-2.8-1.1-1.1-2.7
		c2.3-2.2,1.2-3.2-1.1-4.3c-5.8-2.7-11.8-5-16.8-9.2C68,101.4,67.3,100.4,65.4,100.1z M139.7,125.7c-0.1,0.9-0.3,1.8-0.3,2.7
		c-0.1,1.1,0.4,1.9,1.5,1.5c4.2-1.8,9.6-0.8,12.6-5.6c0.5-0.8,1.5-1.2,2.5-1.5c1.7-0.6,2.7-0.3,2.7,1.7c-0.1,2.2,1.2,3.2,3,4
		c3.5,1.5,6,4.1,7.7,7.7c2.2,4.8,2.2,4.7,7.6,4c0.1,0,0.2-0.1,0.3,0c1.8,0.1,1.7-0.9,1.2-2c-0.9-2.2-1.8-4.3-2.9-6.4
		c-3.6-7.7-7.4-15.1-14.5-20.5c-6.4-4.9-13.4-4.4-17.1,1.9C141.8,116.9,139.4,121,139.7,125.7z M197.9,115.1
		c-0.1,4.9,0.5,9,0.9,13.2c0.2,1.4,1.5,2.6,2.2,1.8c1.9-2.3,5.3-4,5-7.8c-0.1-1.4,0.1-2.5,1.5-3.1c1.4-0.6,2.2,0.4,3,1.2
		c0.7,0.8,1.4,1.2,2.5,0.6c1.1-0.5,1.2-1.2,1-2.3c-0.8-5.6,0.2-11.1,2.6-16.1c1.3-2.6,1.5-4-1.6-5.3c-2.5-1.1-5-1.7-7.6-1.6
		c-4.7,0.1-7.5,2.7-8.5,7.2C198,107.1,198.4,111.5,197.9,115.1z M246.3,267.3c0,1-0.1,2.7,1,3.2c1.3,0.6,1.7-1.2,2.3-2.1
		c2.7-3.6,5.4-7.1,8.5-10.3c1.2-1.2,1.6-2.5,0.9-4.1c-0.7-1.7-1.1-3.5-1.8-5.2c-2.6-6.1-3.5-12.5-3.9-18.9c-0.2-2.5-0.8-4.3-3-5.4
		c-1-0.5-1.8-1.9-3-1.2c-1,0.6-0.5,2-0.5,3c0.4,7,1.2,14,2,21c0.2,1.5,2,4.4-2,4.1c-0.6-0.1-0.4,0.5-0.4,0.8
		C247,257.2,247.1,262.1,246.3,267.3z M262.2,254.1c3-3.4,6-6,9.9-8.4c-6-3-11-6.5-15-12.3C257.2,241.1,259.8,247.2,262.2,254.1z
		 M288,160.6c-4.4-1.2-8.6-2.4-12.8-3.5c-1.9-0.5-2.7,0.2-1.9,2c2,4.3,5.1,7.5,9,10.1c0.9,0.6,1.8,0.9,2-0.8
		C284.8,165.6,286.1,163,288,160.6z M138.2,277.3c0-0.6,0.1-1.1,0-1.5c-0.2-0.9,0.7-2.3-0.8-2.7c-1.6-0.5-1.8,1.1-2.4,1.9
		c-3.1,4-3.3,8.7-3.3,13.4c0,1.1-0.6,2.7,1.6,2.7c1.8,0.1,3-0.1,3.4-2.3C137.4,285,137.8,281,138.2,277.3z M197.3,166.4
		c3.5,3,7.1,4.5,10.9,5.5c0.4,0.1,1.1,0,1.3-0.2c1.8-2.4,3.7-4.7,4.1-7.9c0.1-1.2-0.5-1.2-1.4-1
		C207.5,163.9,202.7,165.1,197.3,166.4z M280.7,141.5c-4.6,0.5-8.4,0.5-12.1,0.2c-1.1-0.1-1.4,0.5-1,1.5c1.3,3.4,2.6,6.7,4.1,10.5
		C274.7,149.6,277.4,145.9,280.7,141.5z M181,156.1c0.9-2.2,0.6-4.1,0.5-6c-0.3-5.2-0.4-5.2-5.4-4.9c-5.1,0.4-5.1,0.4-6.1,5.4
		c-0.2,0.8-0.8,1.9,0.2,2.4c1,0.6,2.1,0.2,3-0.5c0.5-0.4,0.8-1.1,1.2-1.6c1.8-2.6,3.2-2.5,4.5,0.5
		C179.6,152.8,179.7,154.5,181,156.1z M266.6,136.7c3.7-3.4,6.2-6.9,7.7-11.2c-2.3,0-4.4-0.1-6.4,0c-0.9,0-1.9,0.1-1.9,1.3
		C266,129.9,266,133,266.6,136.7z M143.3,267.7c0.4-2.3-1.9-2-3.3-2c-2.7-0.1-1.9,2.6-2.7,4c-0.5,0.9,0.7,1.3,1.1,0.9
		C139.8,269.4,143.3,272.1,143.3,267.7z M175.7,160.9c0.9-0.4,2.9,0.2,2.6-1.6c-0.3-1.7-0.6-4.6-2.3-4.4c-1.8,0.2-1.6,3.2-2.1,4.9
		C173.5,161.1,174.7,161,175.7,160.9z M156.2,129.9c0-1.3,0.1-3.1-1.1-3.3s-1.3,1.6-1.8,2.6c-0.4,0.8-0.5,1.7-0.6,2.5
		c-0.2,0.9,0.1,1.3,1,1.2c0.8-0.1,1.8,0.7,2.2-0.6C156.1,131.5,156.2,130.6,156.2,129.9z M189.2,203c0.6,2.2,1.6,3.5,2.9,4.8
		c0.5,0.6,1,0.9,1.6,0c1.3-1.9,0.6-4-1.5-4.3C191.3,203.3,190.4,203.2,189.2,203z M253.5,83.1c-1,1.5-2.5,2.9-1.5,4.6
		c0.4,0.7,2.4,0.8,2.9-0.1C255.9,86,255,84.4,253.5,83.1z M124.7,120.2c-0.9-0.9-0.9-2.9-2.5-2.3c-0.8,0.4-2,1.9-1.3,2.5
		C121.8,121.6,123.4,120.5,124.7,120.2z M214,88.4c-0.1,0.1-0.1,0.3-0.1,0.4c1.8,0.5,3.4,0.9,5.2,1.3c0.6,0.1,1.3,0.8,1.8-0.1
		c0.2-0.3,0.4-0.8,0.3-1.1c-0.2-0.9-1.1-0.5-1.6-0.6C217.6,88.4,215.8,88.4,214,88.4z M224,92.8c0.2,2.3-0.4,4,0.9,5.2
		c0.3,0.3,1.6,0,1.7-0.7C226.9,95.6,225.5,94.6,224,92.8z M236.9,198.1c-0.1-2,0.6-3.5-0.6-4.7c-0.4-0.4-1,0-1.2,0.4
		C234.5,195.4,235.2,196.6,236.9,198.1z M110.9,110.1c1.2,0.9,2.1,1.5,3.4,1.5C114.3,108.8,113.1,108.5,110.9,110.1z"/>
	<path style="fill:#A7A7A7;" d="M174.5,89.6c3.4-1,5.8-3.7,8.8-5.4c3.6-2.2,7.4-3.7,11.5-4.9c1.5-0.5,2.3-0.2,1.6,1.6
		c-0.8,2.2-1.5,4.4-2.2,6.6c-0.4,1.3-1.3,1.8-2.6,2c-0.9,0.2-1.9,0.3-2.9,0.5c-1.5,0.4-1.9,1.3-1.5,2.7c0.4,1.2,1.3,1.8,2.5,1.3
		c2.4-0.8,4.8-0.4,7.2-0.4c-6.2,15.1-3.1,30.6-2.1,45.9c0.2,3.9,2,7.5,3.7,11c0.9,1.9,0.4,2.7-1.5,2.9c-3.8,0.4-7,2.2-10.2,4
		c-0.1-0.1-0.2-0.2-0.4-0.4c1.1-8.8-1.2-16.9-4-25.1c-2.6-7.7-7.6-13.6-12.4-19.8c-2.9-3.7-6.2-6.8-10.1-9.1
		c-6.4-3.9-13.1-2.6-18.6,2.6c-3.7,3.6-5.3,8.1-7,12.6c-0.5,1.2-0.6,2.7-2.6,2.3c-2.3-0.5-4.7-0.5-5.7-3.3c-0.1-0.2-0.2-0.5-0.1-0.5
		c3.6-3.9,5-9.4,10.4-11.9c5-2.3,9.7-5.3,14.6-7.9c1.9-1,4-1.6,6.2-1.5c1.9,0.1,3-0.6,3.5-2.6c0.9-4.3,2.5-8.4,4.1-12.4
		c1.1-2.6,2.6-4.7,5.8-5.8c-1.3,5.4-1.5,10.5-1.2,15.7c0,0.3-0.1,0.6,0.1,0.9c0.5,1.3-0.5,3.7,1.8,3.6c1.9-0.1,0.5-2.3,1.1-3.4
		C173.4,91.4,173.5,89.8,174.5,89.6z"/>
	<path style="fill:#A9A9A9;" d="M135.2,137.2c4-2.6,8-3.8,12-5.2c1.3-0.5,3.1-1.1,2.5,1.6c-0.1,0.4,0,1.2,0.2,1.3
		c2.3,1.5,4.9,0.5,7.4,0.5c1.6,0,1.6-1.5,1.6-2.3c0.1-2.9,1.2-2.2,2.7-1.1c5.8,4,8.2,13.7,5,20c-0.5,0.9-1.3,1-2.2,1.2
		c-2,0.5-4.1,0.4-6,1.2c-3.8,1.8-5.6,5.1-6.4,8.9c-1.1,5-0.5,10.1,0.9,15c0.4,1.4,1.1,2.7,2.1,3.8c0.7,0.8,1.5,1.4,2.6,0.8
		c1.3-0.7,0.5-1.8,0.1-2.5c-1.6-2.9-2.2-6-2.6-9.2c-0.6-4.4,0.7-8.2,3-11.9c0.9-1.5,2.5-2.2,4.1-2.6c1.6-0.4,3.3-0.6,4.9-0.6
		s3.8-1,4.7,0.1c0.9,1.1-1.1,2.6-1.6,4c-0.6,1.6-0.3,2.7,1.6,2.9c1.1,0.1,2.2,0.5,3.2,0.3c3.2-0.5,4.8,1.2,6.1,3.8
		c1.7,3.2,2.2,6.7,1.1,9.9c-1.5,4.1-3.2,8.3-6.5,11.5c-2.3,2.2-4.8,3.4-7.9,3.3c-2.6,0-5.3,0.6-7.8,0c-1.3-0.3-2.1,0.3-2.5,1.4
		c-0.4,1.3,0.8,1.6,1.6,2c2.5,0.9,5.1,1,7.8,0.6c1.3-0.2,1.9,0.1,1.6,1.5c-1.3,5.4-2.1,11-6.5,15c-4.1,3.7-9.1,5.4-14.5,4.9
		c-3-0.3-6.2-0.5-9.2-1.5c-0.9-0.3-1.9-0.3-2.6,0.6c-0.9,1.1-1.1,1.7,0.5,2.2c3.3,1,6.7,1.9,10.2,2.2c1.1,0.1,1.6,0.2,1.3,1.5
		c-2.3,11.6-4.3,23.3-8.4,34.4c-2.2,5.7-4.9,11.2-8,16.5c-1.2,2.1-1.9,4.4-3.2,6.5c-5,7.5-12.5,10.4-20.9,11.9
		c-5.2,0.9-10.5,0.9-15.7,0.5c-3.8-0.3-7-1.8-8.5-5.7c-0.6-1.5-1.6-2.9-2-4.5c-2.9-11.6-7.8-22.6-9.2-34.6
		c-0.9-7.7,3.6-15.3,10.5-19c8.8-4.7,18.2-8.6,25.1-16.5c5.7-6.6,7.9-14.4,9.6-22.4c0.8-3.5,1.1-7.1,1.5-10.7
		c1.1-10.3-0.8-19.9-6.3-28.8c-1.2-1.9-1.5-4-1.6-6.1c0-2.7,0.1-5.4,0.1-8.2c0-1.5,0.3-2.7,2-3.1c0.9-0.2,1.3-1.1,1.7-1.9
		c2.9-6.3,11-9.2,17.2-6.1c2.9,1.5,4.6,3.8,4.3,7.3C135.8,133.6,135.5,135.2,135.2,137.2z"/>
	<path style="fill:#A9A9A9;" d="M206.2,129c1.7,1.4,1.2,4.9,4.4,4.1c2.5-0.5,5.2-1,6.1-3.9c0.9-2.7-1.8-3.5-3.3-4.8
		c3.7-1.6,11.1,0.5,13.2,3.7c0.6,1,1.3,1.9,2,2.9c0.5,0.7,1.2,1.5,2.2,1.1c0.8-0.4,1.5-1.1,1.6-2c0.2-2-0.1-3.8-1.5-5.4
		c-2.9-3.4-6.7-4.7-10.8-5.2c-2.7-0.4-3.4-1.6-3.3-4.2c0.2-4.2,1.3-8.2,2.3-12.3c0.3-1.1,0.8-2.3,2-2.7c1.3-0.4,1.5,0.8,1.9,1.7
		c0.4,0.9,0.9,0.8,1.6,0.3c1.6-1.2,3.3-2.1,5.1-2.7c0.5-0.2,1.2-0.7,1.2-1.1c0.1-2.8,2-2.2,3.4-1.8c3.7,1,7,2.7,8.2,7
		c1.4,4.9,2,9.7,0.1,14.6c-0.4,1.1-0.7,2.2,0.6,2.7c1.4,0.6,1.9-0.7,2.3-1.6c1.9-4.4,1.7-8.9,0.6-13.4c-0.8-3.2-1.1-6.6-4-8.8
		c-0.9-0.7-0.6-1.3,0.1-1.9c2.7-2.5,5.3-5.2,9.6-4.3c1.4,0.3,2.9,0.1,4.4,0c3.2-0.2,3.2-0.2,3.8-3.4c5.3,2.6,7.7,7.1,8.4,12.5
		c0.8,6.3-1.1,12.2-4.8,17.3c-1.2,1.7-1.6,3.2-1.1,5.3c0.8,3.6,0.8,7.4,0.5,11c-0.4,3.8,0.1,7.6,1.4,11.2c2.3,6.1,4.5,12.2,7.5,18
		c1.6,3.2,3.7,5.6,6.6,7.5c4.7,3.2,9.5,6.1,14,9.5c3.9,3,8.1,4.3,12.6,5.7c7.8,2.6,12.1,7.9,11.9,16.2c-0.3,12.3-2.1,24.4-5.6,36.2
		c-0.5,1.6-1.5,2.3-2.8,3c-5.7,3-12,2.8-18.2,3.5c-8.1,0.9-15.7-1.1-22.7-5c-4.9-2.7-7.8-7.1-9.1-12.8c-1.1-4.9-3.2-9.5-4.4-14.4
		c-1.8-7-4.3-13.7-7.4-20.2c-0.6-1.3-1.2-2.7-1.3-4.1c-0.1-1.3-0.8-2.4-1.7-3c-3.1-1.9-6-4.6-9.7-5.1c-1.8-0.3-3-1.1-3.9-2.2
		c-2.7-3.6-5.5-7.2-6.4-11.9c-0.6-3.2-2.5-5.5-5.4-6.9c-5.4-2.7-9.5-7-14.3-10.5c-3.1-2.3-3.8-9.3-1.9-13.7
		C203.2,132.4,204.5,130.6,206.2,129z"/>
	<path style="fill:#444444;" d="M129.4,284.2c0,2.4,0.1,4.3,0,6.3c-0.1,2.2,1,3.2,3.2,3.2c0.7-0.1,1.3,0,2,0
		c2.5,0.1,3.9-0.6,4.3-3.5c0.8-4.8,0.8-9.6,1.4-14.4c0.2-2,1.1-2.9,2.7-3c2.1-0.1,2.6-1.2,2.6-3c0-0.2,0-0.4,0-0.6
		c0.1-5.6,0.1-5.6-5.7-5.1c2.2-6,4.3-12,6.6-18.5c1.7,5.4,3.2,10.2,4.8,15c0.2,0.6-0.1,1.8,0.9,1.9c0.5,0,1.1-0.8,1.5-1.3
		c3.3-4.9,6.5-9.8,10.6-14.2c2.9-3,5.4-6.3,8.1-9.5c1.1-1.3,1.9-0.8,2.8,0.2c2,2,4,4.2,6.4,5.9c5.6,3.9,11.7,4.2,18.1,3.7
		c8.3-0.6,15.7-3.9,22.9-8c1.3-0.8,2.5-0.7,3.7,0.4c4.6,4.3,10.2,7.1,15.7,9.8c1,0.5,1.9,0.8,1.8,2.2c-0.5,6.7,1,13.4,0.6,20.1
		c-0.6,9.7-0.4,19.3-0.6,29c-0.2,6.1-1.8,12-2.6,18.1c-0.6,4.6-1.5,8.9-3.6,13.1c-2.2,4.2-5.7,6-10,6.5c-4.2,0.5-8.5,0.5-12.8,0.7
		c-1.2,0.1-2.9-0.4-2.9,1.5c0,1.6,1.4,2.6,3,2.6c3.4-0.2,6.8-0.5,10.1-0.8c0.4-0.1,0.8-0.2,1.1-0.2c2.9-0.4,3-0.1,2.2,2.5
		c-0.8,2.3-1.6,4.6-1.9,7c-0.2,2.5-1.7,2.6-3.2,1.9c-3.9-2.1-8.1-2.5-12.3-3.2c-1.9-0.4-3.7,0.2-5.4,0.7c-7.1,1.9-14.4,3-21.7,3.4
		c-6.1,0.4-12.2,0.5-18.2-0.5c-6.5-1-12.1-4.6-18.1-7.2c-1.3-0.5-2.6-0.8-3.9-1.1c-3.7-1-6.4-3.6-9.2-5.9c-3.8-3.2-7.4-6.7-11.1-9.8
		c-1.5-1.3-2.1-3-2.1-4.6c0-10.1-0.7-20.2,1.6-30.2c0.6-3,2-5.7,3-8.5C126.5,285.2,127.9,285.2,129.4,284.2z M157.6,294.8
		c1.1,0,2.9,0,4.6,0c1.5,0,3-0.1,2.8-2c-0.2-1.9,1.3-4.4-2-5.2c-2.3-0.5-4.7-0.2-7-0.4c-0.9-0.1-2.5,0.6-2.4-1.1
		c0.1-1.5,1.6-1.2,2.6-1.2c2.2-0.1,4.5-0.1,6.7,0c2.3,0.1,3.4-1,3.3-3.3c-0.1-2,0.1-4.1-3-4.4c-2.4-0.2-4.8-0.5-7.2-0.5
		c-0.8,0-1.9,0.2-1.9-1.1c-0.1-1.3,1-1.2,1.8-1.2c1.6,0,3.3,0,5,0c4.1,0,5-1.1,4.8-5.3c-0.1-1.8-0.9-2.3-2.6-2.3
		c-4.7,0.1-9.5,0.2-14.1-0.5c-1.6-0.2-2.5,0.2-2.5,1.9c-0.1,7.8,0.1,15.5-0.5,23.3c-0.1,1.6,0.8,2.4,2.4,2.7
		C151.1,294.9,154.1,294.7,157.6,294.8z M191.4,269.7c-0.2-1.9,0.5-3.7-2.2-4.3c-4.7-0.9-5-0.8-6.1,4.1c-0.4,1.8-0.1,4.7-2.9,4.7
		c-2.6,0-2.9-2.7-3.1-4.6c-0.4-2.9-2-3.2-4.3-2.7c-4.9,0.9-6,2.9-3.2,7.5c2.6,4.3,4.1,8.3-0.3,12.3c-0.1,0.1-0.2,0.3-0.4,0.5
		c-2.5,4.9-1.2,7,4.1,7c0.7,0,1.3-0.1,2,0c2.2,0.1,3.2-0.8,3.3-3c0.1-1.9,0.6-3.8,1.1-5.7c0.1-0.7,0-1.7,1.2-1.7
		c0.9,0,1.2,0.8,1.5,1.6c0.6,1.6,1.3,3.3,1.9,4.9c0.6,1.5,1.7,2.8,3.5,2.5c1.3-0.2,2.5-0.3,3.7-0.2c2.1,0.1,2.6-1.2,2.1-2.9
		c-0.6-2.5-1.2-5-2.9-7c-1.8-2.1-2.5-4-0.6-6.5C191.4,274.3,191.1,271.7,191.4,269.7z M173.9,309.4c0,4.1,0.2,8.3,0.4,12.4
		c0.2,3,1.9,3,3.7,3.2c1.9,0.1,3.4-0.5,3.5-2.9c0.1-1.5,0.5-3,0.8-4.6c0.2-1.3,1.1-1.9,2.5-1.9c1.4,0.1,2.2,0.6,2.5,1.9
		c0.2,0.9,0.5,1.9,0.6,2.9c0.6,3.2,2,4.8,4.2,4.6c3.4-0.3,4.6-1.7,4.6-5.2c0-2,0.2-4,0.4-6.1c0.4-4.1,0.3-8.2-1-12.3
		c-0.9-3-5.4-6.4-8.2-6c-4,0.6-8,1.1-11.9,2.5c-1.5,0.5-2.2,1.3-2.2,2.9C173.9,303.8,173.9,306.6,173.9,309.4z M146.4,299.8
		c-0.1-1.3,0.3-3.1-1.6-3.2c-4.1-0.1-8.1-1.1-12.2-0.6c-2,0.2-3.1,1.5-3.1,3.5c0,2,0,4.1,0,6.1c0,4.7,0.7,5.6,5.4,6
		c0.6,0.1,1.2,0,1.8,0.1c0.8,0.1,1.9-0.4,2.1,0.9c0.2,1.3-0.7,2.1-1.8,2.3c-1.6,0.2-3.3,0.4-4.9,0.2c-2.6-0.2-3.2,1.2-3.2,3.4
		c0,2.2-0.1,3.9,2.9,4.4c3.7,0.5,7.6,0.1,11.3,0.8c3.8,0.8,5.5-0.6,5.6-4.6c0.1-3.3-0.1-6.6,0.1-9.9c0.1-2.5-1.1-3.6-3.5-3.4
		c-1.6,0.1-3.3,0-5,0c-0.8,0-1.9,0.2-1.9-1.1c0-1.5,1.3-1.1,2.2-1.2c0.4,0,0.8,0,1.2,0.1C145.8,304.3,146.3,304,146.4,299.8z
		 M221.7,265.5c0.5,2.6,0.2,5.3,0.8,7.8c1.5,7.9,0.4,6.7,7.6,5.3c0.1,0,0.2-0.1,0.3-0.1c1.1,0.1,2.6-0.8,3,0.8
		c0.4,1.9-1.5,1.3-2.4,1.8c-0.2,0.1-0.6,0.2-0.9,0.2c-7,0.9-7.1,1.3-4.2,7.5c0.7,1.5,1.8,2,3.3,1.7c3.3-0.6,6.6-1.5,9.6-3.2
		c2.2-1.1,2.9-2.9,2.7-5c-0.1-2.2-0.6-4.4-1-6.6c-0.8-4.4-1.5-4.9-5.7-3.9c-1.4,0.3-2.6,0.2-2.9-1.5c-0.4-1.7,0.9-1.8,2.2-2
		c4.6-0.6,5.8-2.6,4.4-6.7c-0.6-1.9-1.6-2.9-3.9-2c-3.1,1.2-6.3,2.4-9.5,2.4C222.4,262,221.3,263,221.7,265.5z M231,310.3
		c2.1-0.5,3.7-1,5.4-1.2c1.9-0.3,2.2-1.9,2-3c-0.2-1.8,0.4-3.8-1.3-5.2c-0.5-0.4-1.1,0.1-1.6,0.2c-1.2,0.2-2.5,0.5-3.7,0.6
		c-0.9,0.1-1.6-0.3-1.6-1.3c-0.1-1,0.7-0.9,1.4-1.1c1.3-0.2,2.7-0.4,4-0.8c1.4-0.4,3-0.6,2.5-2.8c-0.4-1.8-0.9-3-3.2-2.9
		c-4.3,0.2-8.5,0.9-12.7,1.6c-1.7,0.3-2.3,1.1-2.1,2.7c0.9,6.7,1.9,13.4,2.8,20.1c0.4,2.8,1.1,4.7,4.8,3.3c2.3-0.9,5.1-0.6,7.7-1.3
		c2.5-0.6,3.8-3.2,3.4-5.7c-0.4-2.7-2.6-2.3-4.5-2.5C233.3,311.1,232.3,311.5,231,310.3z M197.2,288.3c0,0.4,0,0.8,0,1.2
		c0.1,1.6-0.6,3.6,1.4,4.4c2.1,0.8,4.6,1,6.5-0.1c1.8-0.9,0.8-3.2,0.5-4.8c-0.2-1.3-0.4-2.7,0-4c0.3-0.9,0.9-1.6,1.9-1.6
		c1,0,1.1,1,1.3,1.7c0.4,1.4,0.6,2.8,1.1,4.2c1.2,3.6,1.4,3.6,6.8,2.6c3-0.6,2.4-2.9,2-4.6c-1.5-5.4-1.7-11.1-3-16.5
		c-0.3-1.3-1.1-2.1-2.2-3.1c-4-3.3-8.5-1.9-12.9-1.9c-1.5,0-3,0.8-3.5,2.6c-0.7,3-1.3,6-0.9,9.2
		C196.7,281.1,197.3,284.6,197.2,288.3z M157.5,317.7c0,1.9-0.1,3.7,0,5.6c0.2,3.4,2.8,2.4,4.8,2.6c2,0.2,2.8-0.7,2.7-2.7
		c-0.1-4.6,0-9.1,0-13.7c0-1.5,0.3-2.5,2-2.3c2.7,0.4,3.4-1.1,3.2-3.4c-0.1-1.5,0-2.9-0.1-4.4c-0.1-1.5-0.9-2.2-2.5-2.2
		c-5-0.2-9.9,0.7-14.8,0.7c-0.7,0-1.3,0.2-1.7,0.9c-1.7,3,0.4,7.4,3.8,7.8c2.3,0.3,3.4,1.5,2.9,3.7
		C157.3,312.7,157.6,315.2,157.5,317.7z M208,295.9c-1.7-0.2-3.3,0.5-4.9,0.6c-1.2,0.1-2.9-0.2-2.9,1.6c0,2-1.2,4.8,1.5,5.7
		c2.4,0.8,2.4,2.4,2.6,4.2c0.4,4.3,0.7,8.5,0.6,12.8c-0.1,2.3,1.8,3.7,4,3.1c1.7-0.4,3-1.5,3.4-3.3c0.6-2.9,0.8-5.9,0.5-8.9
		c-0.3-2.9-1.9-6.1,2.5-8c2.3-0.9,0.8-3.7,0.6-5.6c-0.1-1.1-0.8-1.5-1.8-1.5C212,296.3,210,296.2,208,295.9z"/>
	<path style="fill:#FCFCFC;" d="M154.2,255.2c-1.8-5.4-3.1-10.7-5.7-15.5c-1.1-2.1,0.1-4.8,0.5-7.2c0.5-3.3,1.4-6.4,1.9-9.7
		c0.2-1.6,1.1-2.2,2.6-2.5c7.2-1.8,13-5.6,15.9-12.9c0.9-2.3,1.5-4.9,2-7.3c0.3-1.3,0.9-1.5,2-1.1c3.4,1.3,7,2.2,10.6,3
		c1.1,0.2,1.8,0.9,2.2,2c1.1,3.2,3.5,5.6,5.5,8.2c1.5,2,2.9,1.9,3.4-0.5c1.3-6,4.6-8.3,10.8-8.1c3.9,0.1,8.2-0.4,11.2-3.9
		c0.2-0.2,0.7-0.2,1.1-0.2c3.4,0,6.5-0.8,9.6-2.2c2.7-1.3,4.6-0.9,5.6,2.2c0.5,1.4,1.5,2.2,2.7,2.9c1.5,0.9,2.6,0.5,3.2-1.1
		c0.9-2.5,1.4-5,0.9-7.7c-0.2-0.8-0.3-1.6-0.2-2.3c0.1-0.9,0.6-2,1.6-2.2c0.9-0.2,1.1,1,1.5,1.6c4.9,7.6,6.4,16.4,9.1,24.8
		c0.6,1.7,0.9,3.5,1.5,5.9c-2.7-2.1-5.2-3.2-7.8-4c-1.6-0.5-2.2-0.2-2,1.8c0.8,8.5,1.5,17.1,2.2,25.6c0.1,0.9,0.3,1.8-0.6,2.4
		c-0.9,0.6-1.7-0.1-2.4-0.5c-4.9-3.2-10.1-6-14-10.3c-1.2-1.3-2-1.4-3.6-0.4c-10.3,7.1-21.6,10.5-34.1,9c-7.3-0.9-12-5.6-16.1-11
		c-1.5-1.9-2.1-2.3-3.7-0.2c-4,5.5-7.8,11.1-13,15.7C156.8,250.9,155.7,253,154.2,255.2z"/>
	<path style="fill:#A7A7A7;" d="M74.7,215.3c3.6-7.2,10.3-10.5,16.5-14.1c1.7-1,3.4-1.9,5.1-2.8c1.1-0.6,2.2-1.3,2.8-2.5
		c0.5-0.8,1.1-1.8,0.5-2.7c-0.6-0.9-1.6-0.5-2.5-0.4c-4.1,0.3-8.2,0.6-12.2,0.8c-1.5,0.1-3.1-0.2-5.1-0.4c2.2-4,4.9-7.2,7.5-10.3
		c3.4-4.1,3.5-4-1.3-6c-1.8-0.7-3.6-1.4-5.4-2.2c-0.2-0.1-0.5-0.3-1.1-0.7c4.3-2.7,8.4-5.5,12.4-8.1c0.4-0.2,1.1-0.1,1.7-0.1
		c1.9,0.1,3.9,0.3,5.8,0.5c2,0.2,4.2,0.4,4.3-2.4c0.1-2.7-2-2.8-4.1-2.9c-15.9-0.5-26.6-8.3-32.6-23c-6.1-15.1-11-30.6-13.5-46.6
		c-1.1-6.8-2.9-13.5-2.8-20.8c1.8,0.7,2.6,2,3.5,3.2c5.7,7.1,13.4,11.1,22,13.6c14.6,4.3,28.6,10,42.2,16.8c0.1,0.1,0.2,0.1,0.3,0.1
		c2.5,1.4,5.2,2.5,7.3,4.3c2.9,2.6-2.7,4.4-0.7,7.2c-4.1-2.4-4.1-2.4-7.3,3.3c-0.8-3.3-1.1-6.5-2.2-9.5c-1.4-3.7-1.6-3.8-5.5-3
		c-3.7,0.7-7.3,2-11.5,1.4c0.5-1.1,0.8-2,1.2-2.8c1.7-3.3,1.4-3.7-2.3-3.7c-4.7-0.1-9.3-0.3-14-0.9c-4.9-0.7-9.1-2.7-13.1-5.3
		c-2.5-1.6-5-3.4-7.5-5.1c-2.5-1.7-4.1-1-4.3,2c-0.7,10.8,0.1,21.2,5.7,30.8c2.1,3.6,3.3,7.7,4.9,11.6c1,2.5,2.7,4.3,4.7,6.1
		c6.5,5.6,14.6,7.9,22.2,11.5c1.7,0.8,3-0.4,4.4-0.8c2.3-0.6,4.9-2.6,6.7-1.9c1.5,0.5,1.8,4,2.9,6.1c5.8,11.5,5.8,23.1,2.7,35.5
		c-1.7,6.8-4.8,12.5-8.9,17.9c-2,2.6-4.7,4.3-7.2,6.3c-0.7,0.6-1.5,0.8-2.5,0.6C88.1,214.3,81.5,214.1,74.7,215.3z"/>
	<path style="fill:#FAFAFA;" d="M181.3,187.2c0.6-1.4,1.1-2.3,1.5-3.4c3.2,2.2,7,1.5,10.5,2.1c0.9,0.2,1.8-0.4,1.8-1.5
		c0.1-1.2-0.8-1.5-1.7-1.6c-3-0.4-6-0.6-8.9-1c0.3-2.3,0.8-3.8,3.6-2.6c1.5,0.6,3.3,0.5,4.9,0.6c1,0.1,2.1,0.1,2.3-1.2
		c0.2-1.3-0.9-1.6-1.9-1.7c-1.9-0.3-3.9-0.7-5.8-0.7c-1.3,0-1.5-0.4-1.7-1.6c-0.5-3.4,0.2-7-1.4-10.3c-0.4-0.7,0.2-0.9,0.7-1.3
		c4.8-3,9.4-6.6,15.4-6.8c0.7,0,1.6-0.2,1.8-0.8c0.8-3,2.1-1.5,3.4-0.6c2.2,1.5,4.3,2.9,6.8,4.6c-5.6,0.6-10.8,2.2-15.9,3.7
		c-1.5,0.4-2.7,1.1-3,2.7c-0.4,1.6,0.8,2.3,1.8,3c3.8,3,7.9,5.3,12.7,6.1c1.6,0.2,2.6,1.1,3.2,2.6c1.9,4.3,2,8.9,1.9,13.4
		c0,1-0.1,1.9-0.1,2.9c-0.2,5.8-0.4,6-6.4,6.8c-9,1.2-17.6-1-26.2-3.1c-2.7-0.6-5.5-1.3-8.5-2c3.6-2.9,6.8-6,11.9-5.6
		c1.8,0.2,3.7-0.1,5.6-0.3c0.8-0.1,2,0,1.9-1.2c0-1.3-0.9-1.9-2.2-1.8C186.7,186.9,184.2,187,181.3,187.2z"/>
	<path style="fill:#A5A5A5;" d="M258.6,80.8c-0.8-0.2-0.9-1-1.3-1.5c-1.8-2-3.7-1.9-5.3,0.4c-0.6,0.8-1.2,1.6-1.5,2.5
		c-1.1,3.2-2.8,5.4-6.2,6.5c-1.4,0.5-1.9,0.4-2.4-0.8c-1.2-2.9-2.1-5.8-4.4-8.5c3.5-0.4,6.4-1.2,9.1-2.9c3-1.9,4.8-4.4,5.2-8
		c0.7-6.4,0.4-12.5-1.9-18.6c-1.8-4.9-2.4-10.2-3.4-15.3c-0.2-1.1-0.2-2.3-1.5-2.5c-1.5-0.1-1.4,1.3-1.6,2.3
		c-1.2,6.7-2.7,13.3-5.2,19.7c-1.6,4-4.3,7.1-7.7,9.7c-1.2,0.9-3.2,1.8-2.3,3.6c0.8,1.6,2.9,1.9,4.6,1.8c1.3-0.1,2.6-0.9,4,0.4
		c-1.3,1.3-3,1.8-4.7,2c-5.2,0.8-9.7,3.2-14.1,5.8c-1.2,0.7-2,1.5-2,3c0.1,1.6,1.5,1.6,2.5,2c3,1.1,5.8,2.5,8.9,5
		c-2.3-0.5-3.9-0.9-5.6-1.1c-5.1-0.8-10.2-1.1-15,1.5c-0.9,0.5-2.3,0.1-3.4,0.2c-1.1,0.1-2.6-0.1-2.6,1.2c-0.1,1.6,1.7,0.7,2.7,1.2
		c-1.7,0.8-3.3,1.6-4.9,2.3c-0.1-0.1-0.2-0.2-0.3-0.3c-0.4-3.9,2.2-6.5,3.9-9.5c2.7-4.7,7-8.1,11-11.6c13.1-11.5,21.7-25.7,27.4-42
		c1.3-3.8,2.8-7.6,4.5-12.2c1.1,7.1,1.9,13.4,2.9,19.8c0.1,0.8,0.4,1.5,0.5,2.3c0.2,1,0.8,1.5,1.7,1.7c1,0.2,1.3-0.6,1.8-1.2
		c0.7-1.2,1.4-2.3,2.6-3.3c-0.1,1.8-0.4,3.6-0.4,5.5c-0.4,12.2,1.5,24,4.1,35.8C258.4,78.6,259.1,79.7,258.6,80.8L258.6,80.8z"/>
	<path style="fill:#FBFBFB;" d="M65.4,100.1c1.9,0.2,2.5,1.3,3.4,2c5,4.3,11,6.5,16.8,9.2c2.3,1.1,3.3,2.1,1.1,4.3
		c-1.7,1.6-0.9,2.4,1.1,2.7c4.1,0.6,8.1-0.1,12.2-0.2c4.5-0.2,6.3,1.7,6.7,6.1c0.7,7.4-3.1,12.8-7.1,18.2c-0.7,0.9-1.6,0.9-2.6,0.8
		c-7.4-1.6-13.8-5-17.4-12.1c-2.8-5.6-5.4-11.2-8.6-16.5C68.4,110.2,67.6,105.1,65.4,100.1z"/>
	<path style="fill:#A7A7A7;" d="M139.7,125.7c-0.4-4.7,2-8.8,4.2-12.7c3.6-6.3,10.6-6.7,17.1-1.9c7.1,5.3,10.9,12.8,14.5,20.5
		c1,2.1,1.9,4.2,2.9,6.4c0.5,1.1,0.5,2.2-1.2,2c-0.1,0-0.2,0-0.3,0c-5.4,0.8-5.4,0.8-7.6-4c-1.6-3.6-4.1-6.1-7.7-7.7
		c-1.9-0.8-3.1-1.8-3-4c0.1-2-1-2.3-2.7-1.7c-0.9,0.4-1.9,0.7-2.5,1.5c-2.9,4.8-8.4,3.9-12.6,5.6c-1.1,0.5-1.6-0.4-1.5-1.5
		C139.5,127.5,139.6,126.7,139.7,125.7z"/>
	<path style="fill:#F6F6F6;" d="M228.2,90.8c1.3-0.4,3,1.8,3.9-0.3c0.8-1.8-1.1-2.7-2.1-3.8c-2.7-2.7-5.7-5.2-9.4-7.4
		c6.5-2.4,12.2-5.2,18-7.9c1-0.5,2.5-0.8,2.5-2.2c-0.1-1.6-1.7-1.3-2.7-1.6c-1.9-0.5-4-0.8-6.8-1.3c8.7-7.2,12-16.6,13-27.4
		c0.5,0.6,0.7,0.7,0.7,0.8c1.9,8,4.9,15.7,4.6,24.1c-0.2,6.7-2.6,9.9-9.1,11.7c-2,0.6-4.1,1.1-6.2,1.7c-1.5,0.5-2,1.3-0.5,2.3
		c4.1,2.4,4.8,6.9,6.5,10.7c0.9,2-1.5,4.3-3.7,3.6c-2.1-0.6-4.1-0.9-6.3-0.8c-1.5,0-2.6-0.6-2.3-2.5L228.2,90.8z"/>
	<path style="fill:#A7A7A7;" d="M197.9,115.1c0.5-3.7,0.1-8.1,1.1-12.4c1-4.5,3.8-7.2,8.5-7.2c2.6-0.1,5.1,0.5,7.6,1.6
		c3,1.3,2.8,2.7,1.6,5.3c-2.5,5-3.4,10.5-2.6,16.1c0.2,1.1,0.1,1.8-1,2.3c-1.1,0.5-1.8,0.2-2.5-0.6c-0.8-0.9-1.5-1.8-3-1.2
		c-1.4,0.6-1.7,1.8-1.5,3.1c0.4,3.9-3,5.4-5,7.8c-0.7,0.8-2-0.4-2.2-1.8C198.4,124.1,197.8,120,197.9,115.1z"/>
	<path style="fill:#444444;" d="M246.3,267.3c0.8-5.2,0.7-10.1,0.3-15.1c-0.1-0.4-0.2-0.9,0.4-0.8c4,0.2,2.2-2.6,2-4.1
		c-0.8-7-1.6-14-2-21c-0.1-1-0.6-2.4,0.5-3c1.2-0.7,2,0.8,3,1.2c2.2,1.1,2.9,2.8,3,5.4c0.4,6.5,1.3,12.9,3.9,18.9
		c0.7,1.7,1.1,3.5,1.8,5.2s0.4,3-0.9,4.1c-3.2,3.2-5.8,6.7-8.5,10.3c-0.6,0.9-1.1,2.6-2.3,2.1C246.3,270,246.3,268.3,246.3,267.3z"
		/>
	<path style="fill:#FAFAFA;" d="M224.8,182.1c-0.6,1.9-0.1,2.9,2,2.5c0.9-0.2,2.1,0,2.9-0.5c3.2-2.1,6,0.1,8.8,0.8
		c1.1,0.2,1.1,1,0.5,1.8c-0.4,0.5-0.7,1-1.2,1.2c-6.1,3.2-11.8,7.1-19,7.7c-1.3,0.1-1.8-0.1-1.9-1.6c-0.4-4.9-1.1-9.8-1.5-14.7
		c-0.2-1.9-0.6-3.7-1.8-5.1c-0.9-1.1-0.6-1.8,0.1-2.8c1.8-2.5,3.5-4.9,3.3-8.2c-0.1-1.9,1.1-1.2,1.8-0.5c2.6,2.5,2.7,6.1,3.8,9.3
		c0.3,0.8-0.8,1-1.3,1.3c-0.9,0.6-1.8,1.2-2.6,1.9c-0.5,0.4-0.7,0.9-0.2,1.6c0.5,0.7,1.1,0.9,1.8,0.6s1.3-1,2-1.1
		c1.1-0.2,2.5-1.1,3.1,0.4c0.5,1.5-1.2,1.3-2,1.9c-0.8,0.6-2.5,0.7-2,2.3c0.5,1.6,1.9,0.9,3,0.6
		C224.5,181.8,224.6,181.9,224.8,182.1z"/>
	<path style="fill:#8F8F8F;" d="M262.2,254.1c-2.3-6.8-5-13-5.1-20.7c4,5.8,9,9.3,15,12.3C268.2,248.1,265.2,250.7,262.2,254.1z"/>
	<path style="fill:#A5A5A5;" d="M288,160.6c-2,2.5-3.3,5-3.7,7.9c-0.2,1.6-1.1,1.3-2,0.8c-3.9-2.6-7-5.9-9-10.1
		c-0.9-1.8-0.1-2.6,1.9-2C279.4,158.2,283.6,159.3,288,160.6z"/>
	<path style="fill:#909090;" d="M138.2,277.3c-0.4,3.7-0.8,7.6-1.5,11.5c-0.5,2.3-1.6,2.4-3.4,2.3c-2.1-0.1-1.6-1.6-1.6-2.7
		c0.1-4.7,0.2-9.4,3.3-13.4c0.6-0.9,0.8-2.4,2.4-1.9c1.5,0.5,0.5,1.8,0.8,2.7C138.3,276.3,138.2,276.7,138.2,277.3z"/>
	<path style="fill:#F6F6F6;" d="M197.3,166.4c5.3-1.3,10.1-2.5,14.9-3.6c0.9-0.2,1.6-0.2,1.4,1c-0.4,3.2-2.3,5.5-4.1,7.9
		c-0.2,0.3-0.9,0.4-1.3,0.2C204.4,171,200.8,169.4,197.3,166.4z"/>
	<path style="fill:#A5A5A5;" d="M280.7,141.5c-3.3,4.4-6,8.1-9,12.2c-1.5-3.7-2.8-7.1-4.1-10.5c-0.4-1-0.1-1.6,1-1.5
		C272.3,142,276.1,142,280.7,141.5z"/>
	<path style="fill:#8F8F8F;" d="M119.6,293.2c-0.5,2.9-0.9,5.7-1.4,8.7c-0.3,2-1.4,2.3-2.8,1.3c-3.1-2.1-6.1-4.4-9.6-6.9
		c4.9-0.8,9.3-1.7,13.4-3.4C119.3,292.9,119.5,293.1,119.6,293.2z"/>
	<path style="fill:#A5A5A5;" d="M181,156.1c-1.3-1.5-1.5-3.2-2.1-4.6c-1.3-2.9-2.7-3-4.5-0.5c-0.4,0.5-0.7,1.2-1.2,1.6
		c-0.9,0.6-2,1.1-3,0.5c-0.9-0.5-0.3-1.6-0.2-2.4c1.1-5,1.1-5,6.1-5.4c5-0.4,5-0.4,5.4,4.9C181.6,152,181.9,153.8,181,156.1z"/>
	<path style="fill:#A5A5A5;" d="M266.6,136.7c-0.6-3.7-0.6-6.8-0.6-9.8c0-1.2,1-1.3,1.9-1.3c2-0.1,4.1,0,6.4,0
		C272.8,129.7,270.3,133.2,266.6,136.7z"/>
	<path style="fill:#878787;" d="M143.3,267.7c0.1,4.4-3.5,1.6-4.9,2.9c-0.4,0.4-1.6,0-1.1-0.9c0.8-1.4,0.1-4.1,2.7-4
		C141.4,265.8,143.7,265.4,143.3,267.7z"/>
	<path style="fill:#EDEDED;" d="M175.7,160.9c-1.1,0-2.2,0.2-1.8-1.2c0.5-1.8,0.4-4.7,2.1-4.9c1.6-0.2,2,2.8,2.3,4.4
		C178.6,161.1,176.6,160.6,175.7,160.9z"/>
	<path style="fill:#EDEDED;" d="M156.2,129.9c-0.1,0.8-0.1,1.6-0.4,2.5c-0.4,1.3-1.4,0.6-2.2,0.6c-0.9,0.1-1.2-0.4-1-1.2
		s0.4-1.8,0.6-2.5c0.5-1,0.5-2.9,1.8-2.6C156.4,126.8,156.2,128.5,156.2,129.9z"/>
	<path style="fill:#EDEDED;" d="M189.2,203c1.2,0.2,2,0.3,2.9,0.5c2.2,0.4,2.9,2.5,1.5,4.3c-0.6,0.8-1.1,0.5-1.6,0
		C190.9,206.5,189.9,205.1,189.2,203z"/>
	<path style="fill:#EDEDED;" d="M253.5,83.1c1.5,1.3,2.4,2.9,1.4,4.6c-0.5,0.8-2.5,0.8-2.9,0.1C251,85.9,252.5,84.6,253.5,83.1z"/>
	<path style="fill:#EDEDED;" d="M124.7,120.2c-1.3,0.4-2.9,1.4-3.9,0.3c-0.6-0.7,0.5-2.2,1.3-2.5
		C123.8,117.2,123.8,119.3,124.7,120.2z"/>
	<path style="fill:#EDEDED;" d="M214,88.4c1.8,0,3.7,0,5.5,0c0.6,0,1.4-0.4,1.6,0.6c0.1,0.3-0.1,0.8-0.3,1.1
		c-0.5,0.8-1.2,0.2-1.8,0.1c-1.8-0.4-3.4-0.9-5.2-1.3C213.9,88.7,214,88.5,214,88.4z"/>
	<path style="fill:#EDEDED;" d="M224,92.8c1.5,1.8,2.9,2.7,2.6,4.5c-0.1,0.7-1.4,1-1.7,0.7C223.6,96.8,224.2,95.2,224,92.8z"/>
	<path style="fill:#EDEDED;" d="M236.9,198.1c-1.7-1.6-2.5-2.7-1.8-4.3c0.2-0.4,0.8-0.8,1.2-0.4
		C237.6,194.7,236.9,196.1,236.9,198.1z"/>
	<path style="fill:#909090;" d="M110.9,110.1c2.2-1.5,3.3-1.3,3.4,1.5C113,111.6,112,111,110.9,110.1z"/>
	<path style="fill:#FAFAFA;" d="M224.4,181.6c0.5-0.2,0.9-0.5,1.3,0.1c-0.4,0.1-0.6,0.2-1,0.3C224.6,181.9,224.5,181.8,224.4,181.6z
		"/>
	<path style="fill:#F6F6F6;" d="M228.2,90.7c-0.1,0-0.2,0-0.4,0.1c0-0.1,0-0.2,0-0.2c0.1,0.1,0.2,0.2,0.4,0.3
		C228.2,90.8,228.2,90.7,228.2,90.7z"/>
	<path style="fill:#8F8F8F;" d="M119.2,292.8c0.2-0.2,0.5-0.4,0.6-0.1c0.1,0.1-0.2,0.3-0.2,0.5C119.5,293.1,119.3,292.9,119.2,292.8
		z"/>
	<path style="fill:#A7A7A7;" d="M186.8,157.6c-0.2,0.1-0.4,0.2-0.5,0.3c0.1-0.2,0.1-0.4,0.1-0.6
		C186.6,157.3,186.7,157.4,186.8,157.6z"/>
	<path style="fill:#A5A5A5;" d="M198.5,92.7c-0.2,0.1-0.4,0.2-0.5,0.3c0.1-0.2,0.2-0.4,0.2-0.5C198.4,92.5,198.5,92.6,198.5,92.7z"
		/>
	<path style="fill:#A5A5A5;" d="M258.6,80.9c0.1,0,0.2,0,0.4,0c-0.1,0.1-0.1,0.2-0.1,0.4C258.7,81.1,258.6,81,258.6,80.9
		C258.6,80.8,258.6,80.9,258.6,80.9z"/>
	<path style="fill:#181818;" d="M157.6,294.8c-3.6-0.1-6.4,0.1-9.4-0.5c-1.6-0.4-2.5-1.2-2.4-2.7c0.6-7.8,0.5-15.5,0.5-23.3
		c0-1.7,0.9-2.2,2.5-1.9c4.7,0.7,9.4,0.5,14.1,0.5c1.6,0,2.5,0.4,2.6,2.3c0.2,4.3-0.6,5.3-4.8,5.3c-1.6,0-3.3,0-5,0
		c-0.9,0-1.9-0.1-1.8,1.2c0.1,1.3,1.1,1.1,1.9,1.1c2.5,0,4.9,0.2,7.2,0.5c3,0.3,2.9,2.3,3,4.4c0.1,2.3-0.9,3.4-3.3,3.3
		c-2.2-0.1-4.5-0.1-6.7,0c-1,0-2.5-0.3-2.6,1.2c-0.1,1.8,1.5,1,2.4,1.1c2.3,0.2,4.6-0.2,7,0.4c3.3,0.8,1.9,3.3,2,5.2
		c0.2,1.9-1.3,2-2.8,2C160.4,294.8,158.7,294.8,157.6,294.8z M156.1,269.1c0-0.1,0-0.1,0-0.2c-1.3-0.1-2.5-0.1-3.8-0.2
		c-2.5-0.4-3.6,0.7-3.6,3.2c-0.2,6.1-0.4,12.3-0.6,18.4c-0.1,1.1,0.2,1.8,1.5,2c3.9,0.5,7.8,0.4,11.6,0.3c1.2,0,1.4-0.9,1.5-1.8
		c0.1-1.3-0.9-1-1.6-1c-2.5-0.1-5.1-0.1-7.6-0.1c-3.6-0.1-2.3-2.9-2.4-4.7c-0.2-2.2,1.2-2.2,2.9-1.9c2.8,0.5,5.6,0.4,8.4-0.1
		c1.1-0.2,1.4-0.8,1.5-1.8c0.1-1.3-0.7-1.5-1.6-1.5c-1.8,0-3.5,0-5.3,0c-6.1-0.1-4.7,0-4.7-5.1c0-1.8,0.5-2.5,2.3-2.2
		c2.1,0.2,4.3,0.1,6.4,0.1c0.9,0,1.6,0,1.6-1.3c0-1.3-0.4-1.8-1.6-1.8C159.4,269.1,157.7,269.1,156.1,269.1z"/>
	<path style="fill:#171717;" d="M191.4,269.7c-0.4,2,0,4.6-1.3,6.5c-1.9,2.6-1.2,4.4,0.6,6.5c1.7,2,2.3,4.5,2.9,7
		c0.4,1.6,0,2.9-2.1,2.9c-1.2,0-2.5,0.1-3.7,0.2c-1.8,0.3-2.9-1-3.5-2.5c-0.7-1.6-1.3-3.3-1.9-4.9c-0.3-0.7-0.6-1.5-1.5-1.6
		c-1.2,0-1,1-1.2,1.7c-0.4,1.9-0.9,3.8-1.1,5.7c-0.2,2.3-1.2,3.2-3.3,3c-0.7-0.1-1.3,0-2,0c-5.4,0-6.6-2.1-4.1-7
		c0.1-0.2,0.2-0.4,0.4-0.5c4.4-4,2.9-8,0.3-12.3c-2.7-4.6-1.7-6.7,3.2-7.5c2.3-0.4,3.9-0.2,4.3,2.7c0.2,1.9,0.5,4.6,3.1,4.6
		c2.8,0,2.5-2.9,2.9-4.7c1.2-4.9,1.4-5,6.1-4.1C191.9,265.9,191.2,267.7,191.4,269.7z M189.1,270c-0.4-0.7,0.8-2.3-1.2-2.5
		c-1.8-0.2-2.3,0.7-2.6,2.3c-0.3,1.5-0.9,3-1.6,4.4c-1.8,3.4-5.6,3.5-7.5,0.1c-0.7-1.2-1.1-2.7-1.5-4.1c-0.6-1.6-1.8-1.1-2.9-0.9
		c-1.2,0.2-1.5,0.9-1.1,2.1c1.1,3,2,6.1,4.4,8.5c1.5,1.5,1.4,2.6-0.5,3.7c-1.9,1.1-2.9,3-3.8,5c-0.3,0.8-1.1,1.6-0.2,2.4
		c1.2,1.1,2.7,0.7,4.2,0.6c1.2-0.1,1.2-1.1,1.2-1.9c-0.1-1.8,0.5-3.4,1.2-5.1c0.7-1.5,1.3-3.2,3.3-3.3c2-0.1,2.8,1.6,3.5,3
		c0.9,1.8,1.5,3.6,2.4,5.3c0.9,1.8,2.6,1.2,3.9,0.8c1.6-0.5,0.6-1.8,0.3-2.7c-1.1-2.7-2.2-5.5-4.9-7.1c-1.1-0.6-1.4-1.3-0.3-2.2
		C188.3,276.5,188.7,273.4,189.1,270z"/>
	<path style="fill:#181818;" d="M173.9,309.4c0-2.8,0.1-5.6,0-8.5c-0.1-1.6,0.6-2.4,2.2-2.9c3.9-1.4,7.9-1.9,11.9-2.5
		c2.7-0.4,7.2,3,8.2,6c1.3,4,1.3,8.2,1,12.3c-0.2,2-0.4,4-0.4,6.1c0,3.5-1.2,4.9-4.6,5.2c-2.2,0.2-3.6-1.4-4.2-4.6
		c-0.2-0.9-0.4-1.9-0.6-2.9c-0.3-1.3-1.1-1.9-2.5-1.9c-1.4-0.1-2.2,0.5-2.5,1.9c-0.3,1.5-0.8,3-0.8,4.6c-0.1,2.4-1.6,3-3.5,2.9
		c-1.9-0.1-3.6-0.2-3.7-3.2C174,317.7,173.9,313.6,173.9,309.4z M176,308.9c-0.1,4.1,0.4,8,0.7,11.9c0.1,0.9,0.3,1.5,1.3,1.5
		c1.1,0.1,1.3-0.7,1.3-1.5c0.1-0.9,0.1-1.9,0.2-2.9c0.3-2.6,1.7-4.4,4.4-4.7c2.5-0.3,4.3,1.1,5.3,3.3c0.6,1.4,0.9,2.9,1.3,4.4
		c0.3,1.2,1.2,1.1,2,1.1c0.8-0.1,1.7-0.2,1.6-1.2c-0.1-6.7,1.2-13.7-2.6-19.9c-0.5-0.8-1.1-1.6-2.1-1.9c-4.4-1.5-8.7-0.5-12.4,1.4
		c-2.4,1.2-0.8,4.9-1.2,7.4C175.9,308.2,176,308.7,176,308.9z"/>
	<path style="fill:#171717;" d="M146.4,299.8c-0.1,4.1-0.5,4.6-4.8,3.9c-0.4-0.1-0.8-0.1-1.2-0.1c-0.9,0.1-2.2-0.4-2.2,1.2
		c0,1.3,1.1,1.1,1.9,1.1c1.6,0.1,3.3,0.1,5,0c2.5-0.1,3.6,0.9,3.5,3.4c-0.1,3.3,0.1,6.6-0.1,9.9c-0.1,4-1.8,5.3-5.6,4.6
		c-3.7-0.7-7.5-0.3-11.3-0.8c-3-0.4-3-2.2-2.9-4.4c0-2.2,0.6-3.6,3.2-3.4c1.6,0.1,3.3,0,4.9-0.2c1.1-0.2,2-0.9,1.8-2.3
		c-0.2-1.3-1.3-0.9-2.1-0.9c-0.6-0.1-1.2,0-1.8-0.1c-4.7-0.5-5.4-1.2-5.4-6c0-2,0-4.1,0-6.1c0-2,1.1-3.3,3.1-3.5
		c4.1-0.4,8.1,0.5,12.2,0.6C146.7,296.7,146.3,298.5,146.4,299.8z M139.6,321.2c1.3,0,2.7-0.1,4.1,0c1.8,0.1,2.6-0.4,2.5-2.4
		c-0.2-2.9-0.1-5.8,0-8.8c0.1-1.4-0.5-1.9-1.9-1.9c-2.3,0-4.7-0.2-7-0.4c-0.9-0.1-1.7-0.2-1.9-1.3c-0.8-3.6,0.9-5.6,4.6-5.2
		c0.7,0.1,1.3,0.1,2,0.2c1.2,0.3,1.8-0.1,2-1.3c0.2-1.3-0.7-1.5-1.6-1.5c-2.8-0.1-5.6-0.2-8.4-0.2c-1.2,0-1.8,0.7-2,1.7
		c-0.6,2.9-1.1,6.1,0.2,8.5c0.9,1.8,4.1,1.3,6.4,1.3c0.5,0,1,0,1.5,0.1c0.6,0.1,1,0.4,1.1,1.1c0.8,3.3-0.8,5.7-4.3,6
		c-1.5,0.1-2.9,0.2-4.4,0.2c-1.2,0.1-1.3,0.9-1.4,1.8c-0.1,1,0.4,1.3,1.3,1.5C134.8,321.1,137.2,321.1,139.6,321.2z"/>
	<path style="fill:#181818;" d="M221.7,265.5c-0.4-2.6,0.6-3.5,3.2-3.5c3.3,0,6.5-1.2,9.5-2.4c2.3-0.9,3.3,0.2,3.9,2
		c1.4,4.2,0.1,6.1-4.4,6.7c-1.3,0.2-2.5,0.3-2.2,2c0.4,1.7,1.6,1.8,2.9,1.5c4.2-0.9,4.9-0.5,5.7,3.9c0.4,2.2,0.9,4.4,1,6.6
		c0.1,2.1-0.5,3.9-2.7,5c-3,1.6-6.3,2.5-9.6,3.2c-1.5,0.3-2.6-0.2-3.3-1.7c-2.9-6.3-2.7-6.7,4.2-7.5c0.3-0.1,0.6-0.1,0.9-0.2
		c0.9-0.5,2.8,0.1,2.4-1.8c-0.4-1.6-1.9-0.8-3-0.8c-0.1,0-0.2,0.1-0.3,0.1c-7.2,1.3-6.1,2.6-7.6-5.3
		C222,270.8,222.3,268.1,221.7,265.5z M223.9,267.6c0.3,2,0.8,4,0.9,6.1c0.2,2.7,1.2,4,4.1,3c1.3-0.4,2.7-0.4,4-0.5
		c1.9-0.2,3,0.5,2.9,2.6c-0.1,1.8,0.9,4.1-2.3,4.3c-1.9,0.1-3.9,0.4-5.8,0.6c-1.1,0.1-1.3,0.4-1.1,1.5c0.6,2.2,1.3,3.5,4.1,2.6
		c10.8-3.4,8.4-2.6,7.8-10.5c-0.2-2.3-0.7-3.9-3.7-3.1c-1.5,0.4-3.4,0.6-4.6-1c-2-3-0.8-6.1,2.7-6.9c0.6-0.1,1.2-0.2,1.8-0.3
		c1.6-0.2,1.8-1.2,1.6-2.5c-0.2-1.6-1.3-1.5-2.4-1.2c-2.6,0.6-5,1.5-7.6,2C224.4,264.6,223.5,265.5,223.9,267.6z"/>
	<path style="fill:#171717;" d="M231,310.3c1.3,1.2,2.3,0.8,3.2,0.8c1.9,0.2,4.1-0.3,4.5,2.5c0.4,2.6-0.9,5.1-3.4,5.7
		c-2.5,0.6-5.3,0.4-7.7,1.3c-3.7,1.5-4.4-0.4-4.8-3.3c-0.9-6.7-1.9-13.4-2.8-20.1c-0.2-1.7,0.4-2.5,2.1-2.7
		c4.2-0.7,8.4-1.3,12.7-1.6c2.3-0.1,2.8,1.1,3.2,2.9c0.5,2.1-1.1,2.4-2.5,2.8c-1.3,0.4-2.6,0.5-4,0.8c-0.7,0.1-1.5,0.1-1.4,1.1
		c0.1,1,0.8,1.3,1.6,1.3c1.2-0.1,2.5-0.4,3.7-0.6c0.6-0.1,1.2-0.6,1.6-0.2c1.6,1.3,1.1,3.4,1.3,5.2c0.2,1.1-0.1,2.7-2,3
		C234.7,309.4,233,309.8,231,310.3z M234.1,295.5c-3,0.6-6,1.2-9.1,1.6c-1.8,0.2-2.2,1.1-2,2.7c0.4,4.1,1.1,8.3,1.9,12.4
		c1.3,6.7,1.3,6.8,8.2,5.3c1.3-0.3,3.3-0.2,3.2-2.3c-0.2-2.2-2.1-1.5-3.4-1.6c-0.6-0.1-1.2,0-1.8,0.1c-1.3,0.2-1.6-0.4-1.8-1.6
		c-0.3-2.3-0.1-4,2.9-4c1.1,0,2.9,0.4,3.4-1.3c0.8-2.5-0.5-3.7-3.3-2.9c-2.6,0.8-4.1,0.2-4.3-2.7c-0.1-0.6-0.2-1.3-0.4-2
		c-0.4-1.4,0.2-1.9,1.6-2C230.9,297,232.7,297.1,234.1,295.5z"/>
	<path style="fill:#181818;" d="M197.2,288.3c0.1-3.6-0.5-7.1-0.9-10.7c-0.4-3.2,0.2-6.1,0.9-9.2c0.4-1.9,2-2.6,3.5-2.6
		c4.3-0.1,8.8-1.4,12.9,1.9c1.2,0.9,1.9,1.8,2.2,3.1c1.3,5.4,1.5,11.1,3,16.5c0.4,1.6,1,4-2,4.6c-5.4,1-5.6,1-6.8-2.6
		c-0.5-1.4-0.7-2.8-1.1-4.2c-0.2-0.7-0.3-1.7-1.3-1.7c-0.9,0-1.6,0.6-1.9,1.6c-0.4,1.3-0.3,2.7,0,4c0.3,1.7,1.2,3.9-0.5,4.8
		c-1.9,1.1-4.4,0.8-6.5,0.1c-1.9-0.7-1.3-2.8-1.4-4.4C197.2,289,197.2,288.7,197.2,288.3z M199.4,287.5c0,1,0.1,1.9,0,2.9
		c-0.2,2.2,1.1,2.6,2.9,2.6c2,0.1,1.8-1.3,1.8-2.6c-0.1-2.2-0.4-4.4-0.4-6.7c0.1-3.4,3.1-2.3,4.9-2.8c1.9-0.5,1.3,1.5,1.4,2.4
		c0.3,1.9,0.6,3.8,1.6,5.6c1,1.8,2.5,1.7,4,1.1c1.6-0.6,1.3-1.8,1.1-3.2c-0.6-3.1-1.3-6.3-1.7-9.4c-0.8-7.4-3.8-10.1-10.1-9.9
		c-0.8,0-1.5,0.2-2.3,0.2c-3,0.2-4.2,1.6-4.2,4.7C198.4,277.5,199.5,282.4,199.4,287.5z"/>
	<path style="fill:#171717;" d="M157.5,317.7c0.1-2.5-0.2-5,0.4-7.5c0.5-2.2-0.6-3.4-2.9-3.7c-3.4-0.4-5.5-4.7-3.8-7.8
		c0.4-0.7,1-0.9,1.7-0.9c5,0,9.9-0.9,14.8-0.7c1.6,0.1,2.3,0.8,2.5,2.2c0.1,1.5,0,2.9,0.1,4.4c0.2,2.4-0.5,3.8-3.2,3.4
		c-1.8-0.2-2.1,0.8-2,2.3c0.1,4.6-0.1,9.1,0,13.7c0.1,2-0.8,2.9-2.7,2.7c-1.9-0.2-4.6,0.9-4.8-2.6
		C157.4,321.4,157.5,319.5,157.5,317.7z M159.9,314.3L159.9,314.3c-0.1,1.9-0.2,3.9,0,5.8c0.1,0.9-0.8,2.6,1.1,2.7
		c2.3,0.2,1.6-1.7,1.6-2.9c0.2-4.1,0.2-8.1,0.3-12.2c0.1-1.7,0.6-2.7,2.6-2.5c2,0.3,2.7-0.8,2.6-2.7c-0.1-2.9-1.2-3.9-4.3-3.4
		c-3,0.4-5.9,1.1-8.9,0.9c-1.1-0.1-1.6,0.2-1.6,1.5c-0.1,2.2,0.4,3.6,3,3.3c2.6-0.4,3.7,0.9,3.6,3.6
		C159.8,310.3,159.9,312.3,159.9,314.3z"/>
	<path style="fill:#171717;" d="M208,295.9c2,0.2,4,0.4,6.1,0.6c1,0.1,1.7,0.5,1.8,1.5c0.2,1.9,1.6,4.7-0.6,5.6
		c-4.4,1.9-2.8,5.2-2.5,8c0.4,3,0.1,6-0.5,8.9c-0.4,1.8-1.7,2.9-3.4,3.3c-2.2,0.6-4.1-0.8-4-3.1c0.1-4.3-0.2-8.5-0.6-12.8
		c-0.2-1.8-0.2-3.4-2.6-4.2c-2.6-0.9-1.5-3.7-1.5-5.7c0-1.8,1.6-1.6,2.9-1.6C204.7,296.4,206.3,295.7,208,295.9z M208.1,299
		c0,0.1,0,0.1,0,0.1c-1.6,0-3.1,0-4.7,0c-0.9,0-1.5,0.4-1.5,1.4c0.1,0.8,0.4,1.4,1.2,1.3c2.6-0.3,2.7,1.6,2.9,3.3
		c0.4,4.7,0.6,9.5,1.1,14.3c0.1,0.8-0.6,2.2,1,2.2c1.8,0,1.2-1.5,1.2-2.4c0.1-3.6,0.1-7.2-0.1-10.8c-0.1-3-0.3-5.7,3.6-6.4
		c0.9-0.2,1.3-1.1,1.2-2c-0.2-1.1-1.1-0.9-1.8-0.9C210.9,299,209.5,299,208.1,299z"/>
	<path style="fill:#8F8F8F;" d="M156.1,269.1c1.6,0,3.3,0.1,5,0c1.3-0.1,1.6,0.5,1.6,1.8c0,1.4-0.8,1.3-1.6,1.3
		c-2.2,0-4.3,0.1-6.4-0.1c-1.9-0.2-2.3,0.5-2.3,2.2c0.1,5.1-1.4,5.1,4.7,5.1c1.8,0,3.5,0,5.3,0c0.9,0,1.7,0.2,1.6,1.5
		c-0.1,1-0.4,1.6-1.5,1.8c-2.8,0.5-5.6,0.6-8.4,0.1c-1.7-0.3-3-0.2-2.9,1.9c0.1,1.9-1.2,4.7,2.4,4.7c2.5,0.1,5.1,0.1,7.6,0.1
		c0.7,0,1.7-0.4,1.6,1c-0.1,0.9-0.3,1.8-1.5,1.8c-3.9,0.1-7.8,0.2-11.6-0.3c-1.3-0.2-1.5-0.9-1.5-2c0.2-6.1,0.4-12.3,0.6-18.4
		c0.1-2.4,1.1-3.6,3.6-3.2c1.2,0.2,2.5,0.2,3.8,0.2C156.1,269,156.1,269,156.1,269.1z"/>
	<path style="fill:#8F8F8F;" d="M189.1,270c-0.4,3.3-0.8,6.4-3.6,8.5c-1.1,0.9-0.8,1.5,0.3,2.2c2.7,1.6,3.8,4.3,4.9,7.1
		c0.4,0.9,1.3,2.2-0.3,2.7c-1.2,0.4-3,1-3.9-0.8c-0.9-1.8-1.5-3.6-2.4-5.3c-0.8-1.5-1.5-3.2-3.5-3c-2,0.1-2.6,1.8-3.3,3.3
		c-0.8,1.6-1.2,3.3-1.2,5.1c0,0.9,0.1,1.9-1.2,1.9c-1.4,0.1-3,0.5-4.2-0.6c-0.9-0.8-0.1-1.6,0.2-2.4c0.9-2,1.9-3.9,3.8-5
		c1.8-1.1,1.9-2.2,0.5-3.7c-2.3-2.3-3.3-5.4-4.4-8.5c-0.5-1.2-0.2-1.9,1.1-2.1c1.1-0.2,2.3-0.8,2.9,0.9c0.5,1.3,0.8,2.8,1.5,4.1
		c1.9,3.4,5.8,3.3,7.5-0.1c0.7-1.3,1.3-2.9,1.6-4.4c0.3-1.6,0.8-2.5,2.6-2.3C189.9,267.8,188.7,269.3,189.1,270z"/>
	<path style="fill:#909090;" d="M176,308.9c0-0.2-0.1-0.7,0-1.2c0.4-2.5-1.2-6.2,1.2-7.4c3.7-1.9,8.1-2.9,12.4-1.4
		c1,0.4,1.6,1.1,2.1,1.9c3.8,6.3,2.5,13.2,2.6,19.9c0,1.1-0.9,1.2-1.6,1.2c-0.9,0.1-1.8,0.1-2-1.1c-0.4-1.5-0.8-3-1.3-4.4
		c-0.9-2.3-2.7-3.6-5.3-3.3c-2.7,0.3-4.1,2-4.4,4.7c-0.1,1-0.1,1.9-0.2,2.9c-0.1,0.8-0.2,1.5-1.3,1.5c-1.1-0.1-1.3-0.6-1.3-1.5
		C176.4,316.9,175.9,313,176,308.9z M185.7,310.6c1.3-0.8,4.4,1.8,4.6-2.1c0.1-4.3-2.4-6.8-6.5-6.8c-3.1-0.1-3.5,0.5-3.6,4.1
		C180.1,310.5,180.1,310.5,185.7,310.6z"/>
	<path style="fill:#8F8F8F;" d="M139.6,321.2c-2.5-0.1-4.9-0.1-7.2-0.5c-0.9-0.2-1.4-0.5-1.3-1.5c0.1-0.9,0.2-1.8,1.4-1.8
		c1.5-0.1,2.9-0.1,4.4-0.2c3.4-0.3,5.1-2.7,4.3-6c-0.2-0.6-0.5-1.1-1.1-1.1c-0.5-0.1-1-0.1-1.5-0.1c-2.3-0.1-5.5,0.4-6.4-1.3
		c-1.3-2.5-0.9-5.7-0.2-8.5c0.2-1,0.9-1.7,2-1.7c2.8,0.1,5.6,0.1,8.4,0.2c0.9,0.1,1.8,0.2,1.6,1.5c-0.2,1.3-0.8,1.6-2,1.3
		c-0.6-0.2-1.3-0.2-2-0.2c-3.6-0.4-5.3,1.6-4.6,5.2c0.2,1.1,1,1.3,1.9,1.3c2.3,0.1,4.7,0.4,7,0.4c1.4,0,1.9,0.5,1.9,1.9
		c-0.1,2.9-0.1,5.8,0,8.8c0.1,2-0.7,2.6-2.5,2.4C142.4,321.1,141,321.2,139.6,321.2z"/>
	<path style="fill:#8F8F8F;" d="M223.9,267.6c-0.4-2,0.5-3,2.5-3.4c2.6-0.5,5.1-1.3,7.6-2c1.1-0.2,2.2-0.4,2.4,1.2
		c0.2,1.3-0.1,2.3-1.6,2.5c-0.6,0.1-1.2,0.2-1.8,0.3c-3.5,0.8-4.8,3.9-2.7,6.9c1.1,1.6,3.1,1.3,4.6,1c3-0.8,3.6,0.8,3.7,3.1
		c0.6,7.9,3,7.1-7.8,10.5c-2.9,0.9-3.6-0.5-4.1-2.6c-0.3-1.1,0-1.4,1.1-1.5c1.9-0.2,3.9-0.5,5.8-0.6c3.2-0.2,2.2-2.6,2.3-4.3
		c0.1-2-0.9-2.8-2.9-2.6c-1.3,0.2-2.7,0.1-4,0.5c-2.9,0.9-3.9-0.3-4.1-3C224.7,271.6,224.2,269.6,223.9,267.6z"/>
	<path style="fill:#8F8F8F;" d="M234.1,295.5c-1.5,1.6-3.2,1.6-4.9,1.7c-1.4,0.1-2,0.6-1.6,2c0.2,0.6,0.4,1.3,0.4,2
		c0.2,3,1.7,3.4,4.3,2.7c2.9-0.8,4.2,0.4,3.3,2.9c-0.6,1.7-2.3,1.3-3.4,1.3c-3,0-3.2,1.6-2.9,4c0.2,1.2,0.5,1.8,1.8,1.6
		c0.6-0.1,1.2-0.1,1.8-0.1c1.3,0.1,3.3-0.5,3.4,1.6c0.2,2-1.9,2-3.2,2.3c-6.9,1.5-6.9,1.5-8.2-5.3c-0.8-4.1-1.6-8.2-1.9-12.4
		c-0.1-1.6,0.2-2.5,2-2.7C228,296.7,231.1,296,234.1,295.5z"/>
	<path style="fill:#8F8F8F;" d="M199.4,287.5c0.1-5.1-1-10.1-0.9-15.1c0.1-3.1,1.2-4.5,4.2-4.7c0.8-0.1,1.5-0.2,2.3-0.2
		c6.2-0.2,9.2,2.5,10.1,9.9c0.4,3.2,1,6.3,1.7,9.4c0.3,1.3,0.5,2.6-1.1,3.2c-1.5,0.6-3,0.6-4-1.1c-1-1.8-1.3-3.6-1.6-5.6
		c-0.1-0.9,0.5-3-1.4-2.4c-1.8,0.5-4.8-0.6-4.9,2.8c-0.1,2.2,0.2,4.4,0.4,6.7c0.1,1.3,0.3,2.6-1.8,2.6c-1.8-0.1-3.1-0.4-2.9-2.6
		C199.5,289.4,199.4,288.5,199.4,287.5z M202.4,274.5c-0.2,5.3,0.4,5.8,5.1,5.4c0.9-0.1,1.8-0.1,2.6-0.2c2.2-0.2,3.1-1.6,2.2-3.6
		c-0.9-1.9-2-3.7-3.2-5.5c-0.8-1.2-1.9-1.9-3.4-1.5c-1.5,0.4-2.6,1.4-2.9,2.9C202.4,273,202.4,274.1,202.4,274.5z"/>
	<path style="fill:#909090;" d="M159.9,314.3c0-2-0.1-4.1,0-6.1c0.2-2.6-0.9-3.9-3.6-3.6c-2.6,0.4-3.1-1.1-3-3.3
		c0.1-1.2,0.6-1.5,1.6-1.5c3,0.1,6-0.5,8.9-0.9c3.2-0.5,4.3,0.6,4.3,3.4c0.1,1.9-0.6,3-2.6,2.7s-2.5,0.8-2.6,2.5
		c-0.1,4.1-0.2,8.1-0.3,12.2c-0.1,1.2,0.6,3-1.6,2.9c-1.9-0.1-1.1-1.8-1.1-2.7c-0.2-1.9-0.1-3.9-0.1-5.8
		C159.8,314.3,159.9,314.3,159.9,314.3z"/>
	<path style="fill:#878787;" d="M208.1,299c1.3,0,2.7,0,4.1,0c0.8,0,1.6-0.2,1.8,0.9c0.2,1-0.2,1.9-1.2,2c-3.9,0.7-3.7,3.4-3.6,6.4
		c0.2,3.6,0.1,7.2,0.1,10.8c0,0.9,0.5,2.4-1.2,2.4c-1.6,0-0.9-1.4-1-2.2c-0.4-4.7-0.7-9.5-1.1-14.3c-0.1-1.8-0.2-3.6-2.9-3.3
		c-0.9,0.1-1.2-0.5-1.2-1.3c-0.1-1.1,0.6-1.4,1.5-1.4C205,299,206.5,299,208.1,299C208.1,299.1,208.1,299,208.1,299z"/>
	<path style="fill:#171717;" d="M185.7,310.6c-5.7-0.1-5.7-0.1-5.6-4.8c0.1-3.6,0.5-4.2,3.6-4.1c4.2,0.1,6.7,2.6,6.5,6.8
		C190.2,312.4,187,309.8,185.7,310.6z M186,308c0.2-0.1,1.9,0.9,1.9-1.3c-0.1-2.5-2.2-3.1-4-3.5c-1.9-0.5-1.2,1.5-1.3,2.4
		C182.3,307.6,183,308.7,186,308z"/>
	<path style="fill:#181818;" d="M202.4,274.5c0.1-0.5,0-1.5,0.2-2.6c0.4-1.5,1.4-2.5,2.9-2.9c1.5-0.4,2.7,0.3,3.4,1.5
		c1.2,1.8,2.3,3.6,3.2,5.5c0.9,1.9,0,3.3-2.2,3.6c-0.9,0.1-1.8,0.2-2.6,0.2C202.7,280.4,202.2,279.8,202.4,274.5z M204.8,274.4
		c-0.1,3.2,1.8,4.4,4.3,3.3c0.5-0.2,0.9-0.5,0.6-1.1c-1-1.6-1.7-3.4-3.1-4.8c-0.3-0.3-0.7-0.3-1,0.1c-0.2,0.3-0.5,0.6-0.6,1
		C204.8,273.5,204.8,274.2,204.8,274.4z"/>
	<path style="fill:#444444;" d="M186,308c-3,0.6-3.7-0.5-3.4-2.3c0.2-0.9-0.6-2.9,1.3-2.4c1.8,0.4,3.9,1,4,3.5
		C187.9,308.9,186.1,307.9,186,308z"/>
	<path style="fill:#444444;" d="M204.8,274.4c0-0.1,0.1-0.8,0.2-1.5c0.1-0.4,0.4-0.7,0.6-1c0.3-0.4,0.7-0.4,1-0.1
		c1.4,1.3,2.2,3.2,3.1,4.8c0.3,0.5-0.2,0.8-0.6,1.1C206.6,278.8,204.7,277.6,204.8,274.4z"/>
	<path style="fill:#EDEDED;" d="M211.1,128.3c-0.8,0.4-1.4,0.6-1.6-0.6c-0.3-1.5-0.7-2.5-0.5-4.1c1.2-0.8,2.6,1.3,3.5,2.4
		C213.4,127.3,211.7,127.7,211.1,128.3z"/>
</g>
</svg>
