<?xml version="1.0" encoding="utf-8"?>
<!-- Generator: Adobe Illustrator 23.0.3, SVG Export Plug-In . SVG Version: 6.00 Build 0)  -->
<svg version="1.1" id="Layer_1" xmlns="http://www.w3.org/2000/svg" xmlns:xlink="http://www.w3.org/1999/xlink" x="0px" y="0px"
	 viewBox="0 0 365.8 365.8" enable-background="new 0 0 365.8 365.8" xml:space="preserve">
<polygon points="143.7,268.4 58.3,268.5 0.1,355.5 365.7,355.5 307.5,268.5 221.8,268.4 182.2,326.7 "/>
<path d="M182.2,10.3c-0.5,0.2-89.6-2.2-89.6,79.4c0.3,54.2,85.5,193.6,89.6,197.6c4.1-4.1,89.6-143.4,89.6-197.6
	C271.8,8.1,182.2,10.3,182.2,10.3z M182.9,113.5c-16.4,0-29.6-12.3-29.6-27.4s13.3-27.4,29.6-27.4c16.4,0,29.6,12.3,29.6,27.4
	S199.3,113.5,182.9,113.5z"/>
</svg>
