<?xml version="1.0" encoding="utf-8"?>
<!-- Generator: Adobe Illustrator 23.0.3, SVG Export Plug-In . SVG Version: 6.00 Build 0)  -->
<svg version="1.1" id="Layer_3" xmlns="http://www.w3.org/2000/svg" xmlns:xlink="http://www.w3.org/1999/xlink" x="0px" y="0px"
	 viewBox="0 0 365.8 365.8" style="enable-background:new 0 0 365.8 365.8;" xml:space="preserve">
<g>
	<path d="M183.2,61c49.6,0,99.2,0,148.9,0c8.3,0,8.6,0.3,8.5,8.8c-0.1,4.6,0,9.2,0.1,13.7c0.1,3.8-0.9,6.4-5.4,6.3
		c-6.1-0.1-7.3,3.1-7.2,8.8c0.3,47.7,0.2,95.4,0.2,143.1c0,18.7,0,37.4,0.2,56.1c0.1,4.9-2.1,7-6.8,7c-19.7,0-39.3,0-59,0
		c-5,0-7.1-2.2-6.8-7.5c0.4-9.3,0-18.7,0.4-28c0.2-5.5-2.1-7.6-7.3-7.6c-12.2,0.1-24.4,0.1-36.6,0.1c-29.6,0-59.2,0-88.8,0
		c-9.8,0-10.3,0.6-10.3,10.3c0.1,8.6-0.1,17.2,0.2,25.8c0.1,4.9-2,7-6.8,7c-19.7,0-39.3,0-59,0c-4.7,0-6.7-2.1-6.7-7.1
		c0.2-67,0.1-134,0.3-201c0-5.4-2.4-7-7.3-7.1c-8.9-0.1-8.9-0.2-8.8-9c0-3.8,0-7.6,0-11.5c-0.1-7.7,0.4-8.3,7.9-8.3
		c22.7,0,45.4,0,68.1,0C128.6,61,155.9,61,183.2,61z M174.7,104.5c0-14.7,0-14.7-13.7-14.7c-14.3,0-14.3,0-14.3,14.1
		c0,12.3-3.3,14.5,14.4,14.3C174.7,118,174.7,118.2,174.7,104.5z M260.7,104.3c-0.1-14.5-0.1-14.5-14.4-14.5
		c-13.6,0-13.7,0-13.6,13.7c0.1,12.7-3.6,15,14.5,14.7C260.7,118,260.7,118.1,260.7,104.3z M174.7,190.4c0-14.6,0-14.6-14.4-14.6
		c-13.7,0-13.7,0-13.7,13.7c0.1,13.2-3.2,15,14.4,14.7C174.8,204,174.8,204.2,174.7,190.4z M146.7,232.7c0,14.5,0,14.5,14.2,14.5
		c13.9,0,13.9,0,13.9-14.1c-0.1-12.9,3.4-14.6-14-14.3C146.7,219,146.7,218.9,146.7,232.7z M260.7,190.1c0-14.3,0-14.3-14.1-14.3
		c-13.9,0-14,0-13.9,14c0.1,12.5-3.3,14.5,14.2,14.4C263,204.2,260.7,203.1,260.7,190.1z M260.7,233.1c0-14.2,0-14.2-13-14.2
		c-15.1,0-15.1,0-15.1,15c0,13.3,0,13.1,13.6,13.3C263.1,247.5,260.7,246.2,260.7,233.1z M174.7,147.2c0-14.3,0-14.3-13.4-14.3
		c-14.6,0-14.6,0-14.6,14.4c0,14,0,14,14.1,14C174.8,161.2,174.8,161.2,174.7,147.2z M232.6,146.4c0,14.8,0,14.6,13.8,14.8
		c16.6,0.3,14.2-1.3,14.2-14.4c0-12.9,3.1-14.3-14.3-14C232.6,133,232.6,132.8,232.6,146.4z M103.7,103.5
		c0.4,14.7,0.4,14.5,13.9,14.7c15.9,0.2,14-0.7,14-13.9c0-14.4,0-14.4-14.4-14.4C103.4,89.8,103.4,89.8,103.7,103.5z M217.6,147
		c0-1.1,0-2.3,0-3.4c0.1-10.6,0-10.7-10.9-10.7c-0.6,0-1.1,0-1.7,0c-15.2,0-15.2,0-15.3,14.9c0,13.4,0,13.3,13.5,13.5
		C220.3,161.5,217.5,160.2,217.6,147z M103.8,232.9c0,1,0,1.9,0,2.9c-0.1,11.2,0.2,11.4,11.5,11.4c0.4,0,0.8,0,1.1,0
		c18.1,0.3,15.1-0.5,15.2-15.1c0.1-13.3,0-13.3-13.4-13.3C103.9,218.9,103.9,218.9,103.8,232.9z M189.8,232.8
		c0,14.4,0,14.2,13.7,14.5c17.2,0.3,14.1-1.3,14.2-14.4c0-13.9,0-13.9-13.9-14C189.8,218.8,189.8,218.8,189.8,232.8z M131.7,147
		c0-1.1,0-2.3,0-3.4c0.1-10.6,0-10.7-10.8-10.7c-0.6,0-1.1,0-1.7,0c-15.2,0-15.2,0-15.2,14.9c0,13.4,0,13.2,13.5,13.4
		C134.5,161.5,131.6,160,131.7,147z M103.9,189.5c0,14.6,0,14.5,13.9,14.7c15.9,0.2,13.9-0.7,13.9-14.1c0-14.3,0-14.3-14.2-14.3
		C103.9,175.8,103.9,175.8,103.9,189.5z M189.8,189.7c0,14.4,0,14.3,13.6,14.4c16.1,0.2,14.3-0.3,14.2-14.3s0-14-13.8-14
		C189.8,175.8,189.8,175.8,189.8,189.7z M217.6,104.3c0-14.5,0-14.5-13.3-14.5c-14.4,0-14.4,0-14.5,14.6c0,13.7,0,13.6,13.7,13.8
		C219.5,118.4,217.7,117.6,217.6,104.3z M292.5,103.8C292.5,103.8,292.5,103.9,292.5,103.8c5,0.1,9.9,0.1,14.9,0.1
		c5.1,0,6.3-3.2,6.3-7.6c0-4.3-1.9-6.5-6.1-6.5c-10.1,0-20.2,0-30.3,0.1c-4,0-6.4,1.7-6.4,6.2c0,4.4,1.1,7.6,6.2,7.7
		S287.3,103.8,292.5,103.8z M77.6,89.8L77.6,89.8c-4.9,0.1-9.9,0-14.8,0.1c-4.5,0-7,1.8-7,6.9c0.1,4.9,2.2,7.1,6.8,7.1
		c9.9,0.1,19.8,0.1,29.7,0.1c4.6,0,6.2-2.7,6.3-7c0.1-4.4-1.6-7-6.2-7C87.5,89.7,82.5,89.8,77.6,89.8z"/>
</g>
</svg>
