<svg xmlns="http://www.w3.org/2000/svg" xmlns:xlink="http://www.w3.org/1999/xlink" viewBox="0 0 42 42" version="1.1" x="0px" y="0px"><title>calandar</title><desc>Created with Sketch.</desc><g stroke-width="1" fill-rule="evenodd"><g transform="translate(-39.000000, -164.000000)"><path d="M41,179 L79,179 L79,202 C79,203.103 78.103,204 77,204 L43,204 C41.897,204 41,203.103 41,202 L41,179 Z M41,173 C41,171.897 41.897,171 43,171 L48,171 L48,171.5 C48,173.43 49.57,175 51.5,175 C53.43,175 55,173.43 55,171.5 L55,171 L65,171 L65,171.5 C65,173.43 66.57,175 68.5,175 C70.43,175 72,173.43 72,171.5 L72,171 L77,171 C78.103,171 79,171.897 79,173 L79,177 L41,177 L41,173 Z M50,167.5 C50,166.673 50.673,166 51.5,166 C52.327,166 53,166.673 53,167.5 L53,171.5 C53,172.327 52.327,173 51.5,173 C50.673,173 50,172.327 50,171.5 L50,167.5 Z M67,167.5 C67,166.673 67.673,166 68.5,166 C69.327,166 70,166.673 70,167.5 L70,171.5 C70,172.327 69.327,173 68.5,173 C67.673,173 67,172.327 67,171.5 L67,167.5 Z M43,206 L77,206 C79.206,206 81,204.206 81,202 L81,173 C81,170.794 79.206,169 77,169 L72,169 L72,167.5 C72,165.57 70.43,164 68.5,164 C66.57,164 65,165.57 65,167.5 L65,169 L55,169 L55,167.5 C55,165.57 53.43,164 51.5,164 C49.57,164 48,165.57 48,167.5 L48,169 L43,169 C40.794,169 39,170.794 39,173 L39,202 C39,204.206 40.794,206 43,206 Z M49,184 C50.103,184 51,184.897 51,186 C51,187.103 50.103,188 49,188 C47.897,188 47,187.103 47,186 C47,184.897 47.897,184 49,184 Z M49,190 C51.206,190 53,188.206 53,186 C53,183.794 51.206,182 49,182 C46.794,182 45,183.794 45,186 C45,188.206 46.794,190 49,190 Z M60,184 C61.103,184 62,184.897 62,186 C62,187.103 61.103,188 60,188 C58.897,188 58,187.103 58,186 C58,184.897 58.897,184 60,184 Z M60,190 C62.206,190 64,188.206 64,186 C64,183.794 62.206,182 60,182 C57.794,182 56,183.794 56,186 C56,188.206 57.794,190 60,190 Z M71,184 C72.103,184 73,184.897 73,186 C73,187.103 72.103,188 71,188 C69.897,188 69,187.103 69,186 C69,184.897 69.897,184 71,184 Z M71,190 C73.206,190 75,188.206 75,186 C75,183.794 73.206,182 71,182 C68.794,182 67,183.794 67,186 C67,188.206 68.794,190 71,190 Z M49,195 C50.103,195 51,195.897 51,197 C51,198.103 50.103,199 49,199 C47.897,199 47,198.103 47,197 C47,195.897 47.897,195 49,195 Z M49,201 C51.206,201 53,199.206 53,197 C53,194.794 51.206,193 49,193 C46.794,193 45,194.794 45,197 C45,199.206 46.794,201 49,201 Z M60,195 C61.103,195 62,195.897 62,197 C62,198.103 61.103,199 60,199 C58.897,199 58,198.103 58,197 C58,195.897 58.897,195 60,195 Z M60,201 C62.206,201 64,199.206 64,197 C64,194.794 62.206,193 60,193 C57.794,193 56,194.794 56,197 C56,199.206 57.794,201 60,201 Z M71,195 C72.103,195 73,195.897 73,197 C73,198.103 72.103,199 71,199 C69.897,199 69,198.103 69,197 C69,195.897 69.897,195 71,195 Z M71,201 C73.206,201 75,199.206 75,197 C75,194.794 73.206,193 71,193 C68.794,193 67,194.794 67,197 C67,199.206 68.794,201 71,201 Z"></path></g></g></svg>
