<?xml version="1.0" encoding="utf-8"?>
<!-- Generator: Adobe Illustrator 23.0.3, SVG Export Plug-In . SVG Version: 6.00 Build 0)  -->
<svg version="1.1" id="Layer_3" xmlns="http://www.w3.org/2000/svg" xmlns:xlink="http://www.w3.org/1999/xlink" x="0px" y="0px"
	 viewBox="0 0 365.8 365.8" style="enable-background:new 0 0 365.8 365.8;" xml:space="preserve">
<title>Artboard 26 copy 27</title>
<g id="Stroke-1">
	<path d="M342.6,142H112c-6.6,0-11.9-7-11.9-15.6s5.3-15.6,11.9-15.6h230.6c6.6,0,11.9,7,11.9,15.6S349.2,142,342.6,142
		C342.6,142,342.6,142,342.6,142z"/>
</g>
<path d="M301.9,208.2H71.3c-6.6,0-11.9-7-11.9-15.6c0-8.6,5.3-15.6,11.9-15.6c0,0,0,0,0,0h230.6c6.6,0,11.9,7,11.9,15.6
	C313.8,201.2,308.4,208.2,301.9,208.2C301.9,208.2,301.9,208.2,301.9,208.2z"/>
<path d="M260,274.9H30.7c-6.5,0.7-12.2-5.7-12.7-14.3c-0.5-8.6,4.3-16.1,10.8-16.8c0.6-0.1,1.3-0.1,1.9,0H260
	c6.5-0.7,12.2,5.7,12.7,14.3c0.5,8.6-4.3,16.1-10.8,16.8C261.3,274.9,260.6,274.9,260,274.9z"/>
</svg>
