<?xml version="1.0" encoding="utf-8"?>
<!-- Generator: Adobe Illustrator 23.0.2, SVG Export Plug-In . SVG Version: 6.00 Build 0)  -->
<svg version="1.1" baseProfile="tiny" id="Layer_3" 
  xmlns="http://www.w3.org/2000/svg" 
  xmlns:xlink="http://www.w3.org/1999/xlink" x="0px" y="0px" viewBox="0 0 424.9 424.9" xml:space="preserve">
  <g>
    <g>
      <g>
        <g transform="translate(-40.000000, -95.000000)">
          <path d="M281.5,337.8c-2.2-0.8-5.5-0.9-20.6,6.9c-3.1-2.8-10.6-13.3-17.9-25.5c-5.7-12.8-10.1-25.2-10.6-29.3
					c15.1-7.9,16.5-4,18.1-8.3c1.4-5.5,0.3-47.3-7.9-53.1c-7.6-5.6-16.1-4.7-23.7-0.7c-1.4,0.7-34.1,18.6-15.2,76
					c1.4,6.1,5.5,15.7,12.5,29.2l0,0v0.1c7,13.5,12.5,22.3,16.8,27c14.6,19.5,28.7,28.5,40.5,32.2c17.5,5.5,29.7-0.6,30.6-1
					c7.2-3.7,16.3-12.3,15.5-21c-0.1-1-0.8-3.1-1.6-3.7C311.4,361.6,283.1,338.3,281.5,337.8z"/>
        </g>
      </g>
      <g>
        <g>
          <rect x="79.3" y="196.6" width="13.3" height="41.1"/>
          <path d="M311.5,44H106.8c-15.2,0-27.5,11.6-27.5,26v50.4h13.3V70c0-7.4,6.4-13.4,14.2-13.4h204.7
					c7.8,0,14.2,6,14.2,13.4v286.2c0,7.4-6.4,13.4-14.2,13.4H106.8c-7.8,0-14.2-6-14.2-13.4V255.3H79.3v100.9
					c0,14.3,12.3,26,27.5,26h204.7c15.2,0,27.5-11.6,27.5-26V70C339,55.7,326.7,44,311.5,44z"/>
          <rect x="79.3" y="137.9" width="13.3" height="41.1"/>
        </g>
        <g>
          <path d="M122.8,129.1c0,10.4-8.3,18.8-18.6,18.8H68.9c-10.2,0-18.6-8.4-18.6-18.8s8.3-18.8,18.6-18.8h35.3
					C114.4,110.3,122.8,118.8,122.8,129.1z M61,129.1c0,4.9,3.6,8.8,7.9,8.8h35.3c4.4,0,7.9-3.9,7.9-8.8s-3.6-8.8-7.9-8.8H68.9
					C64.6,120.3,61,124.3,61,129.1z"/>
        </g>
        <g>
          <path d="M122.8,187.8c0,10.4-8.3,18.8-18.6,18.8H68.9c-10.2,0-18.6-8.4-18.6-18.8c0-10.4,8.3-18.8,18.6-18.8
					h35.3C114.4,169,122.8,177.5,122.8,187.8z M61,187.8c0,4.9,3.6,8.8,7.9,8.8h35.3c4.4,0,7.9-3.9,7.9-8.8s-3.6-8.8-7.9-8.8H68.9
					C64.6,179,61,183,61,187.8z"/>
        </g>
        <g>
          <path d="M122.5,246.8c0,10.4-8.3,18.8-18.6,18.8H68.7c-10.2,0-18.6-8.4-18.6-18.8c0-10.4,8.3-18.8,18.6-18.8H104
					C114.2,227.9,122.5,236.4,122.5,246.8z M60.8,246.8c0,4.9,3.6,8.8,7.9,8.8H104c4.4,0,7.9-3.9,7.9-8.8s-3.6-8.8-7.9-8.8H68.7
					C64.3,238,60.8,241.9,60.8,246.8z"/>
        </g>
      </g>
    </g>
  </g>
</svg>
