<?xml version="1.0" encoding="utf-8"?>
<!-- Generator: Adobe Illustrator 23.0.2, SVG Export Plug-In . SVG Version: 6.00 Build 0)  -->
<svg version="1.1" baseProfile="tiny" id="Layer_3" xmlns="http://www.w3.org/2000/svg" xmlns:xlink="http://www.w3.org/1999/xlink"
	 x="0px" y="0px" viewBox="0 0 365.8 365.8" xml:space="preserve">
<g transform="translate(-182.000000, -234.000000)">
	<path d="M427.6,262.4h-21.5c-9.1-36.4-76.7-36.4-85.9,0h-22.1c-11.6,0-21.1,9.5-21.1,21.1v10.2h-31.6c-18.6,0-33.8,15.1-33.8,33.8
		v228c0,18.6,15.1,33.8,33.8,33.8h236.4c18.6,0,33.8-15.1,33.8-33.8v-228c0-18.6-15.1-33.8-33.8-33.8h-33.1v-10.2
		C448.7,271.9,439.2,262.4,427.6,262.4z M481.8,310.6c9.3,0,16.9,7.6,16.9,16.9v228c0,9.3-7.6,16.9-16.9,16.9H245.3
		c-9.3,0-16.9-7.6-16.9-16.9v-228c0-9.3,7.6-16.9,16.9-16.9H277v4.1c0,11.6,9.5,21.1,21.1,21.1h129.5c11.6,0,21.1-9.5,21.1-21.1
		v-4.1H481.8z M309.1,363.5l-27.8,27.8l-11.1-11.1c-3.3-3.3-8.6-3.3-11.9,0c-3.3,3.3-3.3,8.6,0,11.9l17.1,17.1
		c0.8,0.8,1.8,1.4,2.8,1.8s2.1,0.6,3.2,0.6c2.2,0,4.3-0.8,6-2.5l33.8-33.8c3.3-3.3,3.3-8.6,0-11.9
		C317.8,360.2,312.4,360.2,309.1,363.5z M355.1,386.6c0,4.7,3.8,8.4,8.4,8.4h101.3c4.7,0,8.4-3.8,8.4-8.4s-3.8-8.4-8.4-8.4H363.6
		C358.9,378.1,355.1,381.9,355.1,386.6z M309.1,433.9l-27.8,27.8l-11.1-11.1c-3.3-3.3-8.6-3.3-11.9,0c-3.3,3.3-3.3,8.6,0,11.9
		l17.1,17.1l0.1,0.1l0.1,0.1c0.5,0.5,1.2,0.8,1.8,1.1c0.3,0.2,0.6,0.4,0.9,0.6c0.7,0.3,1.4,0.3,2.1,0.4c0.4,0.1,0.7,0.2,1,0.2
		c2.2,0,4.3-0.8,6-2.5l33.8-33.8c3.3-3.3,3.3-8.6,0-11.9C317.8,430.6,312.4,430.6,309.1,433.9z M464.9,445.7H363.6
		c-4.7,0-8.4,3.8-8.4,8.4s3.8,8.4,8.4,8.4h101.3c4.7,0,8.4-3.8,8.4-8.4S469.6,445.7,464.9,445.7z M309.1,504.4l-27.8,27.8
		l-11.1-11.1c-3.3-3.3-8.6-3.3-11.9,0c-3.3,3.3-3.3,8.6,0,11.9l17.1,17.1l0.1,0.1l0.1,0.1c0.5,0.5,1.2,0.8,1.8,1.1
		c0.3,0.2,0.6,0.4,0.9,0.6c0.7,0.3,1.4,0.3,2.1,0.4c0.4,0,0.7,0.2,1,0.2c2.2,0,4.3-0.8,6-2.5l33.8-33.8c3.3-3.3,3.3-8.6,0-11.9
		C317.8,501.1,312.4,501.1,309.1,504.4z M464.9,513.3H363.6c-4.7,0-8.4,3.8-8.4,8.4c0,4.7,3.8,8.4,8.4,8.4h101.3
		c4.7,0,8.4-3.8,8.4-8.4C473.3,517,469.6,513.3,464.9,513.3z M293.9,283.5c0-2.3,1.9-4.2,4.2-4.2h29.5c4.7,0,8.4-3.8,8.4-8.4
		c0-13.2,14-19.2,27.1-19.2c13,0,27.1,6,27.1,19.2c0,4.7,3.8,8.4,8.4,8.4h28.9c2.3,0,4.2,1.9,4.2,4.2v15.3c-0.4,1-0.7,2.1-0.7,3.3
		c0,1.2,0.2,2.3,0.7,3.3v9.3c0,2.3-1.9,4.2-4.2,4.2H298.1c-2.3,0-4.2-1.9-4.2-4.2V283.5z"/>
</g>
</svg>
