<?xml version="1.0" encoding="utf-8"?>
<!-- Generator: Adobe Illustrator 23.0.2, SVG Export Plug-In . SVG Version: 6.00 Build 0)  -->
<svg version="1.1" baseProfile="tiny" id="Layer_3" xmlns="http://www.w3.org/2000/svg" xmlns:xlink="http://www.w3.org/1999/xlink"
	 x="0px" y="0px" viewBox="0 0 365.8 365.8" xml:space="preserve">
<path d="M299.1,60.2H266V50c0-11.6-9.5-21.1-21.1-21.1h-21.5c-9.1-36.4-76.7-36.4-85.9,0h-22.1
	c-11.6,0-21.1,9.5-21.1,21.1v10.2H62.7C44,60.2,28.9,75.4,28.9,94v228c0,18.6,15.1,33.8,33.8,33.8h236.4c18.6,0,33.8-15.1,33.8-33.8
	V94C332.9,75.4,317.7,60.2,299.1,60.2z"/>
<path fill="#FFFFFF" d="M172.5,153.1c0,4.7,3.8,8.4,8.4,8.4h101.3c4.7,0,8.4-3.8,8.4-8.4s-3.8-8.4-8.4-8.4H180.9
	C176.2,144.6,172.5,148.4,172.5,153.1z"/>
<path fill="#FFFFFF" d="M111.2,50c0-2.3,1.9-4.2,4.2-4.2H145c4.7,0,8.4-3.8,8.4-8.4c0-13.2,14-19.2,27.1-19.2c13,0,27.1,6,27.1,19.2
	c0,4.7,3.8,8.4,8.4,8.4h28.9c2.3,0,4.2,1.9,4.2,4.2v15.3c-0.4,1-0.7,2.1-0.7,3.3c0,1.2,0.2,2.3,0.7,3.3v9.3c0,2.3-1.9,4.2-4.2,4.2
	H115.4c-2.3,0-4.2-1.9-4.2-4.2C111.2,81.2,111.2,50,111.2,50z"/>
<path fill="#FFFFFF" d="M126.5,130l-27.8,27.8l-11.1-11.1c-3.3-3.3-8.6-3.3-11.9,0s-3.3,8.6,0,11.9l17.1,17.1
	c0.8,0.8,1.8,1.4,2.8,1.8c1,0.4,2.1,0.6,3.2,0.6c2.2,0,4.3-0.8,6-2.5l33.8-33.8c3.3-3.3,3.3-8.6,0-11.9
	C135.1,126.7,129.8,126.7,126.5,130z"/>
<path fill="#FFFFFF" d="M126.5,200.4l-27.8,27.8l-11.1-11.1c-3.3-3.3-8.6-3.3-11.9,0s-3.3,8.6,0,11.9l17.1,17.1l0.1,0.1l0.1,0.1
	c0.5,0.5,1.2,0.8,1.8,1.1c0.3,0.2,0.6,0.4,0.9,0.6c0.7,0.3,1.4,0.3,2.1,0.4c0.4,0.1,0.7,0.2,1,0.2c2.2,0,4.3-0.8,6-2.5l33.8-33.8
	c3.3-3.3,3.3-8.6,0-11.9C135.1,197.1,129.8,197.1,126.5,200.4z"/>
<path fill="#FFFFFF" d="M282.2,212.2H180.9c-4.7,0-8.4,3.8-8.4,8.4c0,4.7,3.8,8.4,8.4,8.4h101.3c4.7,0,8.4-3.8,8.4-8.4
	C290.7,216,286.9,212.2,282.2,212.2z"/>
<path fill="#FFFFFF" d="M126.5,270.9l-27.8,27.8l-11.1-11.1c-3.3-3.3-8.6-3.3-11.9,0s-3.3,8.6,0,11.9l17.1,17.1l0.1,0.1l0.1,0.1
	c0.5,0.5,1.2,0.8,1.8,1.1c0.3,0.2,0.6,0.4,0.9,0.6c0.7,0.3,1.4,0.3,2.1,0.4c0.4,0,0.7,0.2,1,0.2c2.2,0,4.3-0.8,6-2.5l33.8-33.8
	c3.3-3.3,3.3-8.6,0-11.9C135.1,267.6,129.8,267.6,126.5,270.9z"/>
<path fill="#FFFFFF" d="M282.2,279.8H180.9c-4.7,0-8.4,3.8-8.4,8.4s3.8,8.4,8.4,8.4h101.3c4.7,0,8.4-3.8,8.4-8.4
	S286.9,279.8,282.2,279.8z"/>
</svg>
