<?xml version="1.0" encoding="utf-8"?>
<!-- Generator: Adobe Illustrator 23.0.2, SVG Export Plug-In . SVG Version: 6.00 Build 0)  -->
<svg version="1.1" baseProfile="tiny" id="Layer_3" 
  xmlns="http://www.w3.org/2000/svg" 
  xmlns:xlink="http://www.w3.org/1999/xlink" x="0px" y="0px" viewBox="0 0 424.9 424.9" xml:space="preserve">
  <path d="M347.8,364.7c0-9,4.4-17.7,11.7-23.1c4.1-3,4.9-8.7,1.9-12.8c-0.4-0.5-0.9-0.8-1.4-1.3V30.5
	c0-5-4.1-9.1-9.1-9.1H86.2c-20.1,0-36.5,16.4-36.5,36.5v310.3c0,20.1,16.4,36.5,36.5,36.5h264.7c1.3,0,2.6-0.3,3.7-0.8
	c2.5-0.2,4.8-1.3,6.5-3.4c3-4,2.3-9.7-1.7-12.8C352,382.1,347.8,373.8,347.8,364.7z M332.6,389.8H83.9c-10.1,0-18.3-8.2-18.3-18.3
	v-9.8c0-9.2,9.2-17.6,19.3-17.6H334c-4.3,7.2-6.7,15.5-6.7,24C327.3,375.9,329.1,383.2,332.6,389.8z M339.4,325.9h-219V43h219V325.9
	z"/>
  <path d="M281.6,84.3H166.2c-3.3,0-6,2.7-6,6v11.2c0,3.3,2.7,6,6,6h115.4c3.3,0,6-2.7,6-6V90.3
	C287.5,87,284.9,84.3,281.6,84.3z"/>
  <path d="M281.6,142.5H166.2c-3.3,0-6,2.7-6,6v11.2c0,3.3,2.7,6,6,6h115.4c3.3,0,6-2.7,6-6v-11.2
	C287.5,145.1,284.9,142.5,281.6,142.5z"/>
  <path d="M281.6,200.6H166.2c-3.3,0-6,2.7-6,6v11.2c0,3.3,2.7,6,6,6h115.4c3.3,0,6-2.7,6-6v-11.2
	C287.5,203.3,284.9,200.6,281.6,200.6z"/>
  <path d="M281.6,258.7H166.2c-3.3,0-6,2.7-6,6v11.2c0,3.3,2.7,6,6,6h115.4c3.3,0,6-2.7,6-6v-11.2
	C287.5,261.4,284.9,258.7,281.6,258.7z"/>
</svg>
