<svg id="Layer_3" data-name="Layer 3" xmlns="http://www.w3.org/2000/svg" xmlns:xlink="http://www.w3.org/1999/xlink" viewBox="0 0 365.8 365.8"><defs><clipPath id="clip-path"><rect x="17.6" y="15.3" width="151.7" height="151.75" rx="30.3" style="fill:none"/></clipPath><clipPath id="clip-path-2"><rect x="-984" y="-1957.4" width="5690.5" height="10121.49" style="fill:none"/></clipPath><clipPath id="clip-path-3"><rect x="-149.4" y="-151.6" width="485.6" height="485.59" style="fill:none"/></clipPath><clipPath id="clip-path-4"><rect x="17.6" y="15.3" width="151.7" height="151.75" style="fill:none"/></clipPath><clipPath id="clip-path-5"><rect x="199.7" y="15.3" width="151.7" height="151.75" rx="30.3" style="fill:none"/></clipPath><clipPath id="clip-path-7"><rect x="32.7" y="-151.6" width="485.6" height="485.59" style="fill:none"/></clipPath><clipPath id="clip-path-8"><rect x="199.7" y="15.3" width="151.7" height="151.75" style="fill:none"/></clipPath><clipPath id="clip-path-9"><rect x="199.7" y="197.4" width="151.7" height="151.75" rx="30.3" style="fill:none"/></clipPath><clipPath id="clip-path-11"><rect x="32.7" y="30.5" width="485.6" height="485.59" style="fill:none"/></clipPath><clipPath id="clip-path-12"><rect x="199.7" y="197.4" width="151.7" height="151.75" style="fill:none"/></clipPath><clipPath id="clip-path-13"><rect x="17.6" y="197.4" width="151.7" height="151.75" rx="30.3" style="fill:none"/></clipPath><clipPath id="clip-path-15"><rect x="-149.4" y="30.5" width="485.6" height="485.59" style="fill:none"/></clipPath><clipPath id="clip-path-16"><rect x="17.6" y="197.4" width="151.7" height="151.75" style="fill:none"/></clipPath><clipPath id="clip-path-17"><path d="M785.6,292.1a24.9,24.9,0,0,0-24.9-24.7H760c-4.7,0-8.2-1.2-10.8-3.8-4.4-4.4-5.2-12.3-5.1-15.2V165.7c0-54.6-39.3-100.3-91.5-111.5,0-.2.1-.4.1-.6V37.2a24.9,24.9,0,0,0-49.8,0V53.6c0,.2.1.4.1.6-52.2,11.1-91.4,56.4-91.4,110.5v83.7a3.4,3.4,0,0,0,.1,1c0,.1.8,8.3-3.6,13.4-2.8,3-7.4,4.6-13.6,4.6h-.6a24.6,24.6,0,0,0,1.1,49.2h86.8a4.3,4.3,0,0,0-.2,1.1c0,23.9,19.7,43.4,43.9,43.4s43.9-19.5,43.9-43.4c0-.4-.2-.7-.2-1.1h91.5A24.8,24.8,0,0,0,785.6,292.1ZM619.5,37.2a8.3,8.3,0,0,1,16.6,0V51.9c-2.7-.2-5.5-.4-8.3-.4s-5.5.2-8.3.4ZM528.2,247.9V164.7c0-53.3,44.7-96.8,99.6-96.8s99.6,43.9,99.6,97.8v82.4a44.6,44.6,0,0,0,4.5,19.3H524.6A38.2,38.2,0,0,0,528.2,247.9Zm124.6,69.9a27.3,27.3,0,0,1-54.6,0c0-.4-.2-.7-.2-1.1h55A4.3,4.3,0,0,0,652.8,317.8ZM495,300.3a8.2,8.2,0,1,1,0-16.4H760.7a8.2,8.2,0,1,1,0,16.4Z" style="fill:none"/></clipPath><clipPath id="clip-path-18"><path d="M603.9,523.3a27.6,27.6,0,0,0-7.7,3.3c-38.4,24.1-43.9,62.7-32.4,90.2,9.6,22.9,32.9,42.7,65.9,42.7a95.1,95.1,0,0,0,21.2-2.6,30.6,30.6,0,0,0,7.7-3.2c38.4-24.2,44-62.8,32.5-90.3S648.1,512.9,603.9,523.3ZM777.3,639.8l-8.1,19.8a8.1,8.1,0,0,1-8,5.1l-22-1a25.4,25.4,0,0,0-18.6,7.2l-11.3,11.4a24.5,24.5,0,0,0-7.2,18.8l1.2,22.1a8.2,8.2,0,0,1-5,8l-19.8,8.3a8.5,8.5,0,0,1-9.3-2l-14.8-16.3a24.6,24.6,0,0,0-18.2-8H620.1a24.9,24.9,0,0,0-18.4,8.2L587,737.8a8.4,8.4,0,0,1-9.3,2.2l-19.8-8.1a8.3,8.3,0,0,1-5.1-8l1-22a24.8,24.8,0,0,0-7.2-18.6l-11.4-11.4a24.7,24.7,0,0,0-17.4-7.2h-1.4l-22,1.3a8.1,8.1,0,0,1-8.1-5.1L478,641.2a8.3,8.3,0,0,1,2.1-9.3l16.2-14.8a24.9,24.9,0,0,0,8.1-18.2V582.8a24.5,24.5,0,0,0-8.2-18.4l-16.5-14.8a8,8,0,0,1-2.1-9.2l8.1-19.8a8.2,8.2,0,0,1,8-5.1l21.9,1a24.6,24.6,0,0,0,18.6-7.2l11.4-11.4a24.5,24.5,0,0,0,7.2-18.8L551.6,457a8.1,8.1,0,0,1,5-8l19.8-8.3a8.1,8.1,0,0,1,9.2,2L600.4,459a25,25,0,0,0,18.3,8h16.1a24.9,24.9,0,0,0,18.4-8.2l14.7-16.4a8.2,8.2,0,0,1,9.2-2.2l19.9,8.1a8.5,8.5,0,0,1,5.1,8l-1,21.3a24.5,24.5,0,0,0,6.2,17.5l10.8,12.2a24.8,24.8,0,0,0,19.8,8.2l22.6-1.2a8.1,8.1,0,0,1,8.1,5l8.2,19.7a8.1,8.1,0,0,1-2,9.3l-16.3,14.8a24.8,24.8,0,0,0-8,18.3v16.1a24.5,24.5,0,0,0,8.2,18.3l16.5,14.8A8.2,8.2,0,0,1,777.3,639.8Zm8.8-21.5-16.4-14.7a8.1,8.1,0,0,1-2.8-6.1V581.4a8.1,8.1,0,0,1,2.7-6.1l16.3-14.8a24.8,24.8,0,0,0,6.1-27.8l-8.3-19.8a24.7,24.7,0,0,0-24.1-15.1L737,499.1a8.5,8.5,0,0,1-6.6-2.8l-10.8-12.1a8.4,8.4,0,0,1-2.1-5.9l1-21.2a24.8,24.8,0,0,0-15.3-24L683.4,425a24.8,24.8,0,0,0-27.8,6.4l-14.7,16.5a8.4,8.4,0,0,1-6.1,2.7H618.7a8.4,8.4,0,0,1-6.1-2.7l-14.8-16.2a24.8,24.8,0,0,0-27.8-6.2l-19.8,8.3a24.6,24.6,0,0,0-15,24.1l1.2,22.1a8.7,8.7,0,0,1-2.4,6.3l-11.4,11.3a7.7,7.7,0,0,1-6.2,2.4l-22-1a24.8,24.8,0,0,0-23.9,15.3l-8.2,19.9a24.9,24.9,0,0,0,6.4,27.7l16.5,14.7a8.5,8.5,0,0,1,2.7,6.2v16.1a7.7,7.7,0,0,1-2.7,6L469,619.8a24.5,24.5,0,0,0-6.1,27.7l8.2,19.8a24.9,24.9,0,0,0,24.2,15.1l22-1.2a8.4,8.4,0,0,1,6.3,2.3L535,694.9a8.5,8.5,0,0,1,2.4,6.2l-1,22a24.7,24.7,0,0,0,15.3,24l19.8,8.1a25.2,25.2,0,0,0,9.3,1.8,24.7,24.7,0,0,0,18.4-8.2L614,732.3a8.1,8.1,0,0,1,6.1-2.7h16.1a8.4,8.4,0,0,1,6.1,2.7l14.8,16.3a24.9,24.9,0,0,0,27.8,6.1l19.7-8.3a24.6,24.6,0,0,0,15.1-24.1l-1.2-22.1a8.3,8.3,0,0,1,2.4-6.3l11.4-11.3a7.7,7.7,0,0,1,6.2-2.4l21.9,1a24.9,24.9,0,0,0,24-15.3l8.1-19.9A24.6,24.6,0,0,0,786.1,618.3ZM649.9,639.7a9.9,9.9,0,0,1-2.8,1.2c-37.2,8.8-59.9-10.9-68.1-30.5s-6.3-49.6,26-69.9a13.1,13.1,0,0,1,2.7-1.2,76,76,0,0,1,17.7-2.1c26.8,0,43.7,16.3,50.5,32.6C684.1,589.3,682.2,619.4,649.9,639.7Z" style="fill:none"/></clipPath></defs><title>customize-icon</title><g style="clip-path:url(#clip-path)"><g style="clip-path:url(#clip-path-2)"><g style="isolation:isolate"><g style="clip-path:url(#clip-path-3)"><g style="clip-path:url(#clip-path-4)"><path d="M139,183.8H47.9a47.1,47.1,0,0,1-47-47.1v-91a47.1,47.1,0,0,1,47-47H139a47.1,47.1,0,0,1,47,47v91A47.1,47.1,0,0,1,139,183.8ZM47.9,32A13.8,13.8,0,0,0,34.2,45.7v91a13.7,13.7,0,0,0,13.7,13.7H139a13.6,13.6,0,0,0,13.6-13.7v-91A13.7,13.7,0,0,0,139,32Z"/></g></g></g></g></g><g style="clip-path:url(#clip-path-5)"><g style="clip-path:url(#clip-path-2)"><g style="isolation:isolate"><g style="clip-path:url(#clip-path-7)"><g style="clip-path:url(#clip-path-8)"><path d="M321.1,183.8H230a47.1,47.1,0,0,1-47-47.1v-91a47.1,47.1,0,0,1,47-47h91.1a47.1,47.1,0,0,1,47,47v91A47.1,47.1,0,0,1,321.1,183.8ZM230,32a13.8,13.8,0,0,0-13.7,13.7v91A13.7,13.7,0,0,0,230,150.4h91.1a13.6,13.6,0,0,0,13.6-13.7v-91A13.7,13.7,0,0,0,321.1,32Z"/></g></g></g></g></g><g style="clip-path:url(#clip-path-9)"><g style="clip-path:url(#clip-path-2)"><g style="isolation:isolate"><g style="clip-path:url(#clip-path-11)"><g style="clip-path:url(#clip-path-12)"><path d="M321.1,365.9H230a47.1,47.1,0,0,1-47-47.1v-91a47.1,47.1,0,0,1,47-47h91.1a47.1,47.1,0,0,1,47,47v91A47.1,47.1,0,0,1,321.1,365.9ZM230,214.1a13.8,13.8,0,0,0-13.7,13.7v91A13.7,13.7,0,0,0,230,332.5h91.1a13.6,13.6,0,0,0,13.6-13.7v-91a13.7,13.7,0,0,0-13.6-13.7Z"/></g></g></g></g></g><g style="clip-path:url(#clip-path-13)"><g style="clip-path:url(#clip-path-2)"><g style="isolation:isolate"><g style="clip-path:url(#clip-path-15)"><g style="clip-path:url(#clip-path-16)"><path d="M139,365.9H47.9a47.1,47.1,0,0,1-47-47.1v-91a47.1,47.1,0,0,1,47-47H139a47.1,47.1,0,0,1,47,47v91A47.1,47.1,0,0,1,139,365.9ZM47.9,214.1a13.8,13.8,0,0,0-13.7,13.7v91a13.7,13.7,0,0,0,13.7,13.7H139a13.6,13.6,0,0,0,13.6-13.7v-91A13.7,13.7,0,0,0,139,214.1Z"/></g></g></g></g></g></svg>