<?xml version="1.0" encoding="utf-8"?>
<!-- Generator: Adobe Illustrator 23.0.3, SVG Export Plug-In . SVG Version: 6.00 Build 0)  -->
<svg version="1.1" id="Layer_1" xmlns="http://www.w3.org/2000/svg" xmlns:xlink="http://www.w3.org/1999/xlink" x="0px" y="0px"
	 viewBox="0 0 370 370" style="enable-background:new 0 0 370 370;" xml:space="preserve">
<path d="M104,182.1H66.2c-5,0-9.1,4.1-9.1,9.1v119.9c0,5,4,9,9,9h37.9c5,0,9-4,9-9V191.2C113.1,186.2,109,182.1,104,182.1z"/>
<path d="M204,60.1h-37.8c-5,0-9.1,4.1-9.1,9.1v241.9c0,5,4,9,9,9h37.9c5,0,9-4,9-9V69.2C213.1,64.2,209,60.1,204,60.1z"/>
<path d="M304,127.1h-37.8c-5,0-9.1,4.1-9.1,9.1v174.9c0,5,4,9,9,9h37.9c5,0,9-4,9-9V136.2C313.1,131.2,309,127.1,304,127.1z"/>
<path d="M11.1,340.1h25V27.3c0-4-3.2-7.2-7.2-7.2H18.3c-4,0-7.2,3.2-7.2,7.2V340.1z"/>
<path d="M11.1,339.7l0,19l340.8-0.2c4,0,7.2-3.2,7.2-7.2l0-4.6c0-4-3.2-7.2-7.2-7.2L11.1,339.7z"/>
</svg>
