<?xml version="1.0" encoding="utf-8"?>
<!-- Generator: Adobe Illustrator 23.0.2, SVG Export Plug-In . SVG Version: 6.00 Build 0)  -->
<svg version="1.1" baseProfile="tiny" id="Layer_3" xmlns="http://www.w3.org/2000/svg" xmlns:xlink="http://www.w3.org/1999/xlink"
	 x="0px" y="0px" viewBox="0 0 424.9 424.9" xml:space="preserve">
<path d="M197.7,92.5c-7.8-18-19.9-35.5-38.5-47.6c-24.7-16.1-50.9-13.3-76.5,3c-0.1,0-0.1,0.1-0.2,0.1
	C46.8,73,36.7,107.2,34.6,131.6c-3.2,36.5,9.7,74.8,32.7,97.6c4.6,4.5,19.3,13.3,25,15.4c9.3,3.4,9,5.7,7.8,16.9
	c-0.2,2.1-0.5,4.6-0.7,7.2c-1.9,25.5-3.3,51.6-4.5,76.8c-0.5,10.4-1.1,21.1-1.7,31.8c-0.1,1.3,0.4,2.5,1.3,3.4
	c0.1,0.2,0.2,0.3,0.4,0.5c0,0,0.1,0.1,0.1,0.1c0.1,0.1,0.2,0.2,0.3,0.3c0.1,0,0.1,0.1,0.2,0.1c0.1,0.1,0.2,0.2,0.3,0.2
	c0.1,0,0.1,0.1,0.2,0.1c0.1,0.1,0.2,0.1,0.3,0.2c0.1,0,0.1,0.1,0.2,0.1c0.1,0.1,0.2,0.1,0.3,0.2c0.1,0,0.2,0.1,0.2,0.1
	c0.1,0,0.3,0.1,0.4,0.1c0.1,0,0.2,0,0.3,0.1c0.1,0,0.3,0.1,0.5,0.1c0.1,0,0.2,0,0.2,0c0.2,0,0.5,0,0.7,0c0,0,0,0,0,0c0,0,0,0,0,0
	h41.1c0.8,0.4,1.7,0.7,2.8,0.7c1.4,0,2.5-0.4,3.4-1c2-0.6,3.3-2.5,3.2-4.6c-3-46-5-79-6.6-121.5c0-0.7-0.1-1.5-0.2-2.2
	c-0.3-3.8-0.5-5.4,4-7.5c37.8-15,58.6-47.1,60.1-92.8C207.9,129.2,204.9,109.1,197.7,92.5z"/>
<path d="M319.2,258.8c44.6-17.5,46-55.3,43.2-82.2c-1.8-17.6-3.5-35.5-5.2-52.8c-2.2-22.8-4.4-46.3-7-69.5
	c-0.4-3.6-2.1-6.7-3.6-8.9c-2.1-3.1-5.5-4.8-9.3-4.6c-3.7,0.3-7,2.5-8.6,5.9c-1,2.1-2.3,5.2-2.3,8.7c-0.3,22.1-0.3,44.5-0.3,66.2
	c0,18.7,0,38.1-0.2,57.1c0,1.1-0.3,2.3-0.6,3.6c-0.4-1-0.6-2-0.6-2.9c-0.3-22.7-0.3-46.9-0.3-70.2c0-18,0-36.6-0.2-54.2
	c0-0.8-0.1-1.5-0.3-2.3c-0.8-3.3-3-6.7-6.6-10.1c-4.4-4.2-11.3-4.4-16-0.5c-4.3,3.6-6.6,7.8-6.7,12.2c-0.2,23.6-0.1,48.5,0,72.6
	c0.1,15.6,0.1,31.7,0.1,47.1c0,1.1,0,2.2,0.1,3.3c0.1,3.1,0.1,6.1-0.4,8.7c0,0.1-0.1,0.3-0.5,0.3c-0.2,0-0.7,0-1-0.4
	c-0.2-0.4-0.4-0.7-0.5-0.9c-0.5-1.7-0.4-4-0.2-6.4c0.1-1.2,0.1-2.4,0.1-3.6c0-9.4,0-18.8,0-28.2c0-30.7,0.1-62.4-0.4-93.6
	c-0.1-3.4-1.8-6.3-3.1-8.2c-2.3-3.3-5.9-5.2-9.9-5.3c-4-0.1-7.8,1.8-10.2,4.9c-1.5,1.9-3.4,5-3.5,8.5c-0.6,26.4-0.5,53.2-0.5,79.1
	c0,8.3,0,16.5,0,24.8c0,2.4,0.1,4.9,0.1,7.3c0.1,5.7,0.3,11.2-0.4,16.5c-0.1,0.6-0.2,1.1-0.5,1.8c-0.1,0.1-0.1,0.3-0.4,0.2
	c-0.3,0-0.3-0.1-0.3-0.2c-0.1-0.4-0.1-0.7-0.1-1c-0.2-23.4,0-48.4,0.2-72.5c0.1-17,0.3-34.5,0.3-51.1c0-0.7,0-1.5,0-2.2
	c0.1-3.7,0.2-7.5-1.5-10.5c-2-3.5-5.8-5.8-10.5-6.3c-5-0.5-9.8,1.3-12.6,4.6c-1.7,2-2.6,3.9-3,5.9c-2.7,15-4.6,30.9-6,48.6
	c-2.2,28.5-4.1,57.4-5.9,85.4l-0.8,13.1c-1.7,26.8,11.4,47.2,37.8,59c8.5,3.8,10.8,7.4,10.2,16.2c-2.6,38.3-4.5,73.2-5.7,106.8
	c-0.1,2.3,1.6,4.3,3.9,4.7c0.6,0.2,1.3,0.3,2,0.3c0.1,0,0.1,0,0.2,0c0.1,0,0.2,0,0.2,0h40.3c2,0,3.5-0.8,4.5-2.1c1.2-1,2-2.5,2.1-4
	c0.2-0.5,0.2-1,0.2-1.6c-0.4-8.3-1-23.7-1.3-31.9c-1.2-26.6-2.3-51.8-3-77.2C315,264,317.9,259.4,319.2,258.8z M312.3,250.1
	c-5.7,2.2-10.1,12.8-9.9,18.4c0.6,25.6,1.8,50.8,3,77.4c0.3,6.3,0.7,17.1,1.1,25.4h-27.1c1.3-31.3,3-64,5.4-99.6
	c0.9-12.6-3.7-19.9-15.6-25.1c-23-10.2-33.9-27-32.4-50l0.8-13.1c1.8-28,3.7-56.9,5.9-85.3c1.4-17.4-0.8-32.5,1.8-47.2
	c0-0.2,0.2-0.6,1-1.6c0.9-1,2.8-1.6,4.8-1.4c1.6,0.2,2.9,0.8,3.4,1.7c0.5,0.9,0.4,4,0.4,5.8c0,0.8,0,1.6,0,2.4
	c0,16.6-0.1,34.1-0.3,51c-0.2,24.2-0.4,49.2-0.2,72.7c0,0.9,0.1,1.7,0.3,2.6c0.8,4.2,4.2,7.3,8.5,7.6c4.3,0.3,8.2-2.1,9.7-6.2
	c0.5-1.3,0.8-2.6,1-3.9c0.7-6,0.6-12,0.4-17.8c-0.1-2.3-0.1-4.7-0.1-7c0-8.3,0-16.5,0-24.8c-0.1-25.9-0.1-52.6,0.5-78.9
	c0-0.4,0.2-1.3,1.7-3.2c0.6-0.8,1.6-1.3,2.7-1.3c0.6,0,1.7,0.2,2.5,1.4c1.2,1.7,1.4,2.7,1.5,3.2c0.5,31.1,0.5,62.8,0.4,93.4
	c0,9.4,0,18.8,0,28.2c0,1-0.1,2-0.1,3.1c-0.2,2.9-0.4,6.2,0.6,9.4c0.3,1.1,0.8,2.2,1.6,3.4c2.1,3.3,5.9,5,9.8,4.5
	c3.7-0.5,6.8-3,8-6.5c0.1-0.3,0.2-0.7,0.3-1c0.8-3.7,0.7-7.3,0.6-10.8c0-1,0-2.1,0-3.1c0-15.4-0.1-31.5-0.1-47.1
	c-0.1-24.1-0.2-48.9,0-72.5c0-2,1.8-4,3.4-5.3c1.2-1,2.8-0.9,3.9,0.1c3.1,3,3.8,4.8,4,5.5c0,0.1,0,0.2,0,0.3
	c0.1,17.6,0.1,36.2,0.2,54.1c0,23.4,0,47.5,0.3,70.3c0,3.9,1.7,7.5,3.2,10.5c1.3,2.7,4,4.3,7,4.2c3-0.1,5.5-1.9,6.7-4.6
	c1.3-3.1,2.7-6.8,2.7-10.7c0.2-19.1,0.2-38.4,0.2-57.2c0-21.7,0-44.1,0.3-66.1c0-1.3,0.5-2.9,1.5-5c0.3-0.5,0.7-0.7,1-0.7
	c0.4,0,0.7,0.1,1,0.5c1.4,2.1,2.1,3.6,2.2,4.9c2.5,23.1,1.2,46.4,3.4,69.1c1.6,17.3,3.4,35.3,5.2,52.9
	C353.8,215.9,342.2,238.3,312.3,250.1z"/>
<g>
	<path fill="#FFFFFF" d="M70.9,113.1c-4.2,31.6,4.4,60.2,22.1,87.1c1.4,2.1-0.9,4.7-3.2,3.5c-26.9-13.3-38.1-57.6-23.6-91.9
		C67.3,109.2,71.3,110.3,70.9,113.1z"/>
</g>
</svg>
