<?xml version="1.0" encoding="utf-8"?>
<!-- Generator: Adobe Illustrator 23.0.3, SVG Export Plug-In . SVG Version: 6.00 Build 0)  -->
<svg version="1.1" id="Layer_3" xmlns="http://www.w3.org/2000/svg" xmlns:xlink="http://www.w3.org/1999/xlink" x="0px" y="0px"
	 viewBox="0 0 365.8 365.8" enable-background="new 0 0 365.8 365.8" xml:space="preserve">
<title>Artboard 26 copy 30</title>
<path d="M335.8,109.8L184.2,226.4c-0.3,0.3-0.7,0.5-1.1,0.6c-0.3,0.2-0.6,0.4-0.9,0.5c-1,0.5-2.2,0.7-3.3,0.8l0,0
	c-1.2,0-2.3-0.3-3.4-0.8l-0.9-0.5l-1.1-0.5c0,0-117.9-90.6-154.2-117.8v147.8c0,18.1,14.6,32.7,32.7,32.7c0,0,0,0,0,0h261.8
	c18,0.1,32.6-14.5,32.7-32.5c0-0.1,0-0.1,0-0.2V109.2c0-2-0.2-3.9-0.5-5.9C341.1,106.3,335.9,109.8,335.8,109.8z"/>
<path d="M171.6,203.2c4.3,3.3,10.2,3.3,14.5,0L321.4,99.1L337.8,87c-6.2-6.7-14.9-10.5-24-10.5H52c-10.5,0-20.4,5.1-26.5,13.6
	C43.5,107.3,171.6,203.2,171.6,203.2z"/>
</svg>
