<?xml version="1.0" encoding="utf-8"?>
<!-- Generator: Adobe Illustrator 23.0.3, SVG Export Plug-In . SVG Version: 6.00 Build 0)  -->
<svg version="1.1" id="Layer_1" xmlns="http://www.w3.org/2000/svg" xmlns:xlink="http://www.w3.org/1999/xlink" x="0px" y="0px"
	 viewBox="0 0 382 348" style="enable-background:new 0 0 382 348;" xml:space="preserve">
<g>
	<path style="fill:#cccbc9;" d="M190.5,333c-41.8,0-83.7,0-125.5,0c-21.7,0-34-12.3-34-34.1c0-71.7,0-143.3,0-215
		C31,64,43.9,51.1,63.8,51.1c10.5,0,21-0.1,31.5,0.1c3.3,0.1,4.3-1,4.1-4.3c-0.3-7-0.3-14,3.5-20.3c6.3-10.5,18.2-15.5,30.1-12.5
		c11,2.8,19.3,13.1,19.9,24.8c0.1,2.8,0.3,5.7,0,8.5c-0.3,3.3,1.1,3.8,4,3.8c22.5-0.1,45-0.2,67.5,0c4.1,0,4.7-1.5,4.5-5
		c-0.4-7.7-0.1-15.2,4.8-21.9c6.5-8.8,17.9-13.1,28.8-10.2c10.7,2.9,18.7,12.4,19.5,23.4c0.1,0.7,0.1,1.3,0.1,2
		c0.2,3.6-1.5,8.4,0.7,10.6c2.7,2.7,7.6,0.8,11.5,0.9c8,0.2,16,0,24,0.1c19.4,0.1,32.2,13.1,32.2,32.4c0,72.3,0,144.6,0,217
		c0,19.6-12.8,32.4-32.6,32.5C275.5,333,233,333,190.5,333z"/>
	<path d="M191,127.6c46.3,0,92.6,0.1,139-0.1c4.1,0,5.3,0.9,5.3,5.2c-0.2,55.7-0.1,111.3-0.1,167
		c0,12-5.7,17.8-17.7,17.8c-84.3,0-168.6,0-252.9,0c-12.5,0-17.9-5.5-17.9-18c0-55.3,0.1-110.6-0.1-166c0-4.9,1.3-6,6.1-6
		C98.7,127.6,144.8,127.6,191,127.6z"/>
	<path d="M191,112.2c-46.3,0-92.7-0.1-139,0.1c-4.3,0-5.8-0.9-5.6-5.4c0.4-8,0.1-16,0.1-24
		c0.1-9.8,6.1-15.9,15.9-16c11-0.1,22,0.1,33-0.1c3,0,3.9,0.7,4,3.9c0.8,15.8,11.9,26.6,26.8,26.5s25.9-11,26.6-26.7
		c0.1-2.7,0.7-3.7,3.6-3.7c22.8,0.1,45.7,0.1,68.5,0c3.1,0,3.8,1,3.9,4c0.4,15.1,11.6,26.3,26.3,26.4c14.7,0.1,26.4-10.9,26.8-25.8
		c0.1-4,1.4-4.6,4.9-4.6c10.5,0.2,21,0,31.5,0.1C329,67,334.9,72.8,335,83.7c0.1,8-0.2,16,0.1,24c0.2,3.9-1.1,4.6-4.8,4.6
		C284,112.1,237.5,112.2,191,112.2z"/>
	<path d="M244.2,55.5c0-5-0.1-10,0-15c0.2-6.6,4.6-11.3,10.6-11.6c6.3-0.3,11.6,4.2,11.9,10.9
		c0.4,10.3,0.3,20.7,0,31c-0.2,6.3-5.7,11.2-11.4,11.1c-6.1-0.1-11-5.2-11.1-11.8C244.1,65.2,244.2,60.3,244.2,55.5z"/>
	<path d="M115,54.9c0-4.8-0.1-9.7,0-14.5c0.1-6.5,4.6-11.3,10.7-11.6c6.3-0.3,11.5,4.3,11.7,11.1
		c0.3,10.3,0.2,20.6,0,31c-0.2,6.3-5.5,11.1-11.4,10.9c-6.1-0.2-10.8-5.1-10.9-11.4C114.9,65.2,115,60.1,115,54.9z"/>
	<path style="fill:#cccbc9;" d="M183,256.8c-12.9,0.2-24.1,1.4-34.6,6.1c-8.4,3.8-14.9,9.5-17.2,18.8c-0.8,3.1-2.3,4.8-5.6,4
		c-3.2-0.8-4.1-3.2-3.4-6.2c1.8-8.1,6.4-14.5,13.1-19.4c10.6-7.7,22.8-10.8,35.5-11.9c30.4-2.7,57.5,5.7,81.3,24.8
		c1.4,1.1,2.8,2.4,4.1,3.6c2,1.9,2.4,4.1,0.6,6.2c-1.9,2.2-4.2,2.6-6.6,0.8c-1.5-1.1-2.8-2.3-4.2-3.5
		C227.1,264.7,205.5,257.2,183,256.8z"/>
	<path style="fill:#cccbc9;" d="M208.9,198.8c0.6-15.2,2.2-29,4.9-42.7c0.6-3.1,1.2-6.3,5.2-5.7c4.5,0.7,4.6,4.2,3.8,7.7
		c-2.9,13.9-4.2,27.9-4.8,42c-0.1,2.3,0,4.7-0.1,7c-0.1,2.9-1.9,4.1-4.6,4.1c-2.8,0-4.4-1.3-4.5-4.2
		C208.8,203.9,208.9,200.7,208.9,198.8z"/>
	<path style="fill:#cccbc9;" d="M161,182.8c0,7.8,0,15.6,0,23.4c0,3.4-0.8,6-4.9,6c-3.9-0.1-4.4-2.7-4.4-5.9
		c0.1-15.8,0.1-31.6,0-47.4c0-3.4,0.6-6.1,4.8-6c3.8,0.1,4.5,2.7,4.5,5.8C161,166.9,161,174.8,161,182.8z"/>
</g>
</svg>

