<?xml version="1.0" encoding="utf-8"?>
<!-- Generator: Adobe Illustrator 23.0.3, SVG Export Plug-In . SVG Version: 6.00 Build 0)  -->
<svg version="1.1" id="Sloth" xmlns="http://www.w3.org/2000/svg" xmlns:xlink="http://www.w3.org/1999/xlink" x="0px" y="0px"
	 viewBox="0 0 365.8 365.8" enable-background="new 0 0 365.8 365.8" xml:space="preserve">
<path fill="#FFFFFF" d="M40.3,104.3c39.9-18.6,32,1.4,73.4-30.9s82-40.9,104-32.6s55.8,6.1,77.8,12.5c22,6.4,44.5,33.8,54.3,54.2
	c9.8,20.4,14.6,167.8-20.7,181.5c-35.2,13.7-100.4-22.1-171.1,22.5s-73.9-0.3-105.5-24.3c-31.7-24-54.9-75-49.2-110
	C15.9,129.9,24.9,112.8,40.3,104.3z"/>
<g>
	<path fill="none" stroke="#000000" stroke-width="0.25" stroke-miterlimit="10" d="M262.4,262.5"/>
	<path fill="none" stroke="#000000" stroke-width="0.25" stroke-miterlimit="10" d="M266,264.5"/>
	<path fill="none" stroke="#000000" stroke-width="0.25" stroke-miterlimit="10" d="M271.1,265.5c-0.3,0-0.7-0.1-1-0.1"/>
	<path fill="none" stroke="#000000" stroke-width="0.25" stroke-miterlimit="10" d="M271.1,265.5"/>
	<path fill="none" stroke="#000000" stroke-width="0.25" stroke-miterlimit="10" d="M173.4,281.3"/>
	<path fill="none" stroke="#000000" stroke-width="0.25" stroke-miterlimit="10" d="M178.5,281.9c-0.4,0-0.8,0-1.2,0"/>
	<path fill="none" stroke="#000000" stroke-width="0.25" stroke-miterlimit="10" d="M178.5,281.9"/>
	<path fill="none" stroke="#000000" stroke-width="0.25" stroke-miterlimit="10" d="M183.7,280.5c-0.3,0.1-0.6,0.3-0.9,0.4"/>
	<path fill="none" stroke="#000000" stroke-width="0.25" stroke-miterlimit="10" d="M183.7,280.5"/>
	<g id="XMLID_3_">
		<g>
			<path fill="#E6E6E6" d="M111.4,204.4l39.7,2.8c-6.8,34.7,2.8,66.5,2.8,66.5c-3.7,8.7-14.3,5.4-14.3,5.4
				C125.9,277.8,111.4,204.4,111.4,204.4z"/>
		</g>
		<g>
			<path fill="none" stroke="#000000" stroke-width="0.25" stroke-miterlimit="10" d="M151,207.3l-39.7-2.8c0,0,14.5,73.4,28.2,74.7
				c0,0,10.7,3.3,14.3-5.4C153.9,273.7,144.2,242,151,207.3z"/>
		</g>
	</g>
	<path fill="none" stroke="#000000" stroke-width="0.25" stroke-miterlimit="10" d="M140.5,279.4c0,0,6,7.6,8.8,6.3
		c-0.1-2-3.3-2.8-4.1-6"/>
	<path fill="none" stroke="#000000" stroke-width="0.25" stroke-miterlimit="10" d="M146,279.7c0.6,1.1,6.6,9,8.7,7.5
		c0.3-1.3-5.6-6.7-5.5-8.4"/>
	<path fill="none" stroke="#000000" stroke-width="0.25" stroke-miterlimit="10" d="M150.5,278c0.2,1.3,2.6,5.1,4.5,6
		c0.7-0.8-2.3-4.7-2.5-7.8"/>
	<path fill="none" stroke="#000000" stroke-width="0.25" stroke-miterlimit="10" d="M178.5,281.9"/>
	<path fill="none" stroke="#000000" stroke-width="0.25" stroke-miterlimit="10" d="M182.8,280.9"/>
	<path fill="none" stroke="#000000" stroke-width="0.25" stroke-miterlimit="10" d="M234.6,253.4c0,0,1.6,4.1,4.2,6.5
		c-0.1,0.8-5.9-1.1-8.4-7.5"/>
	<path fill="none" stroke="#000000" stroke-width="0.25" stroke-miterlimit="10" d="M235.9,253.6c0,0,6.1,9.8,8,8.2
		c-0.5-2.6-3.8-6-4.2-8.3"/>
	<path fill="none" stroke="#000000" stroke-width="0.25" stroke-miterlimit="10" d="M240.9,253.2c0,0,2.8,6.1,3.8,5.3
		s-2.1-6.1-2.1-6.1"/>
	<g id="XMLID_4_">
		<g>
			<path fill="#CCCCCC" d="M362.5,185.1c-0.6,12.1-10.9,12.8-10.9,12.8c-14.4,1.5-29.8,2.9-45.8,4.1c1.5-8.6,2.5-18.5,2.6-29.3
				c7.8-1,35.9-4,41-5.1C357.2,167.6,362.5,173.4,362.5,185.1z"/>
			<path fill="#E6E6E6" d="M201.8,190.9c0,0,0.2,7.7-1.2,17.5c-1,6.9-2.7,14.8-5.8,21.7c0,0-3.6,17.1-5.9,46.6c0,0-0.7,0.8-2,1.8h0
				c0,0,0,0,0,0c0.2-2.9-1.6-2.8-1.6-2.8s-3.2-0.3-1.7,4.7c0,0,0,0,0,0.1l-0.8,0.2c-1.4-5.7-3.1-5.3-3.1-5.3s-3.4-0.6-1.6,5.6
				c0,0.1,0.1,0.1,0.1,0.2l-1,0.3c-1.3-4.1-2.4-4.2-2.4-4.2s-2.2-0.2-1.2,4l-0.1,0c-0.6-0.2-1.3-0.5-2-0.8c-4.1-6.1-6.1-22-6.9-30.3
				l-3.8-61c0,0-18.7-5.2-46.5,0.7c0,0-47.9,8-60.7-25.3c0,0-11.4-42.1,40.2-48.7c0,0,12.9-3.1,40.6,6.6l10.7,3.7l4.6-1.3
				c0,0,35.4-50.9,80.2-51.3c0,0,53.4-1.7,70.8,49.2c5.9,17.3,7.9,34.5,7.8,50c-0.1,10.8-1.2,20.8-2.6,29.3
				c-2.6,15.3-6.5,26.1-8.1,29.3c-3.8,7.5-13,23.7-22.6,34.3c0,0-0.1,0-0.3,0c0.6-1.3,1-2.7,0.9-3.2c-0.1-0.9-0.7-1.6-1.9-1.3
				c-0.5,0-1.2,1-1.8,2.2l-0.7-0.3c0.2-0.4,0.4-0.8,0.5-1.1c0.9-2.1-0.9-3.8-2-3.3c-2,0.6-1.6,3.3-4.5,7.8l-0.8-0.5
				c1.1-1.9,1.9-4.1,1.8-5c0,0,0-1,0-1c-0.1-1-0.5-3.5-2.3-2.8c-1.4,0.6-1.4,3.3-1.6,5.4c-0.8-0.7-1.4-1.6-1.7-2.6
				c0,0,1.3-20.1,10-41.5c0,0,0.7-5.5,0-12.8c-0.7-6.6-2.5-14.6-7.1-21.1c0,0-19.8,8.6-33,3.6C219.9,187.4,209.4,192.9,201.8,190.9z
				"/>
			<path fill="#CCCCCC" d="M270.7,205.6h-17.3l-30.6,1.3c0,0-16.1,2-22.1,1.5c1.4-9.8,1.2-17.5,1.2-17.5c7.5,2,18.1-3.5,28.8-2.9
				c13.1,5,33-3.6,33-3.6C268.2,191,270,199,270.7,205.6z"/>
			<path fill="#E6E6E6" d="M222.8,206.9l30.6-1.3c-14.5,31.1-8.3,32-8.6,42.2c-0.3,9.6-14.5,4.7-15.9,4.2c-0.1,0-0.2-0.1-0.2-0.2
				C214.2,236.9,222.8,206.9,222.8,206.9z"/>
		</g>
		<g>
			<path fill="none" stroke="#000000" stroke-width="0.25" stroke-miterlimit="10" d="M222.8,206.9c0,0-8.6,30,6,45
				c0.1,0.1,0.1,0.1,0.2,0.2c1.4,0.5,15.6,5.4,15.9-4.2c0.3-10.1-5.9-11.1,8.6-42.2L222.8,206.9z"/>
			<path fill="none" stroke="#000000" stroke-width="0.25" stroke-miterlimit="10" d="M262.4,262.5
				C262.4,262.5,262.3,262.5,262.4,262.5c-0.9-0.8-1.4-1.6-1.7-2.7c0,0,1.3-20.1,10-41.5c0,0,0.7-5.5,0-12.8
				c-0.7-6.6-2.5-14.6-7.1-21.1c0,0-19.8,8.6-33,3.6c-10.7-0.6-21.2,4.9-28.8,2.9c-0.6-0.2-1.8-1.1-2.2-1.5"/>
			<path fill="none" stroke="#000000" stroke-width="0.25" stroke-miterlimit="10" d="M173.4,281.3c-0.6-0.2-1.3-0.5-2-0.8
				c-4.1-6.1-6.1-22-6.9-30.3l-3.8-61c0,0-18.7-5.2-46.5,0.7c0,0-47.9,8-60.7-25.3c0,0-11.4-42.1,40.2-48.7c0,0,12.9-3.1,40.6,6.6
				l10.7,3.7l4.6-1.3c0,0,35.4-50.9,80.2-51.3c0,0,53.4-1.7,70.8,49.2c5.9,17.3,7.9,34.5,7.8,50c-0.1,10.8-1.2,20.8-2.6,29.3
				c-2.6,15.3-6.5,26.1-8.1,29.3c-3.8,7.5-13,23.7-22.6,34.3c0,0-0.1,0-0.3,0c0,0-0.1,0-0.1,0"/>
			<path fill="none" stroke="#000000" stroke-width="0.25" stroke-miterlimit="10" d="M201.8,190.9c0,0,0.2,7.7-1.2,17.5
				c-1,6.9-2.7,14.8-5.8,21.7c0,0-3.6,17.1-5.9,46.6c0,0-0.7,0.8-2,1.8"/>
			<path fill="none" stroke="#000000" stroke-width="0.25" stroke-miterlimit="10" d="M173.5,281.3c-1-4.2,1.2-4,1.2-4
				s1.2,0.2,2.4,4.2c0,0.1,0.1,0.2,0.1,0.4c0,0,0.7,1.5,1.5,3.3c0.8,1.7,1.8,3.7,2.5,4.7c-3.7,0.6-7.1-6.4-7.3-6.8c0,0,0,0,0-0.1
				C173.8,282.3,173.6,281.8,173.5,281.3"/>
			<path fill="none" stroke="#000000" stroke-width="0.25" stroke-miterlimit="10" d="M182.8,280.7c0,0.1,0,0.1,0,0.2
				c0.3,2.9,2.8,9.4,3.6,11.1c0.1,0.2-0.1,0.4-0.3,0.3c-3-1-7.5-10.1-8-11.1c0-0.1-0.1-0.1-0.1-0.2c-1.7-6.2,1.6-5.6,1.6-5.6
				S181.4,275.1,182.8,280.7z"/>
			<path fill="none" stroke="#000000" stroke-width="0.25" stroke-miterlimit="10" d="M186.9,278.5c0,0.5-0.1,7.4,1,10.5
				c-1.8,0.3-4.1-7.5-4.3-8.5c0-0.1,0-0.1,0-0.1c-1.5-5,1.7-4.7,1.7-4.7S187.1,275.6,186.9,278.5
				C186.9,278.5,186.9,278.5,186.9,278.5z"/>
			<path fill="none" stroke="#000000" stroke-width="0.25" stroke-miterlimit="10" d="M264.4,265.9c-0.4,0.6-0.8,1.1-1.2,1.6
				c-1.8,1.9-3.6,2.7-3.6,2.7c-0.5,0.1,2-4.2,2.5-5.9c0.1-0.4,0.2-1.1,0.2-1.8c0.1-2.1,0.2-4.8,1.6-5.4c1.8-0.7,2.2,1.8,2.3,2.8
				c0,0,0,1,0,1C266.3,261.8,265.5,264,264.4,265.9z"/>
			<path fill="none" stroke="#000000" stroke-width="0.25" stroke-miterlimit="10" d="M271.2,263c-1,2.1-2.5,4.9-4,6.3
				c-1.8,1.6-5.8,5.4-7.1,4.5c-0.7-0.5,3.4-5.1,4.9-7.1c0.1-0.1,0.1-0.2,0.2-0.3c2.9-4.4,2.5-7.2,4.5-7.8c1.1-0.5,2.9,1.2,2,3.3
				C271.6,262.3,271.4,262.6,271.2,263z"/>
			<path fill="none" stroke="#000000" stroke-width="0.25" stroke-miterlimit="10" d="M274.7,265.7c-0.5,1.1-1,2.2-1.4,2.7
				c-0.7,1.1-7,5.3-7.6,4.2c-0.4-0.7,4-4,4.3-5.2c0.3-0.6,1.1-2.5,1.9-4.1c0.6-1.2,1.3-2.2,1.8-2.2c1.2-0.3,1.8,0.5,1.9,1.3
				C275.8,263,275.3,264.4,274.7,265.7z"/>
			<line fill="none" stroke="#000000" stroke-width="0.25" stroke-miterlimit="10" x1="270.7" y1="205.6" x2="253.4" y2="205.6"/>
			<path fill="none" stroke="#000000" stroke-width="0.25" stroke-miterlimit="10" d="M222.8,206.9c0,0-16.1,2-22.1,1.5"/>
			<path fill="none" stroke="#000000" stroke-width="0.25" stroke-linecap="round" stroke-miterlimit="10" d="M214.2,200.7
				c24.3-2.2,45.4-0.5,45.4-0.5"/>
			<path fill="none" stroke="#000000" stroke-width="0.25" stroke-miterlimit="10" d="M308.4,172.7c7.8-1,35.9-4,41-5.1
				c0.1,0,0.2-0.1,0.3-0.1"/>
			<path fill="none" stroke="#000000" stroke-width="0.25" stroke-linecap="round" stroke-miterlimit="10" d="M333.1,179.4
				c11.6-1.6,17.4,0,17.4,0"/>
			<path fill="none" stroke="#000000" stroke-width="0.25" stroke-linecap="round" stroke-miterlimit="10" d="M341,191.8
				c-17.8-0.8-21.9,0-21.9,0"/>
			<path fill="none" stroke="#000000" stroke-width="0.25" stroke-miterlimit="10" d="M349.4,167.6c7.7,0,13,5.8,13,17.5
				c-0.6,12.1-10.9,12.8-10.9,12.8c-14.4,1.5-29.8,2.9-45.8,4.1"/>
		</g>
	</g>
	<g id="XMLID_1_">
		<g>
			<path fill="#F2F2F2" d="M96.5,160c-4-0.1-6.2,2-7.1,3.2c-0.4,0.6-0.5,1.3-0.1,1.9c0.6,1,2.3,2.6,6.1,3.3c0.7,0.1,1.5,0.1,2.2,0
				c2.4-0.4,5.3-1,6.3-4c0.1-0.5,0.1-1-0.2-1.4C101.7,159.9,96.5,160,96.5,160z M91.5,176c-2.4,2,13.1,10.3,21.9-2.7
				c0.6-1,0-2.2-1.3-2.1C107.7,175.5,101,177.4,91.5,176z M136.6,163.5c0.7,0.2,1.3,0.5,1.9,0.6c0,0-8.9,22.4-39,22.4
				c-30.1,0-37.9-23.6-37.9-23.6c0.8-0.2,1.4-0.4,1.9-0.5c1.8-0.4,5.6-4.3,19.8-3c8.7,0.1,10.2-5.9,10.4-7.6c0-0.3,0-0.6,0-0.9
				c-0.3-2.3-2.9-11.5-24.3-6.9c0,0-2.8,0.7-6,2.5c12-29.9,36.1-10.6,36.1-10.6s26.7-20.8,40.8,13.8c-1-0.8-2.4-1.7-4.1-2.5
				c-7.8-3.8-15.4-3.7-15.4-3.7c-13.4,0.1-13.9,7.3-13.9,7.8c0,0,0,0,0,0.1c0,11,16.4,9,17.9,8.8c0.1,0,0.2,0,0.2,0
				C125.9,160.2,129.7,160.6,136.6,163.5z"/>
			<path fill="#808080" d="M113.3,173.2c-8.7,13-24.2,4.7-21.9,2.7c9.6,1.4,16.2-0.5,20.5-4.8C113.3,171,114,172.2,113.3,173.2z"/>
			<path fill="#B3B3B3" d="M143.6,153.1c1.3,2,8.9,15.1-5,11c-0.6-0.2-1.3-0.4-1.9-0.6c-7-2.8-10.7-3.3-11.5-3.3c-0.1,0-0.2,0-0.2,0
				c-1.5,0.2-17.9,2.2-17.9-8.8c0,0,0,0,0-0.1c0-0.5,0.5-7.7,13.9-7.8c0,0,7.7-0.2,15.4,3.7c1.7,0.8,3,1.7,4.1,2.5
				C142.7,151.4,143.6,153,143.6,153.1z"/>
			<path d="M103.8,163c0.3,0.4,0.3,0.9,0.2,1.4c-0.9,3-3.9,3.6-6.3,4c-0.7,0.1-1.5,0.2-2.2,0c-3.9-0.7-5.5-2.3-6.1-3.3
				c-0.4-0.6-0.3-1.4,0.1-1.9c0.9-1.2,3-3.3,7.1-3.2C96.5,160,101.7,159.9,103.8,163z"/>
			<path fill="#B3B3B3" d="M93.9,150.9c0,0.3,0,0.6,0,0.9c-0.2,1.7-1.7,7.7-10.4,7.6c-14.2-1.3-18,2.6-19.8,3
				c-0.5,0.1-1.2,0.3-1.9,0.5c-1.4,0.3-3,0.6-4.7-0.2c-1.5-0.7-2.4-2.2-2.3-3.9c0.5-6.4,4.9-10.3,8.8-12.5v0c3.2-1.8,6-2.5,6-2.5
				C91.1,139.4,93.6,148.6,93.9,150.9z"/>
		</g>
		<g>
			<path fill="none" stroke="#000000" stroke-width="0.25" stroke-miterlimit="10" d="M95.5,168.4c-3.9-0.7-5.5-2.3-6.1-3.3
				c-0.4-0.6-0.3-1.4,0.1-1.9c0.9-1.2,3-3.3,7.1-3.2c0,0,5.1-0.1,7.3,3c0.3,0.4,0.3,0.9,0.2,1.4c-0.9,3-3.9,3.6-6.3,4
				C97,168.5,96.2,168.6,95.5,168.4z"/>
			<path fill="none" stroke="#808080" stroke-miterlimit="10" d="M112,171.1c1.3-0.2,2,1.1,1.3,2.1c-8.7,13-24.2,4.7-21.9,2.7
				C101,177.4,107.7,175.5,112,171.1z"/>
			<path fill="none" stroke="#000000" stroke-width="0.25" stroke-miterlimit="10" d="M63.6,146.4c-3.9,2.2-8.4,6.1-8.8,12.5
				c-0.1,1.6,0.8,3.2,2.3,3.9c1.7,0.7,3.4,0.5,4.7,0.2c0.8-0.2,1.4-0.4,1.9-0.5c1.8-0.4,5.6-4.3,19.8-3c8.7,0.1,10.2-5.9,10.4-7.6
				c0-0.3,0-0.6,0-0.9c-0.3-2.3-2.9-11.5-24.3-6.9C69.6,143.9,66.7,144.6,63.6,146.4"/>
			<path fill="none" stroke="#000000" stroke-width="0.25" stroke-miterlimit="10" d="M138.6,164.1c-0.6-0.2-1.3-0.4-1.9-0.6
				c-7-2.8-10.7-3.3-11.5-3.3c-0.1,0-0.2,0-0.2,0c-1.5,0.2-17.9,2.2-17.9-8.8c0,0,0,0,0-0.1c0-0.5,0.5-7.7,13.9-7.8
				c0,0,7.7-0.2,15.4,3.7c1.7,0.8,3,1.7,4.1,2.5c2.3,1.8,3.1,3.4,3.2,3.5C144.9,155.1,152.5,168.2,138.6,164.1z"/>
			<path fill="none" stroke="#000000" stroke-width="0.25" stroke-miterlimit="10" d="M63.6,146.4L63.6,146.4
				c12-29.9,36.1-10.7,36.1-10.7s26.7-20.8,40.8,13.8"/>
			<path fill="none" stroke="#000000" stroke-width="0.25" stroke-miterlimit="10" d="M138.6,164.1c0,0-8.9,22.4-39,22.4
				c-30.1,0-37.9-23.6-37.9-23.6"/>
		</g>
	</g>
	<path fill="none" stroke="#000000" stroke-width="0.25" stroke-miterlimit="10" d="M138.1,142.7"/>
	<path d="M86.2,150.6c-0.4-1.7-2-2.7-3.5-2.3c-1.5,0.4-2.3,2.1-1.9,3.7s2,2.7,3.5,2.3C85.8,153.9,86.6,152.3,86.2,150.6z
		 M82.6,151.6c-0.5,0-0.9-0.6-0.9-1.3s0.4-1.3,0.9-1.3c0.5,0,0.9,0.6,0.9,1.3S83.1,151.6,82.6,151.6z"/>
	<path d="M119.2,151.1c-0.4-1.7-2-2.7-3.5-2.3c-1.5,0.4-2.3,2.1-1.9,3.7s2,2.7,3.5,2.3C118.8,154.4,119.6,152.8,119.2,151.1z
		 M115.6,152.1c-0.5,0-0.9-0.6-0.9-1.3s0.4-1.3,0.9-1.3c0.5,0,0.9,0.6,0.9,1.3S116.1,152.1,115.6,152.1z"/>
	<path fill="none" stroke="#000000" stroke-width="0.25" stroke-miterlimit="10" d="M99.6,135.8"/>
	<g id="XMLID_5_">
		<g>
			<path fill="#CCCCCC" d="M160.8,189.2l1.2,19.3c0,0-5.8,0.1-10.9-1.2l-39.7-2.8c-5.6,0-53.4-2.1-53.4-2.1h-4
				c0,0-1.7,14.5-12.4,13.6c0,0-1.7-7.6,3.3-11c0,0-6.8,2-9.2,6.1l-5.1-1.5c1.3-2.3,9.7-9.6,16.6-10.3c-3.4-0.9-14.3-3-28.1-5.8
				c0,0,5,0.6,6.4-7c0,0,0.9-7.1-5.2-8.7c0.8-0.2,1.4-0.2,1.4-0.2c5.6,0,28.1,6.4,50.1,6.9c0,0,16.7,9.1,42.5,5.4
				C138.1,185.6,149.9,186.6,160.8,189.2z"/>
			<path fill="#CCCCCC" d="M38,273c-12.7,0.3-17.6-24.4-17.6-24.4l3.1-1.3c0.1,0.2,0.2,0.5,0.3,0.7C26.4,252.8,37.1,246.9,38,273z"
				/>
			<path fill="#CCCCCC" d="M35.8,211c0,0,2.7,10.3-2.1,17.5c0,0-3.6,0.5-4.2-10.2c0,0-0.9,1.7-1.9,4.2l-4.1-0.1
				c0.9-4.1,1.5-4.7,1.5-4.7s-7.6-1.1-13.6,4.6c-0.1,0.1-0.2,0.1-0.2,0.1c-0.2,0-0.4-0.2-0.3-0.4c2-12,11.7-13.5,19.8-12.5L35.8,211
				z"/>
			<path fill="#CCCCCC" d="M25,231.7c0,0,11.9-5.7,12.6,20.7c0,0-14.6-3.3-14.1-15.9c0,0-0.3,1-0.6,2.6l-3.9-0.4
				c0.3-2.2,1-5,2.1-6.8c0,0,0,0,0,0L25,231.7z"/>
			<path fill="#CCCCCC" d="M23.5,222.5l4.1,0.1c-1,2.5-2.1,5.8-2.6,9.1l-3.9,0.2c0,0,0,0,0,0c-0.5,0.5-8,8.2-14.7,8.7
				c0,0,0.5-7.9,8.5-13.8C17.1,225.1,19.9,223.6,23.5,222.5z"/>
			<path fill="#E6E6E6" d="M20.4,177.7c6.1,1.7,5.2,8.7,5.2,8.7c-1.4,7.6-6.4,7-6.4,7s-5.4-1-5.2-7.9
				C14.2,179.8,18.2,178.2,20.4,177.7L20.4,177.7z M19.9,185.4c0-0.7-0.4-1.3-0.9-1.3c-0.5,0-0.9,0.6-0.9,1.3s0.4,1.3,0.9,1.3
				C19.6,186.7,19.9,186.1,19.9,185.4z"/>
			<path fill="#CCCCCC" d="M23.5,247.3l-3.1,1.3c0,0,1,14.3-17.1,17.1c0,0,5.6-23.2,15.3-23.6c0,0,0.1-1.5,0.3-3.4l3.9,0.4
				C22.5,241.3,22.3,244.5,23.5,247.3z"/>
			<path fill="#E6E6E6" d="M19.1,184.1c0.5,0,0.9,0.6,0.9,1.3s-0.4,1.3-0.9,1.3c-0.5,0-0.9-0.6-0.9-1.3S18.6,184.1,19.1,184.1z"/>
		</g>
		<g>
			<path fill="none" stroke="#000000" stroke-width="0.25" stroke-linecap="round" stroke-miterlimit="10" d="M149.8,197.2
				c-19,0.2-23.7,1.6-23.7,1.6"/>
			<path fill="none" stroke="#000000" stroke-width="0.25" stroke-linecap="round" stroke-miterlimit="10" d="M99.1,197.8
				c-9-1-21.5-0.4-21.5-0.4"/>
			<path fill="none" stroke="#000000" stroke-width="0.25" stroke-linecap="round" stroke-miterlimit="10" d="M73,191.4
				c-7.6-1.7-11.3-1.3-11.3-1.3"/>
			<path fill="none" stroke="#000000" stroke-width="0.25" stroke-linecap="round" stroke-miterlimit="10" d="M54.4,192.7
				c-16.7-4.9-23.7-5.3-23.7-5.3"/>
			<path fill="none" stroke="#000000" stroke-width="0.25" stroke-miterlimit="10" d="M20.3,177.7c-2.1,0.4-6.1,2-6.4,7.9
				c-0.2,6.9,5.2,7.9,5.2,7.9c13.8,2.8,24.6,4.9,28.1,5.8c-6.9,0.6-15.4,8-16.6,10.3c-8.2-1-17.8,0.5-19.8,12.5
				c0,0.2,0.1,0.4,0.3,0.4c0.1,0,0.2,0,0.2-0.1c6.1-5.7,13.6-4.6,13.6-4.6s-0.5,0.6-1.5,4.7c-3.6,1.1-6.4,2.7-8.7,4.3
				c-8,5.9-8.5,13.8-8.5,13.8c6.7-0.5,14.3-8.2,14.7-8.7"/>
			<path fill="none" stroke="#000000" stroke-width="0.25" stroke-miterlimit="10" d="M21.1,231.9C21.1,231.9,21.1,231.9,21.1,231.9
				c-1.2,1.9-1.9,4.6-2.2,6.8c-0.3,1.9-0.3,3.4-0.3,3.4c-9.7,0.4-15.3,23.6-15.3,23.6c18.1-2.7,17.1-17.1,17.1-17.1
				S25.3,273.3,38,273c-0.9-26.1-11.5-20.2-14.2-25c-0.1-0.2-0.2-0.5-0.3-0.7c-1.2-2.8-1-6-0.7-8.3c0.2-1.5,0.6-2.6,0.6-2.6
				c-0.5,12.6,14.1,15.9,14.1,15.9C36.9,225.9,25,231.7,25,231.7c0.5-3.3,1.6-6.6,2.6-9.1c1-2.5,1.9-4.2,1.9-4.2
				c0.6,10.7,4.2,10.2,4.2,10.2c4.8-7.2,2.1-17.5,2.1-17.5C38.2,207,45,205,45,205c-5,3.3-3.3,11-3.3,11
				c10.7,0.9,12.4-13.6,12.4-13.6h4c0,0,47.8,2.1,53.4,2.1l39.7,2.8c5.1,1.3,10.9,1.2,10.9,1.2l-1.2-19.3
				c-10.8-2.5-22.6-3.6-46.5,0.7c-25.8,3.7-42.5-5.4-42.5-5.4c-21.9-0.5-44.5-6.9-50.1-6.9c0,0-0.6,0-1.4,0.2"/>
			<path fill="none" stroke="#000000" stroke-width="0.25" stroke-miterlimit="10" d="M19.2,193.5c0,0,5,0.6,6.4-7
				c0,0,0.9-7.1-5.2-8.7h0"/>
			<path fill="none" stroke="#000000" stroke-width="0.11" stroke-miterlimit="10" d="M17.3,188.7c0,0-3.5-3.7,0.9-7.3"/>
			<path fill="none" stroke="#000000" stroke-width="0.11" stroke-miterlimit="10" d="M19.5,180.2c2.2,0.3,4,2.2,4,5.8
				c-0.2,3.2-3.9,4.3-3.9,4.3"/>
			<path fill="none" stroke="#000000" stroke-width="0.11" stroke-miterlimit="10" d="M19.7,182.8c0,0,1.9-0.1,1.9,2.4
				c0,2.5-1.9,2.8-1.9,2.8"/>
			<path fill="none" stroke="#000000" stroke-width="0.11" stroke-miterlimit="10" d="M18.2,185.4c0,0.7,0.4,1.3,0.9,1.3
				c0.5,0,0.9-0.6,0.9-1.3s-0.4-1.3-0.9-1.3C18.6,184.1,18.2,184.7,18.2,185.4z"/>
		</g>
	</g>
	<path fill="none" stroke="#FFFFFF" stroke-width="2" stroke-linecap="round" stroke-miterlimit="10" d="M97,126.1
		c-2.9-0.6-4.9,1.8-4.9,1.8"/>
	<path fill="none" stroke="#FFFFFF" stroke-width="2" stroke-linecap="round" stroke-miterlimit="10" d="M61.5,139.8
		c-2.9,0.6-3.8,3.6-3.8,3.6"/>
	<path fill="none" stroke="#FFFFFF" stroke-width="2" stroke-linecap="round" stroke-miterlimit="10" d="M79.3,124.8
		c-3-0.2-4.6,2.4-4.6,2.4"/>
	<path fill="none" stroke="#FFFFFF" stroke-width="2" stroke-linecap="round" stroke-miterlimit="10" d="M115.6,123.8
		c-2-2.2-5-1.5-5-1.5"/>
	<path fill="none" stroke="#FFFFFF" stroke-width="2" stroke-linecap="round" stroke-miterlimit="10" d="M131,129.3
		c-1.5-2.6-4.5-2.5-4.5-2.5"/>
	<path fill="none" stroke="#FFFFFF" stroke-width="2" stroke-linecap="round" stroke-miterlimit="10" d="M271.7,125.1
		c2-4.6,8.2-9.3,8.2-9.3"/>
	<path fill="none" stroke="#FFFFFF" stroke-width="2" stroke-linecap="round" stroke-miterlimit="10" d="M195,161.8
		c3.9-3.1,11.5-4.4,11.5-4.4"/>
	<path fill="none" stroke="#FFFFFF" stroke-width="2" stroke-linecap="round" stroke-miterlimit="10" d="M270,157
		c3.5-3.6,8.1-14.7,8.1-14.7"/>
	<path fill="none" stroke="#FFFFFF" stroke-width="2" stroke-linecap="round" stroke-miterlimit="10" d="M239.3,146.1
		c4.4-2.3,12.4-11.4,12.4-11.4"/>
	<path fill="none" stroke="#FFFFFF" stroke-width="2" stroke-linecap="round" stroke-miterlimit="10" d="M245.7,178.6
		c4.3-2.5,11.7-12.1,11.7-12.1"/>
	<path fill="none" stroke="#FFFFFF" stroke-width="2" stroke-linecap="round" stroke-miterlimit="10" d="M207.4,103.9
		c3.3-3.7,7.5-15,7.5-15"/>
	<path fill="none" stroke="#FFFFFF" stroke-width="2" stroke-linecap="round" stroke-miterlimit="10" d="M276.6,187.7
		c2-4.6,8.2-9.3,8.2-9.3"/>
	<path fill="none" stroke="#FFFFFF" stroke-width="2" stroke-linecap="round" stroke-miterlimit="10" d="M229.8,171.6
		c2-4.6,8.2-9.3,8.2-9.3"/>
	<path fill="none" stroke="#FFFFFF" stroke-width="2" stroke-linecap="round" stroke-miterlimit="10" d="M186.9,121.9
		c2.1-4.5,8.4-9.1,8.4-9.1"/>
	<path fill="none" stroke="#FFFFFF" stroke-width="2" stroke-linecap="round" stroke-miterlimit="10" d="M214.2,148.8
		c1.5-4.7,7.1-10.1,7.1-10.1"/>
	<path fill="none" stroke="#FFFFFF" stroke-width="2" stroke-linecap="round" stroke-miterlimit="10" d="M246.7,104.3
		c0.8-4.9,5.5-11,5.5-11"/>
	<path fill="none" stroke="#FFFFFF" stroke-width="2" stroke-linecap="round" stroke-miterlimit="10" d="M302.8,178.6
		c0,0-7.2,10.3-7.3,15.3"/>
	<path fill="none" stroke="#FFFFFF" stroke-width="2" stroke-linecap="round" stroke-miterlimit="10" d="M286.9,166.3
		c0.9-4.9,10.9-10.4,10.9-10.4"/>
	<path fill="none" stroke="#FFFFFF" stroke-width="2" stroke-linecap="round" stroke-miterlimit="10" d="M226.4,129.9
		c2-4.6,13-7.6,13-7.6"/>
	<path fill="none" stroke="#FFFFFF" stroke-width="2" stroke-linecap="round" stroke-miterlimit="10" d="M225.8,92.9
		c1.2-4.8,11.5-9.8,11.5-9.8"/>
	<path fill="none" stroke="#FFFFFF" stroke-width="2" stroke-linecap="round" stroke-miterlimit="10" d="M187.6,182
		c1.4-4.8,6.8-10.3,6.8-10.3"/>
	<path fill="none" stroke="#FFFFFF" stroke-width="2" stroke-linecap="round" stroke-miterlimit="10" d="M169,160
		c3.9-3.2,11.4-4.6,11.4-4.6"/>
	<path fill="none" stroke="#FFFFFF" stroke-width="2" stroke-linecap="round" stroke-miterlimit="10" d="M171.7,200.2
		c3.4-3.6,10.8-6,10.8-6"/>
	<path fill="none" stroke="#FFFFFF" stroke-width="2" stroke-linecap="round" stroke-miterlimit="10" d="M143.9,137.7
		c4.1-2.9,11.7-3.9,11.7-3.9"/>
	<path fill="none" stroke="#FFFFFF" stroke-width="2" stroke-linecap="round" stroke-miterlimit="10" d="M157.8,143.5
		c4.1-2.9,11.7-3.9,11.7-3.9"/>
	<path fill="none" stroke="#FFFFFF" stroke-width="2" stroke-linecap="round" stroke-miterlimit="10" d="M193.3,135.5
		c3.6-3.5,11-5.5,11-5.5"/>
	<path fill="none" stroke="#FFFFFF" stroke-width="2" stroke-linecap="round" stroke-miterlimit="10" d="M146.8,177.3
		c3.7-3.3,11.2-5.2,11.2-5.2"/>
	<path fill="none" stroke="#FFFFFF" stroke-width="2" stroke-linecap="round" stroke-miterlimit="10" d="M123.4,213.9
		c4.9,1.1,10.7,6.2,10.7,6.2"/>
	<path fill="none" stroke="#FFFFFF" stroke-width="2" stroke-linecap="round" stroke-miterlimit="10" d="M126.5,234.2
		c4.9-1.1,12.3,1,12.3,1"/>
	<path fill="none" stroke="#FFFFFF" stroke-width="2" stroke-linecap="round" stroke-miterlimit="10" d="M135.1,261.6
		c3.4-3.7,10.7-6.1,10.7-6.1"/>
	<path fill="none" stroke="#FFFFFF" stroke-width="2" stroke-linecap="round" stroke-miterlimit="10" d="M179.2,225.5
		c2.4-4.4,8.9-8.5,8.9-8.5"/>
	<path fill="none" stroke="#FFFFFF" stroke-width="2" stroke-linecap="round" stroke-miterlimit="10" d="M173.8,252.5
		c3.3-3.7,10.6-6.4,10.6-6.4"/>
	<path fill="none" stroke="#FFFFFF" stroke-width="2" stroke-linecap="round" stroke-miterlimit="10" d="M226.4,228.1
		c2-4.6,8.2-9.3,8.2-9.3"/>
	<path fill="none" stroke="#FFFFFF" stroke-width="2" stroke-linecap="round" stroke-miterlimit="10" d="M283.9,239
		c0,0-8.4-4.5-7.9-9.5"/>
	<path fill="none" stroke="#FFFFFF" stroke-width="2" stroke-linecap="round" stroke-miterlimit="10" d="M281.5,212.9
		c-2.1-4.5-1.6-12.2-1.6-12.2"/>
	<path fill="none" stroke="#000000" stroke-width="0.25" stroke-miterlimit="10" d="M266.2,264.5c-0.6-0.2-0.2,0-1-0.4L266.2,264.5z
		"/>
</g>
</svg>
