<?xml version="1.0" encoding="utf-8"?>
<!-- Generator: Adobe Illustrator 23.0.2, SVG Export Plug-In . SVG Version: 6.00 Build 0)  -->
<svg version="1.1" baseProfile="tiny" id="Layer_3" xmlns="http://www.w3.org/2000/svg" xmlns:xlink="http://www.w3.org/1999/xlink"
	 x="0px" y="0px" viewBox="0 0 365.8 365.8" xml:space="preserve">
<g>
	<g transform="translate(-39.000000, -164.000000)">
		<path d="M85.4,301.5h288.9v174.9c0,8.4-6.8,15.2-15.2,15.2H100.6c-8.4,0-15.2-6.8-15.2-15.2V301.5z M85.4,255.9
			c0-8.4,6.8-15.2,15.2-15.2h38v3.8c0,14.7,11.9,26.6,26.6,26.6s26.6-11.9,26.6-26.6v-3.8h76v3.8c0,14.7,11.9,26.6,26.6,26.6
			s26.6-11.9,26.6-26.6v-3.8h38c8.4,0,15.2,6.8,15.2,15.2v30.4H85.4V255.9z M153.8,214.1c0-6.3,5.1-11.4,11.4-11.4
			s11.4,5.1,11.4,11.4v30.4c0,6.3-5.1,11.4-11.4,11.4s-11.4-5.1-11.4-11.4V214.1z M283,214.1c0-6.3,5.1-11.4,11.4-11.4
			s11.4,5.1,11.4,11.4v30.4c0,6.3-5.1,11.4-11.4,11.4s-11.4-5.1-11.4-11.4V214.1z M100.6,506.8h258.5c16.8,0,30.4-13.6,30.4-30.4
			V255.9c0-16.8-13.6-30.4-30.4-30.4h-38v-11.4c0-14.7-11.9-26.6-26.6-26.6s-26.6,11.9-26.6,26.6v11.4h-76v-11.4
			c0-14.7-11.9-26.6-26.6-26.6s-26.6,11.9-26.6,26.6v11.4h-38c-16.8,0-30.4,13.6-30.4,30.4v220.5C70.1,493.1,83.8,506.8,100.6,506.8
			z"/>
	</g>
</g>
<g>
	<g>
		<path d="M191.1,160.5l15.4,47.5c0.4,1.2,1.5,2.1,2.8,2.1h49.9c2.9,0,4.1,3.7,1.8,5.4l-40.4,29.3
			c-1,0.8-1.5,2.1-1.1,3.3l15.4,47.5c0.9,2.7-2.3,5-4.6,3.3L190,269.5c-1-0.8-2.5-0.8-3.5,0l-40.4,29.3c-2.3,1.7-5.5-0.6-4.6-3.3
			l15.4-47.5c0.4-1.2,0-2.6-1.1-3.3l-40.4-29.3c-2.3-1.7-1.1-5.4,1.8-5.4h49.9c1.3,0,2.4-0.8,2.8-2.1l15.4-47.5
			C186.3,157.7,190.2,157.7,191.1,160.5z"/>
	</g>
</g>
</svg>
