<?xml version="1.0" encoding="utf-8"?>
<!-- Generator: Adobe Illustrator 23.0.2, SVG Export Plug-In . SVG Version: 6.00 Build 0)  -->
<svg version="1.1" id="Layer_3" xmlns="http://www.w3.org/2000/svg" xmlns:xlink="http://www.w3.org/1999/xlink" x="0px" y="0px"
	 viewBox="0 0 365.8 365.8" style="enable-background:new 0 0 365.8 365.8;" xml:space="preserve">
<path d="M53,340.3h258.5c16.8,0,30.4-13.6,30.4-30.4V89.4c0-16.8-13.6-30.4-30.4-30.4h-38V47.6
	c0-14.7-11.9-26.6-26.6-26.6c-14.7,0-26.6,11.9-26.6,26.6V59h-76V47.6c0-14.7-11.9-26.6-26.6-26.6S91.1,32.9,91.1,47.6V59H53
	c-16.8,0-30.4,13.6-30.4,30.4v220.5C22.6,326.6,36.3,340.3,53,340.3z"/>
<path d="M37.8,135h288.9v174.9c0,8.4-6.8,15.2-15.2,15.2H53c-8.4,0-15.2-6.8-15.2-15.2V135z"/>
<path fill="#FFFFFF" d="M37.8,89.4c0-8.4,6.8-15.2,15.2-15.2h38V78c0,14.7,11.9,26.6,26.6,26.6s26.6-11.9,26.6-26.6v-3.8h76V78
	c0,14.7,11.9,26.6,26.6,26.6c14.7,0,26.6-11.9,26.6-26.6v-3.8h38c8.4,0,15.2,6.8,15.2,15.2v30.4H37.8V89.4z"/>
<path d="M106.3,47.6c0-6.3,5.1-11.4,11.4-11.4s11.4,5.1,11.4,11.4V78c0,6.3-5.1,11.4-11.4,11.4s-11.4-5.1-11.4-11.4
	V47.6z"/>
<path d="M235.5,47.6c0-6.3,5.1-11.4,11.4-11.4c6.3,0,11.4,5.1,11.4,11.4V78c0,6.3-5.1,11.4-11.4,11.4
	c-6.3,0-11.4-5.1-11.4-11.4V47.6z"/>
<g>
	<g>
		<path fill="#FFFFFF" d="M182.6,158l15.4,47.5c0.4,1.2,1.5,2.1,2.8,2.1h49.9c2.9,0,4.1,3.7,1.8,5.4l-40.4,29.3c-1,0.8-1.5,2.1-1.1,3.3
			l15.4,47.5c0.9,2.7-2.3,5-4.6,3.3L181.5,267c-1-0.8-2.5-0.8-3.5,0l-40.4,29.3c-2.3,1.7-5.5-0.6-4.6-3.3l15.4-47.5
			c0.4-1.2,0-2.6-1.1-3.3L107,212.9c-2.3-1.7-1.1-5.4,1.8-5.4h49.9c1.3,0,2.4-0.8,2.8-2.1l15.4-47.5
			C177.8,155.2,181.7,155.2,182.6,158z"/>
	</g>
</g>
</svg>
