<?xml version="1.0" encoding="utf-8"?>
<!-- Generator: Adobe Illustrator 23.1.1, SVG Export Plug-In . SVG Version: 6.00 Build 0)  -->
<svg version="1.1" id="Layer_1" xmlns="http://www.w3.org/2000/svg" xmlns:xlink="http://www.w3.org/1999/xlink" x="0px" y="0px"
	 viewBox="0 0 5.8 26.6" style="enable-background:new 0 0 5.8 26.6;" xml:space="preserve">
<path id="Path_349" d="M5.1,18.2H0.7L0.1,0h5.6L5.1,18.2z M2.9,21.1c0.8,0,1.5,0.2,2.1,0.8
	c0.5,0.5,0.8,1.2,0.8,2c0,0.7-0.3,1.5-0.8,2c-0.6,0.5-1.3,0.8-2.1,0.8c-0.8,0-1.5-0.2-2.1-0.8c-0.5-0.5-0.8-1.2-0.8-2
	c0-0.7,0.3-1.5,0.8-2C1.4,21.3,2.1,21.1,2.9,21.1z"/>
</svg>
