<?xml version="1.0" encoding="utf-8"?>
<!-- Generator: Adobe Illustrator 23.0.2, SVG Export Plug-In . SVG Version: 6.00 Build 0)  -->
<svg version="1.1" baseProfile="tiny" id="Layer_1" xmlns="http://www.w3.org/2000/svg" xmlns:xlink="http://www.w3.org/1999/xlink"
	 x="0px" y="0px" viewBox="0 0 365.8 365.8" xml:space="preserve">
<path fill="#501214" d="M303.6,72.8h-94.3C206,58.6,193.2,48,178.1,48c-15.1,0-27.9,10.7-31.2,24.8H54.2c-4.3,0-7.8,3.5-7.8,7.8
	s3.5,7.8,7.8,7.8h92.9C150.8,102,163.3,112,178,112s27.2-10.1,30.9-23.6h94.7c4.3,0,7.8-3.5,7.8-7.8
	C311.3,76.2,307.9,72.8,303.6,72.8z M191.7,88.3c-2.8,4.6-7.8,7.6-13.7,7.6c-5.8,0-10.9-3-13.7-7.6c-1.5-2.4-2.4-5.3-2.4-8.4
	c0-2.6,0.6-5,1.7-7.2c2.6-5.3,8-8.8,14.3-8.8s11.7,3.6,14.3,8.8c1.1,2.2,1.7,4.6,1.7,7.2C194,83,193.2,85.9,191.7,88.3z"/>
<path fill="#501214" d="M311.2,179.5c0-0.2,0-0.5,0-0.7c-0.6-17.1-14.8-30.9-32-30.9c-14.7,0-27.2,10.1-30.9,23.6H54
	c-4.3,0-7.8,3.5-7.8,7.8s3.5,7.8,7.8,7.8h194c3.3,14.2,16.1,24.8,31.2,24.8c17.6,0,32-14.4,32-32
	C311.2,179.7,311.2,179.6,311.2,179.5z M293.5,187.1c-2.6,5.3-8,8.8-14.3,8.8s-11.7-3.6-14.3-8.8c-1.1-2.2-1.7-4.6-1.7-7.2
	c0-3.1,0.9-6,2.3-8.4c2.8-4.6,7.8-7.6,13.7-7.6s10.9,3,13.7,7.6c1.5,2.4,2.3,5.3,2.3,8.4C295.2,182.5,294.6,184.9,293.5,187.1z"/>
<path fill="#501214" d="M302.5,271.3H107.7c-3.7-13.6-16.2-23.6-30.9-23.6c-17.6,0-32,14.4-32,32s14.4,32,32,32
	c15.1,0,27.9-10.7,31.2-24.8h194.5c4.3,0,7.8-3.5,7.8-7.8C310.3,274.8,306.8,271.3,302.5,271.3z M91.2,286.9
	c-2.6,5.3-8,8.8-14.3,8.8s-11.7-3.6-14.3-8.8c-1.1-2.2-1.7-4.6-1.7-7.2c0-3.1,0.9-6,2.3-8.4c2.8-4.6,7.8-7.6,13.7-7.6
	c5.8,0,10.9,3,13.7,7.6c1.5,2.4,2.3,5.3,2.3,8.4C92.9,282.3,92.3,284.7,91.2,286.9z"/>
</svg>
