<svg id="Layer_3" data-name="Layer 3" xmlns="http://www.w3.org/2000/svg" xmlns:xlink="http://www.w3.org/1999/xlink" viewBox="0 0 365.8 365.8"><defs><clipPath id="clip-path"><rect x="431.6" y="-838.6" width="151.7" height="151.75" rx="30.3" style="fill:none"/></clipPath><clipPath id="clip-path-2"><rect x="613.7" y="-838.6" width="151.7" height="151.75" rx="30.3" style="fill:none"/></clipPath><clipPath id="clip-path-3"><rect x="613.7" y="-656.5" width="151.7" height="151.75" rx="30.3" style="fill:none"/></clipPath><clipPath id="clip-path-4"><rect x="431.6" y="-656.5" width="151.7" height="151.75" rx="30.3" style="fill:none"/></clipPath><clipPath id="clip-path-5"><path d="M1199.6-561.9a24.8,24.8,0,0,0-24.9-24.6h-.7c-4.7,0-8.2-1.3-10.8-3.8-4.4-4.5-5.2-12.4-5.1-15.3v-82.6c0-54.6-39.3-100.3-91.5-111.6a4.3,4.3,0,0,0,.1-.5v-16.4a24.8,24.8,0,0,0-24.9-24.7,24.9,24.9,0,0,0-24.9,24.7v16.4c0,.2.1.3.1.5-52.2,11.1-91.4,56.5-91.4,110.6v83.6a4.1,4.1,0,0,0,.1,1.1c0,.1.8,8.3-3.6,13.3-2.8,3.1-7.3,4.7-13.6,4.7H908a24.7,24.7,0,0,0-23.9,24.5A24.9,24.9,0,0,0,909-537.2h86.8a3.6,3.6,0,0,0-.2,1c0,24,19.7,43.5,43.9,43.5s43.9-19.5,43.9-43.5c0-.3-.2-.7-.2-1h91.5A24.9,24.9,0,0,0,1199.6-561.9ZM1033.5-816.7a8.3,8.3,0,0,1,8.3-8.3,8.3,8.3,0,0,1,8.3,8.3V-802c-2.7-.2-5.5-.4-8.3-.4s-5.5.2-8.3.4ZM942.2-606v-83.2c0-53.4,44.7-96.8,99.6-96.8s99.7,43.9,99.7,97.8v82.4a44.1,44.1,0,0,0,4.4,19.3H938.7A37.9,37.9,0,0,0,942.2-606Zm124.6,69.8a27.3,27.3,0,0,1-27.3,27.1,27.2,27.2,0,0,1-27.3-27.1c0-.3-.2-.7-.2-1h55A3.6,3.6,0,0,0,1066.8-536.2ZM909-553.6a8.3,8.3,0,0,1-8.3-8.3,8.3,8.3,0,0,1,8.3-8.2h265.7a8.3,8.3,0,0,1,8.3,8.2,8.3,8.3,0,0,1-8.3,8.3Z" style="fill:none"/></clipPath><clipPath id="clip-path-6"><path d="M1017.9-330.6a26.7,26.7,0,0,0-7.6,3.2c-38.5,24.2-44,62.8-32.5,90.3,9.6,22.8,32.9,42.6,65.9,42.6a89.6,89.6,0,0,0,21.2-2.6,23.7,23.7,0,0,0,7.7-3.2c38.5-24.2,44-62.7,32.5-90.2S1062.2-341.1,1017.9-330.6Zm173.4,116.5-8.1,19.8a8.1,8.1,0,0,1-8,5.1l-22-1a24.6,24.6,0,0,0-18.5,7.2l-11.4,11.4a24.4,24.4,0,0,0-7.2,18.8l1.2,22a8.3,8.3,0,0,1-5,8.1l-19.8,8.3a8.2,8.2,0,0,1-9.2-2.1l-14.9-16.2a24.7,24.7,0,0,0-18.2-8.1h-16.1a24.9,24.9,0,0,0-18.4,8.2L1001-116.1a8.1,8.1,0,0,1-9.3,2.1l-19.8-8.1a8.2,8.2,0,0,1-5.1-8l1-21.9a24.7,24.7,0,0,0-7.2-18.6L949.2-182a24.7,24.7,0,0,0-17.4-7.2h-1.4l-22,1.2a8.1,8.1,0,0,1-8.1-5L892-212.8a8.2,8.2,0,0,1,2.1-9.2l16.2-14.8a24.7,24.7,0,0,0,8.1-18.3v-16.1a24.9,24.9,0,0,0-8.2-18.4l-16.5-14.7a8.2,8.2,0,0,1-2.1-9.2l8.1-19.9a8.4,8.4,0,0,1,8-5.1l22,1a24.7,24.7,0,0,0,18.6-7.2L959.6-356a24.8,24.8,0,0,0,7.2-18.9l-1.2-22a8.3,8.3,0,0,1,5-8.1l19.8-8.2a8,8,0,0,1,9.2,2l14.9,16.3a24.6,24.6,0,0,0,18.2,8h16.1a24.9,24.9,0,0,0,18.4-8.2l14.7-16.5a8.3,8.3,0,0,1,9.3-2.1l19.8,8.1a8.2,8.2,0,0,1,5.1,8l-1,21.2a24.7,24.7,0,0,0,6.2,17.6l10.8,12.1a24.9,24.9,0,0,0,19.8,8.3l22.6-1.3a8.4,8.4,0,0,1,8.1,5l8.3,19.8a8.4,8.4,0,0,1-2.1,9.3l-16.2,14.8a24.3,24.3,0,0,0-8.1,18.2v16.1a24.9,24.9,0,0,0,8.2,18.4l16.5,14.7A8.4,8.4,0,0,1,1191.3-214.1Zm8.9-21.5-16.5-14.8a8.2,8.2,0,0,1-2.8-6.1v-16.1a8.4,8.4,0,0,1,2.7-6.1l16.3-14.8a24.6,24.6,0,0,0,6.1-27.8l-8.3-19.7a24.6,24.6,0,0,0-24.1-15.1l-22.6,1.2a8.1,8.1,0,0,1-6.6-2.7l-10.8-12.1a8.6,8.6,0,0,1-2.1-5.9l1-21.2a24.6,24.6,0,0,0-15.3-24l-19.8-8.1a24.5,24.5,0,0,0-27.7,6.4l-14.8,16.4a8,8,0,0,1-6.1,2.8h-16.1a8.4,8.4,0,0,1-6.1-2.7l-14.8-16.3a24.8,24.8,0,0,0-27.8-6.1l-19.7,8.3A24.6,24.6,0,0,0,949.2-396l1.2,22.1a8,8,0,0,1-2.4,6.2l-11.4,11.4a8,8,0,0,1-6.2,2.4l-22-1a24.7,24.7,0,0,0-23.9,15.3l-8.1,19.8a24.8,24.8,0,0,0,6.3,27.8l16.5,14.7a8,8,0,0,1,2.8,6.1v16.1a8.4,8.4,0,0,1-2.7,6.1L883-234.2a24.6,24.6,0,0,0-6.1,27.8l8.3,19.8a24.5,24.5,0,0,0,24.1,15l22-1.2a8.3,8.3,0,0,1,6.3,2.4L949-159a8.4,8.4,0,0,1,2.4,6.2l-1,22a24.7,24.7,0,0,0,15.3,24l19.8,8.1a25.2,25.2,0,0,0,9.3,1.8,24.7,24.7,0,0,0,18.4-8.2l14.8-16.5a8.2,8.2,0,0,1,6.1-2.7h16.1a8.4,8.4,0,0,1,6.1,2.7l14.8,16.2a24.8,24.8,0,0,0,27.8,6.2l19.7-8.3a24.9,24.9,0,0,0,15.1-24.2l-1.2-22a8.3,8.3,0,0,1,2.4-6.3l11.4-11.4a8,8,0,0,1,6.2-2.4l21.9,1a24.6,24.6,0,0,0,24-15.3l8.1-19.8A24.7,24.7,0,0,0,1200.2-235.6Zm-136.3,21.4a9.6,9.6,0,0,1-2.8,1.1c-37.1,8.8-59.9-10.9-68.1-30.4s-6.3-49.6,26-70a9,9,0,0,1,2.7-1.1,76.4,76.4,0,0,1,17.7-2.2c26.8,0,43.7,16.4,50.5,32.6C1098.1-264.6,1096.2-234.6,1063.9-214.2Z" style="fill:none"/></clipPath></defs><title>Artboard 26 copy 27</title><g id="Stroke-1"><path d="M338.5,119.1H35.7a15.6,15.6,0,0,1,0-31.2H338.5a15.6,15.6,0,1,1,0,31.2Z"/></g><path d="M338.5,208.2H35.7a15.6,15.6,0,1,1,0-31.2H338.5a15.6,15.6,0,1,1,0,31.2Z"/><path d="M338.5,297.2H35.7a15.6,15.6,0,1,1,0-31.1H338.5a15.6,15.6,0,1,1,0,31.1Z"/></svg>