<?xml version="1.0" encoding="utf-8"?>
<!-- Generator: Adobe Illustrator 23.0.3, SVG Export Plug-In . SVG Version: 6.00 Build 0)  -->
<svg version="1.1" id="Layer_3" xmlns="http://www.w3.org/2000/svg" xmlns:xlink="http://www.w3.org/1999/xlink" x="0px" y="0px"
	 viewBox="0 0 365.8 365.8" enable-background="new 0 0 365.8 365.8" xml:space="preserve">
<title>Artboard 26 copy 8</title>
<path d="M206.9,143.6c0-13.6-7.6-24.6-22.7-24.6c-8.9,0-17,4.1-23.7,10.9c-1.9,1.9-5,2-6.9,0.1c0,0,0,0-0.1-0.1l-3.5-3.4
	c-2.2-2.3-2.3-5.9-0.1-8.2c9.4-9.7,21.5-16.6,36.5-16.6c23.8,0,39.4,15.5,39.4,40.5c0,31.5-33.9,45.2-34.3,76.5
	c-0.1,3.1-2.3,5.7-5.2,5.7h-6.9c-2.9-0.1-5.3-2.6-5.2-5.5C173.1,183.6,206.9,169.2,206.9,143.6z M168.9,252.5
	c0-8.7,6.3-14.6,14-14.6s14,5.9,14,14.6c0,7.7-6.3,14-14,14S168.9,260.3,168.9,252.5L168.9,252.5z"/>
<path d="M182.9,345.2c-89.5,0-162.3-72.8-162.3-162.3S93.4,20.5,182.9,20.5s162.2,72.8,162.2,162.4S272.5,345.2,182.9,345.2z
	 M182.9,35.2c-81.4,0-147.6,66.2-147.6,147.7s66.2,147.6,147.6,147.6s147.6-66.2,147.6-147.6S264.2,35.2,182.9,35.2L182.9,35.2z"/>
</svg>
