<?xml version="1.0" encoding="utf-8"?>
<!-- Generator: Adobe Illustrator 23.0.2, SVG Export Plug-In . SVG Version: 6.00 Build 0)  -->
<svg version="1.1" baseProfile="tiny" id="Layer_3" xmlns="http://www.w3.org/2000/svg" xmlns:xlink="http://www.w3.org/1999/xlink"
	 x="0px" y="0px" viewBox="0 0 365.8 365.8" xml:space="preserve">
<g>
	<path d="M311.3,164.3c0-17.8-14.5-32.3-32.3-32.3h-16.2V93.6c0-47.9-35.5-85.5-80.8-85.5
		c-46.1,0-80.8,36.3-80.8,84.4V132H85c-17.8,0-32.3,14.5-32.3,32.3v153.5c0,17.8,14.5,32.3,32.3,32.3h194
		c17.8,0,32.3-14.5,32.3-32.3V164.3z"/>
	<path d="M68.9,317.8V164.3c0-8.9,7.2-16.2,16.2-16.2H279c8.9,0,16.2,7.2,16.2,16.2v153.5c0,8.9-7.2,16.2-16.2,16.2
		H85C76.1,334,68.9,326.7,68.9,317.8L68.9,317.8z"/>
	<path d="M183.5,197.9c-18.1,0-32.7,14.7-32.7,32.7c0,7.8,2.8,15.4,7.9,21.3l0.2,30.3c0,6.6,5.1,11.4,12.2,11.4h25.8
		c7.1,0,12.2-4.8,12.2-11.4v-31.1c4.7-5.8,7.2-13,7.2-20.5C216.3,212.6,201.6,197.9,183.5,197.9z"/>
	<path fill="#FFFFFF" d="M117.4,98.1c0-42.1,27.8-73.8,64.6-73.8s64.6,32.2,64.6,74.9V132H117.4V98.1z"/>
	<path fill="#FFFFFF" d="M195.3,242.4c-1.5,1.5-2.4,3.6-2.4,5.7v29.3H175l-0.2-28.8c0-2.2-0.9-4.3-2.6-5.9
		c-3.4-3.2-5.3-7.5-5.3-12.1c0-9.1,7.4-16.6,16.6-16.6c9.1,0,16.6,7.4,16.6,16.6C200.1,235.1,198.4,239.2,195.3,242.4z"/>
</g>
</svg>
