<?xml version="1.0" encoding="utf-8"?>
<!-- Generator: Adobe Illustrator 23.0.3, SVG Export Plug-In . SVG Version: 6.00 Build 0)  -->
<svg version="1.1" id="Layer_3" xmlns="http://www.w3.org/2000/svg" xmlns:xlink="http://www.w3.org/1999/xlink" x="0px" y="0px"
	 viewBox="0 0 365.8 365.8" enable-background="new 0 0 365.8 365.8" xml:space="preserve">
<title>Artboard 26 copy 26</title>
<path fill-rule="evenodd" clip-rule="evenodd" d="M354.8,180.2L188.6,14h-0.1c-3.2-3.1-8.2-3.1-11.4,0c-0.2,0.3-0.4,0.5-0.5,0.8
	l-73.4,73.3V76c-0.9-15.6-14.3-27.5-29.9-26.6C58.9,50.3,47.5,61.7,46.7,76v68.5l-35.6,35.7c-8.4,8.3-8.4,21.9,0,30.3c0,0,0,0,0,0
	c4,4.1,9.4,6.3,15.1,6.3c5.7,0,11.2-2.3,15.2-6.3l5.3-5.3v116.7c0,17.8,14.5,32.3,32.3,32.3h64.5c4.4,0,8-3.6,8-8c0,0,0-0.1,0-0.1
	V241.3c0.1-4.5,3.6-8,8.1-8.1H208c4.4,0.1,8,3.7,8,8.1v104.8c0,4.5,3.6,8.1,8.1,8.1c0,0,0,0,0,0h64.5c17.8-0.1,32.2-14.5,32.2-32.3
	v-115l3.7,3.6c8.4,8.4,21.9,8.4,30.3,0C363.1,202.1,363.1,188.5,354.8,180.2L354.8,180.2z M62.9,76c-0.6-6.7,4.3-12.5,11-13.1
	s12.5,4.3,13.1,11c0.1,0.7,0.1,1.5,0,2.2v28.2l-24.1,24.2V76z M304.7,192.9v129c0,8.9-7.2,16.1-16.1,16.1l0,0h-56.4v-96.7
	c-0.1-13.3-10.9-24.1-24.2-24.2h-48.4c-13.3,0.1-24.1,10.9-24.2,24.2V338H79c-8.9,0-16.1-7.2-16.1-16.1l0,0v-129
	c0-1.1-0.3-2.2-0.7-3.2L182.9,69l122.2,122.1C304.8,191.6,304.7,192.3,304.7,192.9z"/>
</svg>
