<?xml version="1.0" encoding="utf-8"?>
<!-- Generator: Adobe Illustrator 23.0.3, SVG Export Plug-In . SVG Version: 6.00 Build 0)  -->
<svg version="1.1" id="Layer_3" xmlns="http://www.w3.org/2000/svg" xmlns:xlink="http://www.w3.org/1999/xlink" x="0px" y="0px"
	 viewBox="0 0 365.8 365.8" enable-background="new 0 0 365.8 365.8" xml:space="preserve">
<title>Artboard 26 copy 28</title>
<g id="Group">
	<g id="Stroke-13-Copy-2">
		<path d="M62.2,134.6c-17.5-0.1-31.6-14.4-31.5-31.9c0,0,0,0,0,0c0-17.6,14.1-32,31.5-32s31.6,14.4,31.6,32
			C93.8,120.3,79.7,134.5,62.2,134.6z M62.2,87.1c-8.7-0.2-15.9,6.6-16.1,15.3c-0.2,8.7,6.6,15.9,15.3,16.1
			c8.7,0.2,15.9-6.6,16.1-15.3c0-0.1,0-0.3,0-0.4C77.6,94.2,70.7,87.2,62.2,87.1C62.2,87.1,62.2,87.1,62.2,87.1z"/>
	</g>
	<g id="Stroke-13-Copy-3">
		<path d="M62.2,214.9c-17.7,0.2-32.2-13.9-32.4-31.6c-0.2-17.7,13.9-32.2,31.6-32.4s32.2,13.9,32.4,31.6c0,0.1,0,0.3,0,0.4
			c0.2,17.5-13.9,31.8-31.4,32C62.3,214.8,62.2,214.8,62.2,214.9z M62.2,167.2c-8.7-0.2-15.9,6.6-16.1,15.3
			c-0.2,8.7,6.6,15.9,15.3,16.1c8.7,0.2,15.9-6.6,16.1-15.3c0-0.1,0-0.3,0-0.4C77.5,174.3,70.7,167.3,62.2,167.2L62.2,167.2z"/>
	</g>
	<g id="Stroke-13-Copy-4">
		<path d="M62.2,295c-17.4,0-31.5-14.4-31.5-32s14.1-32,31.5-32s31.6,14.4,31.6,32S79.6,295,62.2,295z M62.2,247.3
			c-8.7-0.2-15.9,6.6-16.1,15.3c-0.2,8.7,6.6,15.9,15.3,16.1c8.7,0.2,15.9-6.6,16.1-15.3c0-0.1,0-0.3,0-0.4
			C77.6,254.5,70.7,247.5,62.2,247.3C62.2,247.4,62.2,247.4,62.2,247.3L62.2,247.3z"/>
	</g>
	<g id="Rectangle">
		<path fill-rule="evenodd" clip-rule="evenodd" d="M120,92.1h205.2c6-0.1,10.8,4.7,10.9,10.7c0,0,0,0.1,0,0.1l0,0
			c0,6-4.9,10.9-10.9,10.9H120c-6,0-10.8-4.8-10.8-10.8c0,0,0-0.1,0-0.1l0,0C109.2,96.9,114,92.1,120,92.1
			C120,92.1,120,92.1,120,92.1z"/>
	</g>
	<g id="Rectangle-Copy">
		<path fill-rule="evenodd" clip-rule="evenodd" d="M120,172.1h205.2c6,0,10.9,4.9,10.9,10.9l0,0c0,6-4.8,10.8-10.8,10.8
			c0,0-0.1,0-0.1,0H120c-6,0-10.8-4.8-10.8-10.8l0,0l0,0c-0.1-6,4.7-10.8,10.7-10.9C119.9,172.2,119.9,172.1,120,172.1z"/>
	</g>
	<g id="Rectangle-Copy-2">
		<path fill-rule="evenodd" clip-rule="evenodd" d="M120,252.4h205.2c6-0.1,10.8,4.7,10.9,10.7c0,0,0,0.1,0,0.1l0,0
			c0,6-4.9,10.9-10.9,10.9H120c-6,0-10.8-4.8-10.8-10.8c0,0,0-0.1,0-0.1l0,0C109.2,257.2,114,252.4,120,252.4z"/>
	</g>
</g>
</svg>
