<?xml version="1.0" encoding="utf-8"?>
<!-- Generator: Adobe Illustrator 23.0.2, SVG Export Plug-In . SVG Version: 6.00 Build 0)  -->
<svg version="1.1" baseProfile="tiny" id="Layer_3" xmlns="http://www.w3.org/2000/svg" xmlns:xlink="http://www.w3.org/1999/xlink"
	 x="0px" y="0px" viewBox="0 0 365.8 365.8" xml:space="preserve">
<g>
	<g>
		<g>
			<path d="M182.9,347.8c-89.6,0-162.5-72.9-162.5-162.6S93.3,22.6,182.9,22.6s162.5,72.9,162.5,162.6S272.5,347.8,182.9,347.8z
				 M182.9,37.3c-81.5,0-147.8,66.3-147.8,147.9s66.3,147.9,147.8,147.9s147.8-66.3,147.8-147.9S264.4,37.3,182.9,37.3z"/>
		</g>
	</g>
	<g>
		<path d="M280.6,192.2H85.3c-3.9,0-7-3.1-7-7s3.1-7,7-7h195.3c3.9,0,7,3.1,7,7S284.5,192.2,280.6,192.2z"/>
	</g>
</g>
</svg>
