<?xml version="1.0" encoding="utf-8"?>
<!-- Generator: Adobe Illustrator 23.0.3, SVG Export Plug-In . SVG Version: 6.00 Build 0)  -->
<svg version="1.1" id="Layer_3" xmlns="http://www.w3.org/2000/svg" xmlns:xlink="http://www.w3.org/1999/xlink" x="0px" y="0px"
	 viewBox="0 0 365.8 365.8" style="enable-background:new 0 0 365.8 365.8;" xml:space="preserve">
<g>
	<path d="M318.9,67.3H85.3c-13.2,0-23.9,10.7-23.9,23.9v8H32.6c-5.3,0-9.6,4-9.6,9V283c0,4.9,4.3,9,9.6,9l35.8-0.5
		c4.3,4.3,10.3,7,16.9,7h233.6c13.2,0,23.9-10.7,23.9-23.9V91.2C342.8,78,332.1,67.3,318.9,67.3z M33.8,272.1
		c-1.8-8.8-1.6-161.6-1.6-161.6l29.2,0.2V222c-0.4,26.1-1,47.1-2,49.6C54.1,285.4,39.7,285.5,33.8,272.1z M330.5,274.6
		c0,6.4-5.2,11.5-11.5,11.5H85.3c-6.4,0-11.5-5.2-11.5-11.5V91.2c0-6.4,5.2-11.5,11.5-11.5h233.6c6.4,0,11.5,5.2,11.5,11.5
		L330.5,274.6L330.5,274.6z"/>
	<path d="M194.9,119.5h-83c-7.3,0-13.3,6-13.3,13.3v63.7c0,7.3,6,13.3,13.3,13.3h83c7.3,0,13.3-6,13.3-13.3v-63.7
		C208.2,125.5,202.2,119.5,194.9,119.5z M197.9,196.5c0,1.6-1.3,3-3,3h-83c-1.6,0-3-1.3-3-3v-63.7c0-1.6,1.3-3,3-3h83
		c1.6,0,3,1.3,3,3V196.5z"/>
	<path d="M311.2,124h-74c-2.1,0-3.8,1.7-3.8,3.8v7.2c0,2.1,1.7,3.8,3.8,3.8h74c2.1,0,3.8-1.7,3.8-3.8v-7.2
		C315.1,125.7,313.4,124,311.2,124z"/>
	<path d="M310.9,157.6h-74.1c-2.1,0-3.8,1.7-3.8,3.8v7.2c0,2.1,1.7,3.8,3.8,3.8h74.1c2.1,0,3.8-1.7,3.8-3.8v-7.2
		C314.7,159.3,313,157.6,310.9,157.6z"/>
	<path d="M236.5,207.5h74.1c2.1,0,3.8-1.7,3.8-3.8v-7.2c0-2.1-1.7-3.8-3.8-3.8h-74.1c-2.1,0-3.8,1.7-3.8,3.8v7.2
		C232.7,205.8,234.4,207.5,236.5,207.5z"/>
	<path d="M310.9,224.9h-74.1c-2.1,0-3.8,1.7-3.8,3.8v7.2c0,2.1,1.7,3.8,3.8,3.8h74.1c2.1,0,3.8-1.7,3.8-3.8v-7.2
		C314.7,226.6,313,224.9,310.9,224.9z"/>
	<path d="M200.9,224h-92c-2.1,0-3.8,1.7-3.8,3.8v7.2c0,2.1,1.7,3.8,3.8,3.8h92c2.1,0,3.8-1.7,3.8-3.8v-7.2
		C204.7,225.7,203,224,200.9,224z"/>
</g>
</svg>
