<?xml version="1.0" encoding="utf-8"?>
<!-- Generator: Adobe Illustrator 23.0.3, SVG Export Plug-In . SVG Version: 6.00 Build 0)  -->
<svg version="1.1" id="Layer_3" xmlns="http://www.w3.org/2000/svg" xmlns:xlink="http://www.w3.org/1999/xlink" x="0px" y="0px"
	 viewBox="0 0 365.8 365.8" style="enable-background:new 0 0 365.8 365.8;" xml:space="preserve">
<g>
	<path d="M194.8,129.8h-83c-1.6,0-3,1.3-3,3v63.7c0,1.6,1.3,3,3,3h83c1.6,0,3-1.3,3-3v-63.7C197.8,131.1,196.5,129.8,194.8,129.8z"
		/>
	<path d="M318.9,67.2H85.3c-13.2,0-23.9,10.7-23.9,23.9v8H32.6c-5.3,0-9.6,4-9.6,9V283c0,4.9,4.3,9,9.6,9l35.8-0.5
		c4.3,4.3,10.3,7,16.9,7h233.6c13.2,0,23.9-10.7,23.9-23.9V91.1C342.8,77.9,332.1,67.2,318.9,67.2z M61.3,221.9
		c-0.4,26.1-1,47.1-2,49.6c-5.3,13.8-19.7,13.9-25.6,0.5c-1.8-8.8-1.6-161.6-1.6-161.6l29.2,0.2V221.9z M204.6,234.9
		c0,2.1-1.7,3.8-3.8,3.8h-92c-2.1,0-3.8-1.7-3.8-3.8v-7.2c0-2.1,1.7-3.8,3.8-3.8h92c2.1,0,3.8,1.7,3.8,3.8V234.9z M208.1,196.4
		c0,7.3-6,13.3-13.3,13.3h-83c-7.3,0-13.3-6-13.3-13.3v-63.7c0-7.3,6-13.3,13.3-13.3h83c7.3,0,13.3,6,13.3,13.3V196.4z M232.6,196.4
		c0-2.1,1.7-3.8,3.8-3.8h74.1c2.1,0,3.8,1.7,3.8,3.8v7.2c0,2.1-1.7,3.8-3.8,3.8h-74.1c-2.1,0-3.8-1.7-3.8-3.8L232.6,196.4
		L232.6,196.4z M314.7,235.8c0,2.1-1.7,3.8-3.8,3.8h-74.1c-2.1,0-3.8-1.7-3.8-3.8v-7.2c0-2.1,1.7-3.8,3.8-3.8h74.1
		c2.1,0,3.8,1.7,3.8,3.8V235.8z M314.7,168.4c0,2.1-1.7,3.8-3.8,3.8h-74.1c-2.1,0-3.8-1.7-3.8-3.8v-7.2c0-2.1,1.7-3.8,3.8-3.8h74.1
		c2.1,0,3.8,1.7,3.8,3.8V168.4z M315,134.9c0,2.1-1.7,3.8-3.8,3.8h-74.1c-2.1,0-3.8-1.7-3.8-3.8v-7.2c0-2.1,1.7-3.8,3.8-3.8h74.1
		c2.1,0,3.8,1.7,3.8,3.8V134.9z"/>
</g>
</svg>
