<?xml version="1.0" encoding="utf-8"?>
<!-- Generator: Adobe Illustrator 23.0.3, SVG Export Plug-In . SVG Version: 6.00 Build 0)  -->
<svg version="1.1" id="Layer_3" xmlns="http://www.w3.org/2000/svg" xmlns:xlink="http://www.w3.org/1999/xlink" x="0px" y="0px"
	 viewBox="0 0 424.9 424.9" enable-background="new 0 0 424.9 424.9" xml:space="preserve">
<g>
	<path d="M382.1,68.1H90.6c-16.5,0-29.9,13.4-29.9,29.9v10H24.8c-6.6,0-11.9,5-11.9,11.2v218.4c0,6.2,5.3,11.2,11.9,11.2l44.7-0.7
		c5.4,5.4,12.9,8.8,21.1,8.8h291.6c16.5,0,29.9-13.4,29.9-29.9v-229C412,81.5,398.6,68.1,382.1,68.1z M26.2,323.8
		c-2.2-11-1.9-201.7-1.9-201.7l36.5,0.3v138.9c-0.5,32.5-1.3,58.8-2.5,61.9C51.6,340.4,33.6,340.5,26.2,323.8z M396.5,326.9
		c0,7.9-6.5,14.4-14.4,14.4H90.6c-7.9,0-14.4-6.5-14.4-14.4V98c0-7.9,6.5-14.4,14.4-14.4h291.6c7.9,0,14.4,6.5,14.4,14.4
		L396.5,326.9L396.5,326.9z"/>
	<path d="M227.4,133.3H123.8c-9.2,0-16.6,7.4-16.6,16.6v79.5c0,9.2,7.4,16.6,16.6,16.6h103.6c9.2,0,16.6-7.4,16.6-16.6v-79.5
		C243.9,140.8,236.4,133.3,227.4,133.3z"/>
	<path d="M372.5,139H280c-2.6,0-4.8,2.1-4.8,4.8v8.9c0,2.6,2.1,4.8,4.8,4.8h92.5c2.6,0,4.8-2.1,4.8-4.8v-8.9
		C377.4,141.1,375.1,139,372.5,139z"/>
	<path d="M372.1,180.8h-92.5c-2.6,0-4.8,2.1-4.8,4.8v8.9c0,2.6,2.1,4.8,4.8,4.8h92.5c2.6,0,4.8-2.1,4.8-4.8v-8.9
		C377,183,374.8,180.8,372.1,180.8z"/>
	<path d="M279.2,243.2h92.5c2.6,0,4.8-2.1,4.8-4.8v-8.9c0-2.6-2.1-4.8-4.8-4.8h-92.5c-2.6,0-4.8,2.1-4.8,4.8v8.9
		C274.5,241,276.6,243.2,279.2,243.2z"/>
	<path d="M372.1,264.9h-92.5c-2.6,0-4.8,2.1-4.8,4.8v8.9c0,2.6,2.1,4.8,4.8,4.8h92.5c2.6,0,4.8-2.1,4.8-4.8v-8.9
		C377,267.1,374.8,264.9,372.1,264.9z"/>
	<path d="M234.8,263.6H119.9c-2.6,0-4.8,2.1-4.8,4.8v8.9c0,2.6,2.1,4.8,4.8,4.8h114.8c2.6,0,4.8-2.1,4.8-4.8v-8.9
		C239.6,265.8,237.4,263.6,234.8,263.6z"/>
</g>
</svg>
