<?xml version="1.0" encoding="utf-8"?>
<!-- Generator: Adobe Illustrator 23.0.2, SVG Export Plug-In . SVG Version: 6.00 Build 0)  -->
<svg version="1.1" id="Layer_1" xmlns="http://www.w3.org/2000/svg" xmlns:xlink="http://www.w3.org/1999/xlink" x="0px" y="0px"
	 viewBox="0 0 435 435" style="enable-background:new 0 0 435 435;" xml:space="preserve">
<style type="text/css">
	.st0{fill-rule:evenodd;clip-rule:evenodd;}
</style>
<title>Icon/ no-bus</title>
<desc>Created with Sketch.</desc>
<g id="Symbols">
	<g transform="translate(-300.000000, -6.000000)">
		<g>
			<g transform="translate(295.000000, 0.000000)">
				<g transform="translate(3.000000, 3.000000)">
					<path id="Fill-4" class="st0" d="M406.8,414.1L14.9,45.1C7.1,37.8,4.7,27.7,9.4,22.7c4.8-5.1,14.9-3.2,22.7,4.1l391.9,369
						c7.8,7.3,10.2,17.4,5.5,22.5S414.6,421.5,406.8,414.1"/>
					<path id="Fill-6" class="st0" d="M314.2,77.8H126.8c-25.7,0-46.6,20.8-46.6,46.6v207.3c0,7.1,5.8,12.9,12.9,12.9h254.8
						c7.1,0,12.9-5.8,12.9-12.9V124.4C360.8,98.6,340,77.8,314.2,77.8 M310.6,89.6c21,0,38.1,17.1,38.1,38.1V327
						c0,3.2-2.6,5.7-5.7,5.7H98.1c-3.2,0-5.7-2.6-5.7-5.7V127.7c0-21,17.1-38.1,38.1-38.1H310.6"/>
					<path id="Fill-8" class="st0" d="M257.5,131.6h-73.9c-3.9,0-7.1-3.2-7.1-7.1v-12.2c0-3.9,3.2-7.1,7.1-7.1h73.9
						c3.9,0,7.1,3.2,7.1,7.1v12.2C264.6,128.4,261.4,131.6,257.5,131.6"/>
					<path id="Fill-10" class="st0" d="M143.9,385.2h-25.9c-4.3,0-7.7-3.5-7.7-7.7v-33.7h41.4v33.7
						C151.6,381.7,148.1,385.2,143.9,385.2"/>
					<path id="Fill-12" class="st0" d="M144.6,313.5h-27.3c-3.9,0-7-3.2-7-7v-27.3c0-3.9,3.1-7,7-7h27.3c3.9,0,7,3.1,7,7v27.3
						C151.6,310.3,148.4,313.5,144.6,313.5"/>
					<path id="Fill-14" class="st0" d="M122.8,241.2h195.5c7,0,12.6-5.6,12.6-12.6v-62.2c0-7-5.6-12.6-12.6-12.6H122.8
						c-7,0-12.6,5.6-12.6,12.6v62.2C110.2,235.6,115.8,241.2,122.8,241.2"/>
					<path id="Fill-16" class="st0" d="M297.2,385.2h25.9c4.3,0,7.7-3.5,7.7-7.7v-33.7h-41.4v33.7
						C289.4,381.7,292.9,385.2,297.2,385.2"/>
					<path id="Fill-18" class="st0" d="M296.5,313.5h27.3c3.9,0,7-3.2,7-7v-27.3c0-3.9-3.1-7-7-7h-27.3c-3.9,0-7,3.1-7,7v27.3
						C289.4,310.3,292.6,313.5,296.5,313.5"/>
				</g>
			</g>
		</g>
	</g>
</g>
</svg>
