<?xml version="1.0" encoding="utf-8"?>
<!-- Generator: Adobe Illustrator 23.0.3, SVG Export Plug-In . SVG Version: 6.00 Build 0)  -->
<svg version="1.1" id="Layer_1" xmlns="http://www.w3.org/2000/svg" xmlns:xlink="http://www.w3.org/1999/xlink" x="0px" y="0px"
	 viewBox="0 0 365.8 365.8" enable-background="new 0 0 365.8 365.8" xml:space="preserve">
<path d="M340.8,287.6c-0.1-13.7-11.2-24.7-24.9-24.7h-0.7c-4.7,0-8.2-1.2-10.7-3.8c-4.4-4.4-5.3-12.3-5.2-15.2v-82.6
	c0-54.7-39.2-100.4-91.4-111.6c0-0.2,0.1-0.4,0.1-0.6V32.7c-0.9-13.8-12.8-24.2-26.5-23.4c-12.6,0.8-22.6,10.8-23.4,23.4v16.4
	c0,0.2,0.1,0.4,0.2,0.6C106,60.8,66.8,106.1,66.8,160.3v83.6c0,0.3,0,0.7,0.1,1c0,0.1,0.9,8.3-3.6,13.4c-2.7,3.1-7.3,4.6-13.6,4.6
	h-0.5c-13.6,0.3-24.4,11.5-24.1,25.1s11.5,24.4,25.1,24.1H137c0,0.4-0.2,0.7-0.2,1.1c0,23.9,19.7,43.4,43.9,43.4
	s43.9-19.5,43.9-43.4c0-0.4-0.2-0.7-0.2-1.1h91.5C329.5,312.1,340.6,301.2,340.8,287.6z M174.8,32.7c0-4.6,3.7-8.3,8.3-8.3
	s8.3,3.7,8.3,8.3v14.7c-2.8-0.2-5.5-0.4-8.3-0.4s-5.6,0.2-8.3,0.4V32.7z M83.4,243.4v-83.1c0-53.4,44.7-96.8,99.7-96.8
	s99.6,43.8,99.6,97.8v82.3c0,6.7,1.5,13.3,4.4,19.3H79.9C82.8,256.8,84,250.1,83.4,243.4z M208,313.3c0,15.1-12.2,27.3-27.3,27.3
	c-15.1,0-27.3-12.2-27.3-27.3l0,0c0-0.4-0.2-0.7-0.2-1.1h55C208.2,312.6,208,312.9,208,313.3L208,313.3z M50.2,295.8
	c-4.5,0-8.2-3.7-8.2-8.2c0-4.5,3.7-8.2,8.2-8.2c0,0,0,0,0,0h265.7c4.5,0,8.2,3.7,8.2,8.2c0,4.5-3.7,8.2-8.2,8.2c0,0,0,0,0,0H50.2z"
	/>
</svg>
