<?xml version="1.0" encoding="utf-8"?>
<!-- Generator: Adobe Illustrator 23.0.3, SVG Export Plug-In . SVG Version: 6.00 Build 0)  -->
<svg version="1.1" id="Layer_3" xmlns="http://www.w3.org/2000/svg" xmlns:xlink="http://www.w3.org/1999/xlink" x="0px" y="0px"
	 viewBox="0 0 365.8 365.8" enable-background="new 0 0 365.8 365.8" xml:space="preserve">
<title>Artboard 26 copy 29</title>
<path d="M215.9,354.3l42.9-36.2c4.6-4,5.8-10.7,2.8-16l-32-55.4c-2.8-4.8-8.5-7.2-13.9-5.9l-40,9.9c-21.2-40-27.8-86-18.7-130.3
	l41.1-1.8c5.6-0.2,10.4-4.2,11.7-9.6l15.1-62.2c1.4-6-1.6-12.1-7.2-14.6L166.4,9.6c-5.4-2.4-11.7-0.8-15.2,4
	C70.6,121.2,92.4,274,200.3,354.7C205,358.2,211.4,358.1,215.9,354.3z"/>
</svg>
