<?xml version="1.0" encoding="utf-8"?>
<!-- Generator: Adobe Illustrator 23.0.2, SVG Export Plug-In . SVG Version: 6.00 Build 0)  -->
<svg version="1.1" baseProfile="tiny" id="Layer_3" xmlns="http://www.w3.org/2000/svg" xmlns:xlink="http://www.w3.org/1999/xlink"
	 x="0px" y="0px" viewBox="0 0 365.8 365.8" xml:space="preserve">
<g>
	<g>
		<g>
			<path d="M183.9,351.4c-89.7,0-162.7-73-162.7-162.8s73-162.8,162.7-162.8s162.7,73,162.7,162.8S273.6,351.4,183.9,351.4z
				 M183.9,40.6C102.3,40.6,36,107,36,188.6s66.4,148,147.9,148s147.9-66.4,147.9-148S265.5,40.6,183.9,40.6z"/>
		</g>
	</g>
	<path d="M281.7,181.6H189V92.7c0-3.9-3.1-7-7-7c-3.9,0-7,3.1-7,7v88.9H86.1c-3.9,0-7,3.1-7,7s3.1,7,7,7h88.8v92.5c0,3.9,3.1,7,7,7
		c3.9,0,7-3.1,7-7v-92.5h92.7c3.9,0,7-3.1,7-7S285.6,181.6,281.7,181.6z"/>
</g>
</svg>
