<?xml version="1.0" encoding="utf-8"?>
<!-- Generator: Adobe Illustrator 23.0.2, SVG Export Plug-In . SVG Version: 6.00 Build 0)  -->
<svg version="1.1" baseProfile="tiny" id="Layer_3" xmlns="http://www.w3.org/2000/svg" xmlns:xlink="http://www.w3.org/1999/xlink"
	 x="0px" y="0px" viewBox="0 0 365.8 365.8" xml:space="preserve">
<path d="M115.1,40.2c-24.4,0-44.4,20-44.4,44.4s20,44.4,44.4,44.4c20.6,0,37.9-14.2,42.9-33.3h125.4
	c21.7,0,38.8,17.1,38.8,38.8c0,21.2-19,38.8-40.7,38.8c-6.1-0.1-11.2,4.8-11.3,10.9c-0.1,6.1,4.8,11.2,10.9,11.3c0.1,0,0.2,0,0.3,0
	c33.6,0,62.9-26.9,62.9-61c0-33.6-27.4-61-61-61H158C153,54.4,135.7,40.2,115.1,40.2z M115.1,62.4c12.4,0,22.2,9.8,22.2,22.2
	s-9.8,22.2-22.2,22.2S92.9,97,92.9,84.6S102.7,62.4,115.1,62.4z M72.6,173.4c-33.6,0-61,27.4-61,61s27.4,61,61,61h71.2l-14.3,14.3
	c-4.3,4.3-4.3,11.4,0,15.7s11.4,4.3,15.7,0l0,0l33.3-33.3c4.3-4.3,4.4-11.4,0-15.7l0,0l-33.3-33.3c-2.1-2.2-5-3.4-8-3.4
	c-6.1,0-11.1,4.9-11.1,11.1c0,3,1.2,5.9,3.4,8l14.3,14.3H72.6c-21.7,0-38.8-17.1-38.8-38.8s17.1-38.8,38.8-38.8h172
	c6.1,0.1,11.2-4.8,11.3-10.9c0.1-6.1-4.8-11.2-10.9-11.3c-0.1,0-0.2,0-0.3,0H72.6V173.4z M240.9,240c-24.4,0-44.4,20-44.4,44.4
	s20,44.4,44.4,44.4s44.4-20,44.4-44.4S265.3,240,240.9,240z M240.9,262.2c12.4,0,22.2,9.8,22.2,22.2c0,12.4-9.8,22.2-22.2,22.2
	s-22.2-9.8-22.2-22.2C218.7,272,228.5,262.2,240.9,262.2z"/>
</svg>
