<?xml version="1.0" encoding="utf-8"?>
<!-- Generator: Adobe Illustrator 23.0.3, SVG Export Plug-In . SVG Version: 6.00 Build 0)  -->
<svg version="1.1" id="Layer_3" xmlns="http://www.w3.org/2000/svg" xmlns:xlink="http://www.w3.org/1999/xlink" x="0px" y="0px"
	 viewBox="0 0 424.9 424.9" enable-background="new 0 0 424.9 424.9" xml:space="preserve">
<g>
	<path d="M387.9,36.9v341.1L217.8,274.5l-6.6-4l-6.5,4L37,378V37L387.9,36.9 M400.5,24.4h-376v376l186.8-115.3l189.2,115.3V24.4
		L400.5,24.4z"/>
	<g>
		<path d="M309.2,100.9h-41.6v99l-36.4-99h-36l-31.1,82.8c-3.3-20.9-24.9-28.1-41.9-33.5c-11.2-3.6-23.1-8.9-23-14.8
			c0.1-4.8,6.4-9.3,18.8-8.6c8.4,0.5,15.8,1.1,30.4,8.2l14.5-25.2c-13.4-6.8-32-11.1-47.2-11.2h-0.1c-17.7,0-32.5,5.8-41.6,15.2
			c-6.4,6.6-9.8,15-10,24.3c-0.2,12.8,4.5,21.8,14.3,29.1c8.3,6.1,18.9,10,28.3,13c11.6,3.6,21,6.7,20.9,13.3
			c-0.1,2.4-1,4.7-2.7,6.5c-2.9,3-7.3,4.1-13.4,4.2c-11.8,0.2-20.5-1.6-34.5-9.8L64.2,220c13.9,7.9,30.4,12.5,47.1,12.5h2.2
			c14.6-0.3,26.4-4.4,35.8-12c0.5-0.4,1-0.9,1.5-1.3l-4.2,11.2h37.8l6.4-19.3c6.6,2.2,14.2,3.5,22.2,3.5c7.8,0,15.2-1.2,21.7-3.3
			l6.1,19.1h61.7v-40h13.4c32.5,0,51.8-16.6,51.8-44.3C367.7,115.1,349,100.9,309.2,100.9z M213,185.6c-4.9,0-9.4-0.9-13.3-2.4
			l13.2-41.6h0.3l12.9,41.7C222.2,184.8,217.8,185.6,213,185.6z M311.7,161.7h-9.2v-33.6h9.2c12.2,0,22,4.1,22,16.6
			C333.7,157.7,323.9,161.7,311.7,161.7"/>
		<g>
			<path d="M323,257.2c0-6.4,4.8-11.3,11.1-11.3c6.1,0,11,4.9,11,11.3c0,6.5-4.9,11.3-11,11.3C328,268.6,323,263.9,323,257.2z
				 M334.2,270.9c7.4,0,13.7-5.8,13.7-13.6s-6.3-13.5-13.7-13.5c-7.5,0-13.8,5.7-13.8,13.5C320.4,265.1,326.7,270.9,334.2,270.9z"/>
			<path d="M331.2,258.4h2.7l4.1,6.8h2.7l-4.5-6.9c2.3-0.3,4.1-1.5,4.1-4.3c0-3.1-1.8-4.4-5.5-4.4h-6v15.6h2.4L331.2,258.4
				L331.2,258.4z M331.2,256.4v-4.8h3.2c1.6,0,3.4,0.3,3.4,2.3c0,2.4-1.8,2.5-3.8,2.5H331.2z"/>
		</g>
	</g>
</g>
</svg>
