<?xml version="1.0" encoding="utf-8"?>
<!-- Generator: Adobe Illustrator 23.0.2, SVG Export Plug-In . SVG Version: 6.00 Build 0)  -->
<svg version="1.1" id="Layer_1" xmlns="http://www.w3.org/2000/svg" xmlns:xlink="http://www.w3.org/1999/xlink" x="0px" y="0px"
	 viewBox="0 0 425 425" style="enable-background:new 0 0 425 425;" xml:space="preserve">
<style type="text/css">
	.st0{fill-rule:evenodd;clip-rule:evenodd;}
</style>
<g>
	<g transform="translate(-320.000000, -235.000000)">
		<path class="st0" d="M560.5,509.6c-1,0.6-2.2,1.2-3.4,1.4c-46.5,11-74.9-13.6-85.2-38.1c-10.2-24.5-7.9-62.1,32.5-87.6
			c1-0.6,2.2-1.2,3.4-1.4c7.9-1.9,15.2-2.7,22-2.7c33.5,0,54.7,20.5,63.2,40.8C603.3,446.5,601,484.2,560.5,509.6 M730.8,482.8
			l-20.6-18.4c-2.2-2-3.4-4.7-3.4-7.7v-20.2c0-2.9,1.2-5.7,3.4-7.6l20.3-18.5c9.6-8.8,12.7-22.8,7.7-34.8l-10.4-24.7
			c-5-12-17-19.6-30.1-18.9l-28.3,1.6c-3,0.2-6.2-1.1-8.3-3.4l-13.5-15.2c-1.8-2-2.7-4.6-2.6-7.3l1.2-26.6c0.6-13-7.1-25.1-19.1-30
			l-24.8-10.2c-12.1-4.9-26-1.7-34.6,8l-18.4,20.6c-1.9,2.2-4.7,3.4-7.6,3.4h-20.1c-2.9,0-5.7-1.2-7.6-3.4l-18.5-20.4
			c-8.8-9.6-22.7-12.7-34.7-7.7L436,251.8c-12,5-19.6,17.2-18.8,30.2l1.5,27.6c0.2,2.9-0.9,5.8-3,7.8l-14.2,14.3c-2,2-4.9,3.2-7.7,3
			l-27.5-1.3c-13-0.6-25,7.1-30,19.2l-10.1,24.8c-4.9,12.1-1.7,26,8,34.7l20.6,18.4c2.2,1.9,3.4,4.7,3.4,7.7v20.2
			c0,2.9-1.2,5.7-3.4,7.6l-20.3,18.5c-9.6,8.8-12.7,22.8-7.7,34.8l10.4,24.7c5,12,17,19.6,30.1,18.9l27.6-1.5c3.1-0.1,5.8,0.9,7.8,3
			l14.2,14.3c2,2,3.1,4.9,3,7.8l-1.3,27.5c-0.6,13,7.1,25.1,19.1,30l24.8,10.2c3.8,1.5,7.7,2.3,11.6,2.3c8.6,0,17.1-3.6,23-10.3
			l18.4-20.6c1.9-2.2,4.7-3.4,7.7-3.4h20.1c2.9,0,5.7,1.2,7.6,3.4l18.5,20.4c8.8,9.6,22.7,12.7,34.7,7.7l24.7-10.4
			c12-5.1,19.6-17.2,18.9-30.2l-1.5-27.6c-0.2-2.9,0.9-5.8,3-7.9l14.2-14.3c2-2,4.9-3.2,7.7-3l27.4,1.3c13,0.6,25.1-7.1,30-19.2
			l10.1-24.8C743.7,505.5,740.5,491.5,730.8,482.8z M719.8,509.7l-10.1,24.8c-1.6,4-5.8,6.7-10,6.4l-27.5-1.3
			c-8.6-0.3-17.1,2.9-23.2,9L634.8,563c-6.2,6.2-9.5,14.8-9,23.6l1.5,27.6c0.2,4.3-2.3,8.4-6.3,10.1l-24.7,10.4
			c-4,1.7-8.7,0.6-11.6-2.6l-18.5-20.4c-5.8-6.4-14.1-10.1-22.8-10.1h-20.1c-8.8,0-17.1,3.7-23,10.3l-18.4,20.6
			c-2.9,3.2-7.5,4.3-11.5,2.7L445.6,625c-4-1.6-6.6-5.7-6.4-10l1.3-27.5c0.4-8.7-2.9-17.1-9-23.3l-14.2-14.3
			c-5.8-5.8-13.7-9.1-21.8-9.1c-0.6,0-1.1,0-1.7,0.1l-27.6,1.5c-4.6,0.3-8.4-2.3-10.1-6.3l-10.4-24.7c-1.7-4-0.6-8.7,2.6-11.6
			l20.3-18.5c6.4-5.8,10.1-14.2,10.1-22.8v-20.2c0-8.8-3.8-17.2-10.3-23l-20.6-18.4c-3.2-2.9-4.3-7.5-2.7-11.6l10.1-24.8
			c1.6-4,6-6.7,10-6.4l27.5,1.3c8.8,0.4,17.1-2.9,23.2-9l14.2-14.3c6.2-6.2,9.5-14.8,9-23.6l-1.5-27.6c-0.2-4.3,2.3-8.4,6.3-10.1
			l24.7-10.4c4-1.7,8.6-0.7,11.6,2.6l18.5,20.4c5.8,6.4,14.1,10.1,22.8,10.1h20.1c8.8,0,17.1-3.8,23-10.3l18.4-20.6
			c2.9-3.2,7.5-4.3,11.5-2.7l24.8,10.2c4,1.6,6.6,5.7,6.4,10l-1.2,26.6c-0.4,8.1,2.4,15.9,7.8,22l13.5,15.2
			c6.3,7.1,15.4,10.8,24.8,10.3l28.3-1.6c4.5-0.3,8.4,2.3,10.1,6.3l10.4,24.7c1.7,4,0.6,8.7-2.6,11.6l-20.3,18.5
			c-6.4,5.8-10.1,14.2-10.1,22.8v20.2c0,8.8,3.7,17.2,10.3,23l20.6,18.4C720.3,501.1,721.4,505.7,719.8,509.7z M503.1,363.9
			c-3.4,0.8-6.7,2.2-9.6,4c-48,30.3-54.9,78.6-40.5,113c12,28.6,41.1,53.4,82.4,53.4c8.3,0,17.2-1,26.5-3.2c3.4-0.8,6.7-2.2,9.6-4
			c48-30.3,55-78.6,40.6-113C597.6,379.6,558.4,350.8,503.1,363.9z"/>
	</g>
</g>
</svg>
