<?xml version="1.0" encoding="utf-8"?>
<!-- Generator: Adobe Illustrator 23.0.3, SVG Export Plug-In . SVG Version: 6.00 Build 0)  -->
<svg version="1.1" id="Layer_3" xmlns="http://www.w3.org/2000/svg" xmlns:xlink="http://www.w3.org/1999/xlink" x="0px" y="0px"
	 viewBox="0 0 365 365" enable-background="new 0 0 365 365" xml:space="preserve">
<path fill-rule="evenodd" clip-rule="evenodd" stroke="#666666" stroke-width="4" stroke-miterlimit="10" d="
	M291.5,5.9H73.6c-30,0-54.2,24.5-54.2,54.6v242.9c0,8.3,6.8,15,14.9,15h296.3c8.3,0,14.9-6.8,14.9-15V60.5
	C345.7,30.3,321.5,5.9,291.5,5.9"/>
<g>
	<path fill="#FFFFFF" d="M297,98.9c2.6,0,4.6,2,4.6,4.6v71.3c0,2.6-2,4.6-4.6,4.6H67.5c-2.6,0-4.6-2-4.6-4.6v-71.3
		c0-2.6,2-4.6,4.6-4.6H297 M297,84.2H67.5c-10.7,0-19.3,8.7-19.3,19.3v71.3c0,10.7,8.7,19.3,19.3,19.3H297
		c10.7,0,19.3-8.7,19.3-19.3v-71.3C316.3,92.7,307.6,84.2,297,84.2L297,84.2z"/>
</g>
<g>
	<path fill="#FFFFFF" d="M249.1,41.2c3.1,0,5.5,2.6,5.5,5.6v6.2c0,3.1-2.6,5.5-5.5,5.5H123.5c-3.1,0-5.5-2.6-5.5-5.5v-6.2
		c0-3.1,2.6-5.6,5.5-5.6H249.1 M249.1,30.3H123.5c-9.2,0-16.6,7.4-16.6,16.6v6.2c0,9.2,7.4,16.6,16.6,16.6h125.6
		c9.2,0,16.6-7.4,16.6-16.6v-6.2C265.6,37.7,258.2,30.3,249.1,30.3L249.1,30.3z"/>
</g>
<g>
	<path fill="#FFFFFF" d="M96.3,217.6c-16.4,0-29.8,13.4-29.8,29.8s13.4,29.8,29.8,29.8s29.8-13.4,29.8-29.8S112.8,217.6,96.3,217.6z
		 M96.3,262.3c-8.3,0-14.9-6.6-14.9-14.9c0-8.3,6.6-14.9,14.9-14.9s14.9,6.6,14.9,14.9C111.2,255.7,104.6,262.3,96.3,262.3z"/>
</g>
<g>
	<path fill="#FFFFFF" d="M266.5,217.1c-16.4,0-29.8,13.4-29.8,29.8s13.4,29.8,29.8,29.8s29.8-13.4,29.8-29.8S283,217.1,266.5,217.1z
		 M266.5,261.8c-8.3,0-14.9-6.6-14.9-14.9c0-8.3,6.6-14.9,14.9-14.9s14.9,6.6,14.9,14.9C281.4,255.2,274.8,261.8,266.5,261.8z"/>
</g>
<g>
	<path fill="#666666" d="M59.3,316.4c0,0.1,0,0.1,0,0.3v21c0,11.7,9.7,21.4,21.4,21.4h16.6c11.7,0,21.4-9.7,21.4-21.4v-21
		c0-0.1,0-0.1,0-0.3H59.3z"/>
</g>
<g>
	<path fill="#666666" d="M248.8,316.4c0,0.1,0,0.1,0,0.3v21c0,11.7,9.7,21.4,21.4,21.4h16.6c11.7,0,21.4-9.7,21.4-21.4v-21
		c0-0.1,0-0.1,0-0.3H248.8z"/>
</g>
</svg>
