<?xml version="1.0" encoding="utf-8"?>
<!-- Generator: Adobe Illustrator 23.0.2, SVG Export Plug-In . SVG Version: 6.00 Build 0)  -->
<svg version="1.1" id="Layer_1" xmlns="http://www.w3.org/2000/svg" xmlns:xlink="http://www.w3.org/1999/xlink" x="0px" y="0px"
	 viewBox="0 0 435 435" style="enable-background:new 0 0 435 435;" xml:space="preserve">
<g>
	<path d="M146.9,34.2H298c11,0,19.9,8.9,19.9,19.9v7.5c0,11-8.9,19.9-19.9,19.9H146.9c-11,0-19.9-8.9-19.9-19.9v-7.5
		C127,43.1,135.9,34.2,146.9,34.2z"/>
	<path d="M114.3,259.6c-19.8,0-35.9,16.1-35.8,36c0,19.8,16.1,35.9,36,35.8c19.8,0,35.8-16.1,35.8-35.9
		C150.3,275.7,134.2,259.6,114.3,259.6C114.4,259.6,114.3,259.6,114.3,259.6z M114.3,313.4c-9.9,0-18-8-18-18s8-18,18-18
		c9.9,0,18,8,18,18c0,0,0,0,0,0l0,0C132.3,305.4,124.2,313.4,114.3,313.4L114.3,313.4z"/>
	<path d="M319.1,259c-19.8,0-35.9,16.1-35.9,35.9c0,19.8,16.1,35.9,35.9,35.9c19.8,0,35.9-16.1,35.9-35.9l0,0
		C354.9,275.1,338.9,259,319.1,259z M319.1,312.8c-9.9,0-18-8-18-18c0-9.9,8-18,18-18c9.9,0,18,8,18,18c0,0,0,0,0,0l0,0
		C337,304.8,329,312.8,319.1,312.8z"/>
	<path d="M349.1,5H87C50.9,5.1,21.7,34.4,21.8,70.5c0,0,0,0,0,0v292.1c-0.1,10,8,18.1,18,18.2c0,0,0,0,0,0h30v23.3
		c0,14.2,11.5,25.8,25.8,25.8h19.9c14.2,0,25.7-11.6,25.8-25.8v-23.4h156.4v23.3c0,14.2,11.5,25.8,25.8,25.8h19.9
		c14.2,0,25.7-11.6,25.8-25.8v-23.4h27c10,0,18-8.2,18-18.1V70.6C414.4,34.5,385.2,5.1,349.1,5C349.1,5,349.1,5,349.1,5z
		 M398.4,355.4c0,4.4-3.6,8-8.1,8H44.9c-4.4,0-8.1-3.6-8.1-8V77.3c0-29.3,24.1-53.2,53.8-53.2h254c29.7,0,53.8,23.9,53.8,53.2
		L398.4,355.4z"/>
	<path d="M79.6,99.1h276.1c12.8,0,23.2,10.4,23.2,23.2V208c0,12.8-10.4,23.2-23.2,23.2c0,0,0,0,0,0H79.6
		c-12.8,0-23.2-10.4-23.2-23.2l0,0l0,0v-85.7C56.4,109.5,66.8,99.1,79.6,99.1z"/>
</g>
</svg>
