<?xml version="1.0" encoding="utf-8"?>
<!-- Generator: Adobe Illustrator 23.0.3, SVG Export Plug-In . SVG Version: 6.00 Build 0)  -->
<svg version="1.1" id="Layer_1" xmlns="http://www.w3.org/2000/svg" xmlns:xlink="http://www.w3.org/1999/xlink" x="0px" y="0px"
	 viewBox="0 0 354.9 58" enable-background="new 0 0 354.9 58" xml:space="preserve">
<g>
	<polyline id="Fill-1_1_" fill-rule="evenodd" clip-rule="evenodd" points="8.6,50.5 8.6,52.4 154,52.4 154.6,50.5 8.6,50.5 	"/>
	<polyline id="Fill-2_1_" fill-rule="evenodd" clip-rule="evenodd" points="332.5,50.5 332.5,52.4 187.1,52.4 186.5,50.5 
		332.5,50.5 	"/>
	<path id="Fill-3_1_" fill-rule="evenodd" clip-rule="evenodd" d="M340.8,51.2h0.8c0.7,0,0.8-0.5,0.8-0.7c0-0.7-0.5-0.7-0.8-0.7
		h-0.8V51.2z M339.9,48.9h1.8c0.6,0,1.8,0,1.8,1.4c0,1-0.6,1.2-1,1.3c0.7,0,0.8,0.5,0.9,1.2c0,0.4,0.1,1.1,0.3,1.4h-1.1
		c0-0.2-0.2-1.6-0.2-1.7c-0.1-0.3-0.2-0.4-0.5-0.4h-0.9v2.1h-1L339.9,48.9L339.9,48.9z M337.6,51.5c0,2.2,1.8,3.9,3.9,3.9
		c2.2,0,3.9-1.8,3.9-3.9c0-2.2-1.8-3.9-3.9-3.9C339.4,47.5,337.6,49.2,337.6,51.5z M346.2,51.5c0,2.6-2.1,4.7-4.7,4.7
		s-4.7-2.1-4.7-4.7c0-2.7,2.2-4.7,4.7-4.7S346.2,48.9,346.2,51.5z"/>
	<path id="Fill-4_1_" fill-rule="evenodd" clip-rule="evenodd" d="M8.8,11.1h23.8l0.2,7.1h-1c-0.5-2.2-1.1-3.7-1.9-4.4s-2.4-1-4.8-1
		h-2.3v21.5c0,1.6,0.3,2.6,0.8,3s1.6,0.6,3.3,0.8v0.8H14.7v-0.8c1.7-0.1,2.8-0.4,3.3-0.9c0.4-0.4,0.7-1.6,0.7-3.4v-21h-2.4
		c-2.3,0-3.9,0.3-4.7,1c-0.8,0.7-1.5,2.1-1.9,4.4h-1L8.8,11.1"/>
	<path id="Fill-5_1_" fill-rule="evenodd" clip-rule="evenodd" d="M35.5,38c1.5-0.2,2.5-0.4,3-0.8c0.5-0.4,0.7-1.4,0.7-3V15.6
		c0-1.5-0.2-2.5-0.7-2.9c-0.5-0.5-1.5-0.7-3-0.9V11h22.3l0.1,6h-1.1c-0.4-1.9-0.9-3.1-1.6-3.6c-0.7-0.5-2.3-0.8-4.8-0.8h-5.7
		c-0.6,0-1,0.1-1.1,0.3c-0.1,0.3-0.1,0.7-0.1,1.2v9.4H50c1.8,0,2.9-0.3,3.4-0.8s0.9-1.6,1.2-3.2h1v9.7h-1c-0.3-1.6-0.7-2.7-1.2-3.2
		s-1.6-0.8-3.4-0.8h-6.5v10.4c0,0.8,0.3,1.3,0.8,1.5s2.1,0.2,4.7,0.2c2.8,0,5-0.3,6.3-0.9c1.4-0.6,2.6-2.1,3.7-4.5h1.2L58.3,39H35.5
		V38"/>
	<path id="Fill-6_1_" fill-rule="evenodd" clip-rule="evenodd" d="M61,38c1.1-0.1,2-0.4,2.6-0.9s1.7-1.8,3.5-3.9l6.5-8L69,18.5
		c-2-2.9-3.4-4.8-4.2-5.5c-0.8-0.7-1.9-1.1-3.3-1.2V11h12.6v0.8c-1.2,0-2,0.1-2.4,0.2c-0.6,0.2-0.8,0.6-0.8,1.2
		c0,0.4,0.1,0.8,0.4,1.4c0.1,0.3,0.3,0.6,0.6,0.9l4.3,6.3l4.7-5.7c0.7-0.8,1.2-1.5,1.4-2c0.1-0.3,0.2-0.6,0.2-0.8
		c0-0.6-0.3-1-0.9-1.2c-0.4-0.1-1-0.2-2-0.2v-0.8h10v0.8c-1.1,0-2,0.2-2.6,0.5c-1,0.5-2.2,1.7-3.6,3.5l-6.1,7.6l8,11.5
		c0.9,1.2,1.6,2,2.1,2.4c0.6,0.3,1.4,0.6,2.5,0.7v0.8H77.6v-0.8c1.2,0,2-0.1,2.5-0.3s0.7-0.5,0.7-1c0-0.4-0.3-1.2-0.9-2.2
		s-2.3-3.6-5.2-7.7l-5,6c-0.7,0.9-1.2,1.6-1.5,2c-0.4,0.7-0.7,1.2-0.7,1.5c0,0.6,0.4,1,1.1,1.3c0.4,0.2,1.1,0.3,2.1,0.3v0.8H61V38"
		/>
	<path id="Fill-7_1_" fill-rule="evenodd" clip-rule="evenodd" d="M107.5,28.1l-4.8-11.6l-4.8,11.6H107.5z M89.4,38.9v-0.8
		c1.1-0.1,1.9-0.5,2.4-1.2s1.5-2.6,2.8-5.7l8.8-20.6h0.8l10.5,23.8c0.7,1.6,1.3,2.6,1.7,2.9c0.4,0.4,1.1,0.6,2.1,0.8v0.8h-10.8v-0.8
		c1.2-0.1,2-0.2,2.4-0.4s0.5-0.5,0.5-1.2c0-0.2-0.1-0.6-0.2-1.1s-0.3-1.1-0.6-1.6l-1.7-4h-11c-1.1,2.7-1.7,4.4-2,5
		c-0.2,0.6-0.3,1.1-0.3,1.4c0,0.7,0.3,1.2,0.9,1.5c0.4,0.2,1,0.3,2,0.4v0.8C97.7,38.9,89.4,38.9,89.4,38.9z"/>
	<path id="Fill-8_1_" fill-rule="evenodd" clip-rule="evenodd" d="M120.8,30.4c0.7,1.9,1.5,3.4,2.5,4.5c1.7,2,3.7,2.9,6.2,2.9
		c1.3,0,2.5-0.4,3.5-1.3c1-0.8,1.5-2,1.5-3.6c0-1.4-0.5-2.6-1.5-3.6c-0.6-0.6-2-1.6-4.1-2.9l-3.6-2.2c-1.1-0.7-1.9-1.4-2.6-2.1
		c-1.2-1.3-1.8-2.8-1.8-4.4c0-2.1,0.7-3.9,2.1-5.3c1.4-1.4,3.3-2.1,5.6-2.1c1,0,2.1,0.2,3.5,0.7c1.3,0.5,2.1,0.7,2.3,0.7
		c0.5,0,0.9-0.1,1.1-0.4c0.2-0.2,0.4-0.6,0.5-1h0.9l0.9,8.9h-1c-0.7-2.7-1.8-4.6-3.3-5.6c-1.5-1.1-3-1.6-4.5-1.6c-1.1,0-2.2,0.3-3,1
		c-0.9,0.7-1.3,1.6-1.3,2.8c0,1.1,0.3,2,1,2.8c0.7,0.8,1.7,1.6,3.1,2.4l3.7,2.3c2.3,1.4,3.9,2.7,4.9,3.9c0.9,1.2,1.4,2.6,1.4,4.3
		c0,2.2-0.8,4-2.5,5.5s-3.8,2.2-6.4,2.2c-1.3,0-2.7-0.2-4.1-0.7c-1.4-0.5-2.2-0.7-2.4-0.7c-0.5,0-0.8,0.2-1,0.5s-0.3,0.6-0.3,1h-0.9
		l-1.3-8.9L120.8,30.4"/>
	<path id="Fill-9_1_" fill-rule="evenodd" clip-rule="evenodd" d="M204.8,30.4c0.7,1.9,1.5,3.4,2.5,4.5c1.7,2,3.7,2.9,6.2,2.9
		c1.3,0,2.5-0.4,3.5-1.3c1-0.8,1.5-2,1.5-3.6c0-1.4-0.5-2.6-1.5-3.6c-0.6-0.6-2-1.6-4.1-2.9l-3.6-2.2c-1.1-0.7-1.9-1.4-2.6-2.1
		c-1.2-1.3-1.8-2.8-1.8-4.4c0-2.1,0.7-3.9,2.1-5.3c1.4-1.4,3.3-2.1,5.6-2.1c1,0,2.1,0.2,3.5,0.7c1.3,0.5,2.1,0.7,2.3,0.7
		c0.5,0,0.9-0.1,1.1-0.4c0.2-0.2,0.4-0.6,0.5-1h0.9l0.9,8.9h-1c-0.7-2.7-1.8-4.6-3.3-5.6c-1.5-1.1-3-1.6-4.5-1.6c-1.2,0-2.2,0.3-3,1
		c-0.9,0.7-1.3,1.6-1.3,2.8c0,1.1,0.3,2,1,2.8c0.7,0.8,1.7,1.6,3.1,2.4l3.7,2.3c2.3,1.4,3.9,2.7,4.9,3.9c0.9,1.2,1.4,2.6,1.4,4.3
		c0,2.2-0.8,4-2.5,5.5s-3.8,2.2-6.4,2.2c-1.3,0-2.7-0.2-4.1-0.7c-1.4-0.5-2.2-0.7-2.4-0.7c-0.5,0-0.8,0.2-1,0.5s-0.3,0.6-0.3,1h-0.9
		l-1.3-8.9L204.8,30.4"/>
	<path id="Fill-10_1_" fill-rule="evenodd" clip-rule="evenodd" d="M226.8,11.1h23.8l0.2,7.1h-1c-0.5-2.2-1.1-3.7-1.9-4.4
		c-0.8-0.7-2.4-1-4.8-1h-2.3v21.5c0,1.6,0.3,2.6,0.8,3s1.6,0.6,3.3,0.8v0.8h-12.3v-0.8c1.8-0.1,2.9-0.4,3.3-0.9
		c0.4-0.4,0.7-1.6,0.7-3.4v-21h-2.4c-2.3,0-3.9,0.3-4.8,1c-0.8,0.7-1.5,2.1-1.9,4.4h-1L226.8,11.1"/>
	<path id="Fill-11_1_" fill-rule="evenodd" clip-rule="evenodd" d="M269.2,28.1l-4.8-11.6l-4.9,11.6H269.2z M251.1,38.9v-0.8
		c1.1-0.1,1.9-0.5,2.4-1.2s1.5-2.6,2.8-5.7l8.8-20.6h0.8l10.5,23.8c0.7,1.6,1.3,2.6,1.7,2.9c0.4,0.4,1.1,0.6,2.1,0.8v0.8h-10.7v-0.8
		c1.2-0.1,2-0.2,2.4-0.4s0.5-0.5,0.5-1.2c0-0.2-0.1-0.6-0.2-1.1s-0.3-1.1-0.6-1.6l-1.7-4h-11.1c-1.1,2.7-1.7,4.4-2,5
		c-0.2,0.6-0.3,1.1-0.3,1.4c0,0.7,0.3,1.2,0.9,1.5c0.4,0.2,1,0.3,2,0.4v0.8C259.4,38.9,251.1,38.9,251.1,38.9z"/>
	<path id="Fill-12_1_" fill-rule="evenodd" clip-rule="evenodd" d="M280.5,11.1h23.8l0.2,7.1h-1c-0.5-2.2-1.1-3.7-1.9-4.4
		s-2.4-1-4.8-1h-2.3v21.5c0,1.6,0.3,2.6,0.8,3s1.6,0.6,3.3,0.8v0.8h-12.2v-0.8c1.8-0.1,2.9-0.4,3.3-0.9c0.4-0.4,0.7-1.6,0.7-3.4v-21
		H288c-2.3,0-3.9,0.3-4.7,1c-0.8,0.7-1.5,2.1-1.9,4.4h-1L280.5,11.1"/>
	<path id="Fill-13_1_" fill-rule="evenodd" clip-rule="evenodd" d="M307.9,38c1.5-0.2,2.5-0.4,3-0.8c0.5-0.4,0.7-1.4,0.7-3V15.6
		c0-1.5-0.2-2.5-0.7-2.9c-0.5-0.5-1.5-0.7-3-0.9V11h22.3l0.1,6h-1.1c-0.4-1.9-0.9-3.1-1.6-3.6s-2.3-0.8-4.8-0.8H317
		c-0.6,0-1,0.1-1.1,0.3s-0.2,0.6-0.2,1.1v9.4h6.5c1.8,0,2.9-0.3,3.4-0.8s0.9-1.6,1.2-3.2h1V29h-1c-0.3-1.6-0.7-2.7-1.2-3.2
		S324,25,322.2,25h-6.5v10.4c0,0.8,0.3,1.3,0.8,1.5s2.1,0.2,4.7,0.2c2.8,0,5-0.3,6.3-0.9c1.4-0.6,2.6-2.1,3.7-4.5h1.2l-1.9,7.1
		h-22.7L307.9,38"/>
	<path id="Fill-15_1_" fill-rule="evenodd" clip-rule="evenodd" d="M180.2,35l-9.6-3.1l15.5,21.3l-15.5-11.3V32l-15.5,21.3L161,35
		l9.6-3.1l-25.1-8.2h19.2l5.9,8.2V5.6l5.9,18.3l-5.9,8.2l25.1-8.2L180.2,35z M177.8,22.2L177.8,22.2l-7.1-21.8l-7.1,21.8h-22.9
		l18.5,13.6L152,57.6L170.5,44L189,57.4l0,0l0.1,0.1L182,35.8v-0.1l18.4-13.4l0.1-0.1H177.8z"/>
</g>
</svg>
