<?xml version="1.0" encoding="utf-8"?>
<!-- Generator: Adobe Illustrator 23.0.3, SVG Export Plug-In . SVG Version: 6.00 Build 0)  -->
<svg version="1.1" id="Layer_3" xmlns="http://www.w3.org/2000/svg" xmlns:xlink="http://www.w3.org/1999/xlink" x="0px" y="0px"
	 viewBox="0 0 365.8 365.8" enable-background="new 0 0 365.8 365.8" xml:space="preserve">
<path d="M308.3,316.4h13.1c0.9,0,1.7-0.8,1.7-1.7v-80.9h-16.4v80.9C306.6,315.6,307.3,316.4,308.3,316.4z"/>
<path d="M313.8,164.2c-19.7,0-35.9,16.2-35.9,35.9s16.2,35.9,35.9,35.9c19.7,0,35.9-16.2,35.9-35.9S333.5,164.2,313.8,164.2z
	 M313.8,218c-10,0-17.9-7.9-17.9-17.9s7.9-17.9,17.9-17.9s17.9,7.9,17.9,17.9S323.8,218,313.8,218z"/>
<g>
	<path d="M229.5,44.4H58.6c-23.5,0-42.5,19.1-42.5,42.8v190.5c0,6.5,5.3,11.8,11.7,11.8h19.6v15.2c0,9.2,7.6,16.8,16.8,16.8h13
		c9.2,0,16.8-7.6,16.8-16.8v-15.2h102v15.2c0,9.2,7.6,16.8,16.8,16.8h13c9.2,0,16.8-7.6,16.8-16.8v-15.2h17.6
		c6.5,0,11.7-5.3,11.7-11.8V87.2C272,63.5,253,44.4,229.5,44.4z"/>
	<g>
		<g>
			<path fill="#FFFFFF" d="M233.8,117.2c2,0,3.6,1.6,3.6,3.6v55.9c0,2-1.6,3.6-3.6,3.6h-180c-2,0-3.6-1.6-3.6-3.6v-55.9
				c0-2,1.6-3.6,3.6-3.6L233.8,117.2 M233.8,105.8h-180c-8.4,0-15.1,6.8-15.1,15.1v55.9c0,8.4,6.8,15.1,15.1,15.1h180
				c8.4,0,15.1-6.8,15.1-15.1v-55.9C248.9,112.5,242.1,105.8,233.8,105.8L233.8,105.8z"/>
		</g>
		<g>
			<path fill="#FFFFFF" d="M196.2,72.1c2.4,0,4.3,2,4.3,4.4v4.9c0,2.4-2,4.3-4.3,4.3H97.7c-2.4,0-4.3-2-4.3-4.3v-4.9
				c0-2.4,2-4.4,4.3-4.4H196.2 M196.2,63.5H97.7c-7.2,0-13,5.8-13,13v4.9c0,7.2,5.8,13,13,13h98.5c7.2,0,13-5.8,13-13v-4.9
				C209.2,69.2,203.4,63.5,196.2,63.5L196.2,63.5z"/>
		</g>
		<g>
			<path fill="#FFFFFF" d="M76.4,210.3c-12.9,0-23.4,10.5-23.4,23.4s10.5,23.4,23.4,23.4s23.4-10.5,23.4-23.4
				C99.8,220.8,89.3,210.3,76.4,210.3z M76.4,245.4c-6.5,0-11.7-5.2-11.7-11.7s5.2-11.7,11.7-11.7s11.7,5.2,11.7,11.7
				S82.9,245.4,76.4,245.4z"/>
		</g>
		<g>
			<path fill="#FFFFFF" d="M209.9,209.9c-12.9,0-23.4,10.5-23.4,23.4s10.5,23.4,23.4,23.4s23.4-10.5,23.4-23.4
				C233.3,220.4,222.8,209.9,209.9,209.9z M209.9,245c-6.5,0-11.7-5.2-11.7-11.7s5.2-11.7,11.7-11.7s11.7,5.2,11.7,11.7
				S216.4,245,209.9,245z"/>
		</g>
	</g>
</g>
</svg>
