<?xml version="1.0" encoding="utf-8"?>
<!-- Generator: Adobe Illustrator 23.0.3, SVG Export Plug-In . SVG Version: 6.00 Build 0)  -->
<svg version="1.1" id="Layer_3" 
  xmlns="http://www.w3.org/2000/svg" 
  xmlns:xlink="http://www.w3.org/1999/xlink" x="0px" y="0px" viewBox="0 0 365.8 365.8" enable-background="new 0 0 365.8 365.8" xml:space="preserve">
  <title>Artboard 26 copy 18</title>
  <path d="M324.3,317.1h-13.1c-0.9,0-1.7-0.8-1.7-1.7c0,0,0,0,0,0v-80.9l0,0H326l0,0v80.9C326,316.4,325.2,317.1,324.3,317.1
	L324.3,317.1z"/>
  <path d="M316.8,164.9c-19.8,0-35.9,16.1-35.9,35.9s16.1,35.9,35.9,35.9s35.9-16.1,35.9-35.9c0,0,0-0.1,0-0.1
	C352.6,181,336.5,164.9,316.8,164.9z M316.8,218.8c-9.9,0.1-18-8-18.1-17.9c-0.1-9.9,8-18,17.9-18.1c9.9-0.1,18,8,18.1,17.9
	c0,0,0,0.1,0,0.1c0.1,9.8-7.8,17.9-17.6,18C317,218.8,316.9,218.8,316.8,218.8z"/>
  <path fill-rule="evenodd" clip-rule="evenodd" d="M223.6,56.8c19.3-0.1,35,15.4,35.1,34.7c0,0,0,0,0,0v181.3c0,2.9-2.3,5.2-5.2,5.2
	c0,0-0.1,0-0.1,0H28.2c-2.9,0.1-5.2-2.2-5.3-5.1c0,0,0-0.1,0-0.1V91.6C23,72.3,38.7,56.7,57.9,56.8c0,0,0,0,0,0H223.6 M226.6,44.3
	h-171C32,44.5,13,63.6,13.2,87.1c0,0,0,0,0,0v190.4c-0.1,6.5,5.2,11.8,11.7,11.9c0,0,0,0,0,0h232.4c6.5-0.1,11.8-5.4,11.7-11.9
	c0,0,0,0,0,0V87.2C269.1,63.6,250.1,44.5,226.6,44.3C226.6,44.4,226.6,44.3,226.6,44.3"/>
  <path d="M230.8,117.2c2,0,3.6,1.6,3.6,3.6c0,0,0,0,0,0v55.9c0,2-1.6,3.6-3.6,3.7h-180c-2-0.1-3.6-1.7-3.6-3.7v-55.9
	c0-2,1.6-3.6,3.6-3.6H230.8 M230.8,105.8h-180c-8.3,0-15.1,6.8-15.1,15.1l0,0v55.9c0,8.3,6.8,15.1,15.1,15.1h0h180
	c8.3,0,15.1-6.8,15.1-15.1v0v-55.9C245.9,112.5,239.1,105.8,230.8,105.8L230.8,105.8z"/>
  <path d="M193.2,72.1c2.4,0,4.3,1.9,4.4,4.3v5c-0.1,2.4-2,4.3-4.4,4.3H94.7c-2.4,0-4.3-1.9-4.4-4.3v-5c0.1-2.4,2-4.3,4.4-4.3H193.2
	 M193.2,63.5H94.7c-7.1,0-12.9,5.8-13,12.9v5c0.1,7.1,5.9,12.9,13,12.9h98.5c7.1,0,12.9-5.8,13-12.9v-5
	C206.1,69.2,200.3,63.4,193.2,63.5z"/>
  <path d="M73.5,210.3c-12.9,0-23.4,10.5-23.4,23.4s10.5,23.4,23.4,23.4s23.4-10.5,23.4-23.4l0,0C96.8,220.8,86.4,210.4,73.5,210.3z
	 M73.5,245.4c-6.5,0-11.7-5.2-11.7-11.7S67,222,73.5,222s11.7,5.2,11.7,11.7l0,0C85.2,240.2,79.9,245.4,73.5,245.4L73.5,245.4
	L73.5,245.4z"/>
  <path d="M207,209.9c-12.9,0-23.4,10.5-23.4,23.4s10.5,23.4,23.4,23.4s23.4-10.5,23.4-23.4l0,0C230.4,220.4,219.9,209.9,207,209.9z
	 M207,245c-6.5,0-11.7-5.2-11.7-11.7c0-6.5,5.2-11.7,11.7-11.7c0,0,0,0,0,0c6.5,0,11.7,5.2,11.7,11.7C218.7,239.8,213.4,245,207,245
	C207,245,207,245,207,245z"/>
  <path d="M44.5,287.9v16.8c0,9.3,7.5,16.8,16.8,16.8h13c9.3-0.1,16.7-7.5,16.8-16.8v-16.8H44.5z"/>
  <path d="M193.1,287.9v16.8c0,9.3,7.5,16.8,16.8,16.8h13c9.3-0.1,16.7-7.5,16.8-16.8v-16.8H193.1z"/>
</svg>
