<?xml version="1.0" encoding="utf-8"?>
<!-- Generator: Adobe Illustrator 23.0.3, SVG Export Plug-In . SVG Version: 6.00 Build 0)  -->
<svg version="1.1" id="Icon" xmlns="http://www.w3.org/2000/svg" xmlns:xlink="http://www.w3.org/1999/xlink" x="0px" y="0px"
	 viewBox="0 0 365.8 365.8" style="enable-background:new 0 0 365.8 365.8;" xml:space="preserve">
<g>
	<path style="fill:none;stroke-width:20;stroke-miterlimit:10;" d="M129.2,31H33.9c-5.6,0-10.2,4.6-10.2,10.2v118.1
		c0,5.6,4.6,10.2,10.2,10.2h123.7c5.6,0,10.2-4.6,10.2-10.2v-53.1"/>
	<path style="fill:none;stroke-width:20;stroke-miterlimit:10;" d="M57.8,78.3l39.6,39.6c1.9,1.9,5,1.8,6.8-0.3
		l83.3-100.1"/>
	<path style="fill:none;stroke-width:20;stroke-miterlimit:10;" d="M129.2,209.9H33.9c-5.6,0-10.2,4.6-10.2,10.2
		v118.1c0,5.6,4.6,10.2,10.2,10.2h123.7c5.6,0,10.2-4.6,10.2-10.2v-53.1"/>
	<path d="M172.4,206.9l-27.8,59.9c-0.2,0.5,0.2,1.1,0.7,1l65.4-9.6c0.5-0.1,0.8-0.7,0.5-1.1l-37.6-50.4
		C173.2,206.4,172.6,206.5,172.4,206.9z"/>
	<path d="M183.5,197.6l101.7-75.5c0.8-0.6,2-0.4,2.6,0.4l35.5,49.2c0.6,0.8,0.4,1.9-0.4,2.5l-101.4,74.5c-0.8,0.6-1.9,0.5-2.5-0.4
		l-35.8-48.3C182.5,199.3,182.7,198.2,183.5,197.6z"/>
	<path d="M323.5,96.7l36.3,48.2c0.6,0.8,0.4,2.1-0.4,2.7l-22.7,16.2c-0.8,0.6-2.1,0.4-2.7-0.4l-35.3-48.3c-0.6-0.8-0.4-2.1,0.4-2.7
		l21.7-16.1C321.7,95.7,322.9,95.9,323.5,96.7z"/>
</g>
</svg>
