<?xml version="1.0" encoding="utf-8"?>
<!-- Generator: Adobe Illustrator 23.0.3, SVG Export Plug-In . SVG Version: 6.00 Build 0)  -->
<svg version="1.1" id="Layer_3" xmlns="http://www.w3.org/2000/svg" xmlns:xlink="http://www.w3.org/1999/xlink" x="0px" y="0px"
	 viewBox="0 0 350 187.4" enable-background="new 0 0 350 187.4" xml:space="preserve">
<title>Artboard 26 copy 32</title>
<path fill-rule="evenodd" clip-rule="evenodd" d="M251.6,170.3c-42.4,0-76.7-34.3-76.7-76.7s34.3-76.7,76.7-76.7
	s76.7,34.3,76.7,76.7v0.1C328.2,136,294,170.3,251.6,170.3 M138.6,80.5l-42.2,42.1c-3.2,3.3-8.4,3.4-11.7,0.3
	c-0.1-0.1-0.2-0.2-0.3-0.3h-0.1l-24-24c-3.3-3.3-3.4-8.7-0.1-12.1c3.3-3.3,8.7-3.4,12.1-0.1l18.1,18.1l36.1-36.2
	c3.7-3,9.1-2.5,12.1,1.2C141.1,72.8,141.1,77.3,138.6,80.5 M343.5,74.8C334.6,31.3,296.2,0,251.8,0H98.4C46.7,0,4.7,42,4.7,93.7
	s41.9,93.7,93.7,93.7h153.4c51.7-0.1,93.6-42,93.6-93.7C345.4,87.4,344.8,81,343.5,74.8"/>
</svg>
