<?xml version="1.0" encoding="utf-8"?>
<!-- Generator: Adobe Illustrator 23.0.3, SVG Export Plug-In . SVG Version: 6.00 Build 0)  -->
<svg version="1.1" id="Layer_3" xmlns="http://www.w3.org/2000/svg" xmlns:xlink="http://www.w3.org/1999/xlink" x="0px" y="0px"
	 viewBox="0 0 336 178.6" enable-background="new 0 0 336 178.6" xml:space="preserve">
<title>Artboard 26 copy 31</title>
<path fill-rule="evenodd" clip-rule="evenodd" d="M236.3,89.3L222,74.9c-3.1-3.2-3-8.4,0.3-11.5c3.1-3,8-3,11.1,0l14.4,14.4
	l14.4-14.4c3.3-3.1,8.4-2.9,11.4,0.4c2.9,3.1,2.9,8,0,11.1l-14.3,14.4l14.3,14.3c3.2,3.2,3.2,8.3,0,11.5l0,0
	c-3.1,3.1-8.2,3.2-11.3,0.1l-0.1-0.1l-14.4-14.4l-14.4,14.4c-3.1,3.1-8.2,3.2-11.3,0.1l-0.1-0.1c-3.2-3.2-3.2-8.3,0-11.5l0,0
	L236.3,89.3z"/>
<path fill-rule="evenodd" clip-rule="evenodd" d="M244,162.3h-94.9C189.4,134,199.2,78.4,171,38.1c-6-8.5-13.4-15.9-21.9-21.9H244
	c40.3,1.5,71.8,35.4,70.3,75.8C312.9,130.2,282.2,160.9,244,162.3 M24.8,89.3c-0.1-40.4,32.6-73.1,73-73.2s73.1,32.6,73.2,73
	s-32.6,73.1-73,73.2c-0.1,0-0.1,0-0.2,0C57.5,162.2,24.9,129.6,24.8,89.3 M244,0H97.8C48.5-1.7,7.2,37,5.6,86.3s37,90.6,86.3,92.2
	c2,0.1,4,0.1,6,0h146.2c49.3-1.7,87.9-42.9,86.3-92.2C328.7,39.3,291,1.6,244,0"/>
</svg>
