<svg id="Layer_1" data-name="Layer 1" xmlns="http://www.w3.org/2000/svg" viewBox="0 0 365.85 365.85">
  <title>tracs</title>
  <g>
    <g>
      <path d="M203.51,242.79l.16,1.26c1.27,10-2.41,16.24-5.76,20.61l-.52.67.83.2c13.82,3.22,29.24,16.77,34.11,29.84h-8.7c-8.68-15.15-23.58-24.19-39.92-24.19S153,280.1,144.8,295.06c-1.15,0-5.08-.05-8.58-.05a51.56,51.56,0,0,1,46.37-30.76H184c7.4,0,11-6.13,11.93-11.87,1.24-7.82-1.8-17.56-10-20.23a15.63,15.63,0,0,0-10.35,2.09l-56.48,41V302c.08,13.88,13.68,26.4,35.5,32.65l.6.18.1-.62c1.1-7,4.34-15.57,7.53-20,4.46-6.18,12.29-12.78,20.87-12.78s16.43,6.6,20.89,12.78c3.21,4.47,6.44,13.05,7.52,20l.1.62.6-.17c21.79-6.24,35.38-18.7,35.45-32.53V275.27Z"/>
      <path d="M183.67,308.59c-6.82,0-13,5.17-16.47,10-3,4.1-6.23,13.16-6.16,19.15.1,11.56,10.25,21.27,22.62,21.64h0C196,359,206.2,349.3,206.31,337.74c0-6-3.22-15.07-6.17-19.15C196.68,313.76,190.51,308.59,183.67,308.59Z"/>
    </g>
    <g>
      <path d="M312.64,235.09c-4.49-6.14-8.35-15.62-5.69-23.79s11.35-13.58,18.6-15.93a45.33,45.33,0,0,1,12.9-1.6,54.09,54.09,0,0,1,8.43.62l.6.1v-.61c.79-22.66-6.87-39.43-20-43.77L302,141.8l-44.72,32.47,1.22.24a26.36,26.36,0,0,1,17.84,11.86l.47.69.43-.71c7.34-12.15,25-22.64,38.95-23.22-.61,1.86-2.22,6.8-2.7,8.29C296.2,175,283,186.58,278,202.35c-4.79,15.29-.74,31.7,10.82,43.94-.36,1.08-1.6,4.84-2.69,8.18-17.68-16.24-20.11-39.09-14.6-54.67a10.8,10.8,0,0,0-1.39-10.24c-3.17-4.48-9.64-7.49-16.1-7.49-5.29,0-9.64,2-12.32,5.66a15.36,15.36,0,0,0-1.2,10.49l21.58,66.39,25.41,8.29a21.8,21.8,0,0,0,6.61,1c11.72,0,25-9.23,35.41-24.69l.34-.5-.55-.28C323.05,245.26,315.87,239.51,312.64,235.09Z"/>
      <path d="M348.44,201a33.14,33.14,0,0,0-10.05-1.32,35.37,35.37,0,0,0-10.08,1.25c-2.76.9-11.95,4.46-14.59,12.6-2.11,6.49.9,13.93,4.42,18.73,3,4.07,10.56,10,16.31,11.8a20.27,20.27,0,0,0,6.09.94h0c9.46,0,18.08-6.35,21.46-15.82C365.48,217.29,359.39,204.65,348.44,201Z"/>
    </g>
    <g>
      <path d="M302.86,57.08l-.39-.49L302,57c-5,5-12.63,10-17.83,11.75a37,37,0,0,1-11.28,1.85c-5.25,0-9.67-1.27-13.12-3.78-7-5.06-9.4-15-9.37-22.59,0-5.48,2.43-14.33,5.65-20.59l.28-.56-.59-.21A70.89,70.89,0,0,0,232,18.26c-10.93,0-19.26,3.49-24.1,10.09L192.16,50.07l17.09,52.62.61-1.11a26.24,26.24,0,0,1,16.78-13.29l.82-.25-.56-.64c-9.28-10.74-13.79-30.76-10.06-44.19,1.6,1.16,5.78,4.19,7,5.12-1.51,13.94,2.45,27,11.17,36.77A43.34,43.34,0,0,0,267.3,99.6a46.88,46.88,0,0,0,20.15-4.68l6.93,5.07a52.44,52.44,0,0,1-26.07,7,50.94,50.94,0,0,1-30.42-10,10.83,10.83,0,0,0-6.73-2.38c-5.34,0-11.06,4.18-14.24,10.4-3,6-3,12.15.27,16.62a15.53,15.53,0,0,0,9.6,4.39h69.82l15.75-21.62C320.49,93.12,316.83,75,302.86,57.08Z"/>
      <path d="M264,61.11a17.39,17.39,0,0,0,10.44,3,28.71,28.71,0,0,0,8.77-1.43c4.82-1.58,12.8-7,16.26-11.87,6.73-9.41,4.21-23.22-5.64-30.81a24.11,24.11,0,0,0-13.67-4.26,21.27,21.27,0,0,0-17.35,8.45c-3.57,4.84-6.25,14.09-6.26,19.12C256.49,49.29,258.43,57.1,264,61.11Z"/>
    </g>
    <g>
      <path d="M109.91,215.35a28.88,28.88,0,0,1-9.86-1.86l-.8-.28.07.85c1.2,14.13-6.92,33-17.83,41.66l-2.7-8.27c11.86-13.09,15.79-30.22,10.51-45.89-5.12-15.19-18-26.09-34.58-29.2-.35-1.09-1.55-4.83-2.63-8.16C75.93,167,91.31,184,96,199.84c1.56,5.23,6,8.23,12.07,8.23,9,0,19.16-6.8,19.18-16a15.42,15.42,0,0,0-5.2-9.21l-56.48-41-25.44,8.22C27,154.42,19.27,171.24,20.05,193.94v.62l.61-.1a54.35,54.35,0,0,1,8.45-.63A45.63,45.63,0,0,1,42,195.44c7.23,2.33,15.92,7.72,18.59,15.9s-1.21,17.65-5.7,23.81c-3.22,4.4-10.38,10.13-16.66,13.33l-.55.28.35.52C48.48,264.73,61.68,274,73.37,274h0A21.61,21.61,0,0,0,80,273l25.53-8.25,17.1-52.62-1.14.54A26.78,26.78,0,0,1,109.91,215.35Z"/>
      <path d="M49.45,232.32c3.52-4.8,6.53-12.25,4.42-18.79S44.94,202.79,39.27,201a35.13,35.13,0,0,0-10.15-1.28,32.52,32.52,0,0,0-10,1.32c-11,3.67-17.07,16.32-13.57,28.23C9,238.68,17.58,245,27,245h0a20.33,20.33,0,0,0,6.1-.93C38.89,242.28,46.49,236.38,49.45,232.32Z"/>
    </g>
    <g>
      <path d="M159.44,28.42c-4.88-6.64-13.26-10.14-24.25-10.14a71,71,0,0,0-23.67,4.59l-.59.22.29.55c3.21,6.25,5.64,15.11,5.65,20.6,0,7.61-2.43,17.55-9.38,22.6-3.44,2.51-7.85,3.77-13.1,3.77A37.68,37.68,0,0,1,83.1,68.78C77.89,67.06,70.22,62,65.27,57.06l-.44-.45-.38.49C50.49,75,46.82,93,54.88,104.27L70.64,126h55.3l-.86-.93A26.4,26.4,0,0,1,117.63,105v-.85l-.78.33a45.87,45.87,0,0,1-17.57,3.15c-10.48,0-20.71-2.69-27.56-7.23l7-5.12a49.56,49.56,0,0,0,20.37,4.5,44.14,44.14,0,0,0,33.29-15c8.38-9.6,12-22.24,10.3-35.64.93-.66,4.13-3,7-5C154.44,67.69,143,87.58,129.38,97c-4.43,3-5.95,8.08-4.17,13.8,2.52,8.09,11.72,16.62,21.21,13.49a15.53,15.53,0,0,0,7.14-7.77l21.58-66.4Z"/>
      <path d="M84.11,62.69a28.85,28.85,0,0,0,8.79,1.44h0a17.4,17.4,0,0,0,10.42-3c5.52-4,7.47-11.82,7.45-17.79,0-5-2.69-14.3-6.26-19.11a21.25,21.25,0,0,0-17.35-8.47A24.1,24.1,0,0,0,73.46,20c-9.81,7.56-12.32,21.37-5.6,30.8C71.36,55.72,79.32,61.13,84.11,62.69Z"/>
    </g>
  </g>
</svg>
