<?xml version="1.0" encoding="utf-8"?>
<!-- Generator: Adobe Illustrator 23.0.3, SVG Export Plug-In . SVG Version: 6.00 Build 0)  -->
<svg version="1.1" id="Layer_3" xmlns="http://www.w3.org/2000/svg" xmlns:xlink="http://www.w3.org/1999/xlink" x="0px" y="0px"
	 viewBox="0 0 365.1 365.1" style="enable-background:new 0 0 365.1 365.1;" xml:space="preserve">
<g>
	<g>
		<path d="M104.4,211.5h11.9l6.9,41h0.1l6.9-41h11.6v53.8h-7v-48.5h-0.1l-7.6,48.5h-7.5l-8.3-48.5h-0.1v48.5h-6.6v-53.8L104.4,211.5
			L104.4,211.5z"/>
		<path d="M146.9,225.2c0-7.5,2.5-14.2,12.6-14.2c9.6,0,12.7,5,12.7,13.3v27.2c0,7.5-2.5,14.2-12.7,14.2c-9.5,0-12.6-5-12.6-13.3
			V225.2z M154.4,252.9c0,4.6,2.1,7.1,5.1,7.1c3.1,0,5.2-2.5,5.2-7.1v-28.3c0-5.3-1.8-7.8-5.2-7.8s-5.1,2.5-5.1,7.8V252.9z"/>
		<path d="M177.5,211.5h13c9.2,0,10.7,3.2,10.7,13c0,10.6-1.7,12.3-6.8,13v0.1c6,1.1,7.2,3.1,7.2,12.3c0,11.6-1.5,15.4-12.4,15.4
			h-11.7V211.5z M184.9,234.6h4.3c4.5,0,4.9-0.9,4.9-9.7c0-6.1-1-7.6-5.7-7.6h-3.5V234.6z M184.9,259.5h4.6c4.2,0,5-1.3,5-9.8
			c0-8.1-0.7-9.3-4.8-9.3h-4.8V259.5z"/>
		<path d="M206.3,211.5h7.5v53.8h-7.5V211.5z"/>
		<path d="M219,211.5h7.5v47.6H239v6.3h-20V211.5z"/>
		<path d="M242.5,211.5h20.3v6.3H250v16.8h12v6.3h-12.1v18.2h12.8v6.3h-20.3v-53.9H242.5z"/>
	</g>
	<g>
		<path d="M105.9,129.7h-7.6V119h7.6v-15.4l15.2-5.3V119h9.4v10.7h-9.4v52.6c0,6.2,2.8,7.3,7.3,7.3c1.8,0,2.9-0.2,3.9-0.5v10.7
			c-1.8,0.2-5.7,0.5-9.9,0.5c-12.1,0-16.5-3.6-16.5-10.8L105.9,129.7L105.9,129.7z"/>
		<path d="M150.9,157.4L135.2,119H152l8,25h0.3l9.2-24.9h14.2l-16,40.3l17.3,41h-16.7l-9.7-28.7h-0.3l-9.7,28.7h-15.2L150.9,157.4z"
			/>
		<path d="M211,145.3v-7.8c0-6.3-1.3-8.7-5.3-8.7s-5.2,1.8-5.2,7.4c0,8.3,0.6,8.7,10.8,17.6c11.8,10.4,14.1,13.8,14.1,25.6
			c0,15.9-5.5,21.9-21.7,21.9c-11.7,0-18.1-4.9-18.1-16.7v-11.5h14.2v11.2c0,5,2.1,6.3,5.7,6.3c5,0,5.7-2.6,5.7-9.1
			c0-8.7-0.5-10-9.2-17.5l-3.4-2.9c-12.1-10.4-12.3-11.7-12.3-22.8c0-15.4,7.4-20.2,21-20.2c11.3,0,17.3,5,17.3,14.7v12.5H211z"/>
		<path d="M237.8,129.7h-7.6V119h7.6v-15.4l15.2-5.3V119h9.4v10.7H253v52.6c0,6.2,2.8,7.3,7.3,7.3c1.8,0,2.9-0.2,3.9-0.5v10.7
			c-1.8,0.2-5.7,0.5-9.9,0.5c-12.1,0-16.5-3.6-16.5-10.8L237.8,129.7L237.8,129.7z"/>
	</g>
</g>
<circle stroke-width="4" fill="none" cx="180.6" cy="181.6" r="159.6"/>
</svg>
