<?xml version="1.0" encoding="utf-8"?>
<!--Generator: Adobe Illustrator 23.0.2, SVG Export Plug-In . SVG Version: 6.00 Build 0)-->
<svg xmlns="http://www.w3.org/2000/svg" xmlns:xlink="http://www.w3.org/1999/xlink" id="Layer_3" x="0px" y="0px" baseProfile="tiny" version="1.1" viewBox="0 0 424.9 424.9" xml:space="preserve">
    <g>
        <g>
            <g>
                <path d="M389.4,383H28.2l58.3-121.7h243.7L389.4,383z M47.9,370.5h321.6l-47.1-96.8H94.2L47.9,370.5z"/>
            </g>
            <g>
                <g>
                    <rect width="111.3" height="12.4" x="97.2" y="316.8" transform="matrix(0.1465 -0.9892 0.9892 0.1465 -189.0661 426.8992)"/>
                </g>
                <g>
                    <rect width="12.4" height="111.3" x="258.4" y="267.4" transform="matrix(0.9892 -0.1465 0.1465 0.9892 -44.4567 42.2365)"/>
                </g>
            </g>
        </g>
        <g>
            <path d="M208,44.7c-56,0-93.9,45.4-93.9,101.4c0,85.5,93.9,190.6,93.9,190.6s93.9-105.1,93.9-190.6
			C301.9,90.1,263.9,44.7,208,44.7z M207.7,182.3c-1.6,1.2-42.2,29.7-42.2,29.7s14.7-47.1,15.3-49c-1.6-1.2-41.2-31-41.2-31
			s49.5,0,51.5,0c0.7-2,16.8-49.6,16.8-49.6s15.5,47.8,16.1,49.8c2.1,0,52.3,0,52.3,0s-40.7,29-42.5,30.3c0.7,2,16.7,49.6,16.7,49.6
			S209.3,183.5,207.7,182.3z"/>
        </g>
    </g>
</svg>
