<?xml version="1.0" encoding="utf-8"?>
<!-- Generator: Adobe Illustrator 23.0.2, SVG Export Plug-In . SVG Version: 6.00 Build 0)  -->
<svg version="1.1" baseProfile="tiny" id="Layer_1" 
  xmlns="http://www.w3.org/2000/svg" 
  xmlns:xlink="http://www.w3.org/1999/xlink" x="0px" y="0px" viewBox="0 0 323 185" xml:space="preserve">
  <g>
    <path id="Fill-1_1_" fill-rule="evenodd" d="M316.1,92h1c0.8,0,0.9-0.6,0.9-0.9c0-0.8-0.6-0.8-0.9-0.8h-1V92z
		 M314.9,89.3h2.1c0.7,0,2.2,0,2.2,1.6c0,1.1-0.7,1.4-1.2,1.5c0.8,0.1,0.9,0.6,1,1.4c0.1,0.5,0.1,1.3,0.3,1.6h-1.3
		c0-0.3-0.2-1.9-0.2-1.9c-0.1-0.3-0.2-0.5-0.6-0.5h-1.1v2.5h-1.2V89.3z M312.4,92.4c0,2.6,2.1,4.6,4.6,4.6c2.6,0,4.6-2.1,4.6-4.6
		c0-2.6-2.1-4.6-4.6-4.6C314.5,87.8,312.4,89.8,312.4,92.4z M322.5,92.4c0,3-2.5,5.5-5.5,5.5c-3,0-5.5-2.4-5.5-5.5
		c0-3.1,2.6-5.5,5.5-5.5C320,86.9,322.5,89.3,322.5,92.4z"/>
    <path id="Fill-2_1_" fill-rule="evenodd" d="M1.1,1.7h55.3l0.5,16.6h-2.3c-1.1-5.2-2.6-8.6-4.4-10.2
		c-1.8-1.6-5.5-2.4-11.2-2.4h-5.4v50.1c0,3.8,0.6,6.1,1.8,7c1.2,0.9,3.8,1.5,7.7,1.8v1.8H14.6v-1.8c4.1-0.3,6.7-1,7.7-2
		c1-1,1.5-3.7,1.5-7.9V5.8h-5.5C13,5.8,9.3,6.5,7.3,8.1c-2,1.6-3.4,5-4.4,10.2H0.5L1.1,1.7"/>
    <path id="Fill-3_1_" fill-rule="evenodd" d="M63.7,64.6c3.6-0.4,5.9-1,7-1.9c1.1-0.9,1.6-3.2,1.6-6.9V12.3
		c0-3.5-0.5-5.7-1.6-6.8c-1.1-1.1-3.4-1.7-7-2V1.7h52l0.3,14h-2.5c-0.8-4.3-2.1-7.1-3.7-8.4c-1.7-1.3-5.3-1.9-11.1-1.9H85.4
		c-1.4,0-2.3,0.2-2.7,0.7c-0.3,0.5-0.5,1.3-0.5,2.6v21.8h15.1c4.2,0,6.8-0.6,8-1.9c1.1-1.2,2.1-3.7,2.8-7.5h2.3v22.6h-2.3
		c-0.7-3.8-1.7-6.3-2.8-7.5c-1.1-1.2-3.8-1.8-7.9-1.8H82.3v24.2c0,1.9,0.6,3.1,1.8,3.4c1.2,0.4,4.9,0.5,11,0.5
		c6.6,0,11.5-0.7,14.7-2.2c3.2-1.4,6-5,8.5-10.5h2.7l-4.4,16.5H63.7V64.6"/>
    <path id="Fill-4_1_" fill-rule="evenodd" d="M122.1,64.6c2.6-0.3,4.6-1,6-2.1c1.4-1.1,4.1-4.2,8.1-9.2l15.1-18.7
		L140.6,19c-4.7-6.8-7.9-11.1-9.8-12.8c-1.9-1.7-4.4-2.6-7.6-2.7V1.7h29.4v1.8c-2.8,0.1-4.7,0.3-5.5,0.6c-1.3,0.4-1.9,1.3-1.9,2.7
		c0,0.9,0.3,2,0.9,3.2c0.3,0.6,0.8,1.4,1.3,2.2l10.1,14.6l11-13.4c1.6-1.9,2.7-3.5,3.3-4.7c0.3-0.7,0.5-1.3,0.5-1.9
		c0-1.4-0.7-2.4-2.1-2.9c-0.9-0.3-2.4-0.4-4.7-0.5V1.7h23.2v1.8c-2.6,0.1-4.6,0.5-6.1,1.2c-2.3,1.2-5.1,3.9-8.4,8l-14.1,17.7
		l18.5,26.8c2,2.9,3.6,4.7,4.9,5.5c1.3,0.8,3.2,1.4,5.8,1.7v1.8h-28.8v-1.8c2.8-0.1,4.7-0.3,5.8-0.7c1.1-0.4,1.6-1.2,1.6-2.4
		c0-1-0.7-2.7-2.2-5.1c-1.5-2.4-5.5-8.4-12-18l-11.5,14.4c-1.7,2.1-2.8,3.7-3.5,4.7c-1,1.6-1.6,2.7-1.6,3.5c0,1.4,0.8,2.4,2.5,2.9
		c1,0.3,2.6,0.6,5,0.8v1.8h-22.6V64.6"/>
    <path id="Fill-5_1_" fill-rule="evenodd" d="M230.8,41.3l-11.2-26.9l-11.3,26.9H230.8z M188.7,66.4v-1.8
		c2.5-0.3,4.4-1.2,5.7-2.8c1.3-1.6,3.4-6,6.5-13.2l20.4-48h1.9L247.5,56c1.6,3.7,2.9,5.9,3.9,6.8c1,0.9,2.6,1.5,4.9,1.8v1.8h-24.9
		v-1.8c2.9-0.2,4.7-0.6,5.5-0.9c0.8-0.4,1.2-1.3,1.2-2.7c0-0.5-0.2-1.3-0.5-2.5c-0.3-1.2-0.8-2.5-1.3-3.8l-3.9-9.4h-25.8
		c-2.5,6.4-4.1,10.3-4.5,11.7c-0.5,1.4-0.7,2.5-0.7,3.4c0,1.6,0.7,2.8,2,3.4c0.8,0.4,2.4,0.7,4.7,0.9v1.8H188.7z"/>
    <path id="Fill-6_1_" fill-rule="evenodd" d="M263.1,46.7c1.7,4.4,3.6,7.9,5.8,10.5c3.9,4.6,8.7,6.8,14.5,6.8
		c3.1,0,5.8-1,8.1-3c2.3-2,3.4-4.7,3.4-8.3c0-3.2-1.1-6-3.4-8.3c-1.5-1.5-4.6-3.7-9.4-6.7l-8.3-5.2c-2.5-1.6-4.5-3.2-6-4.8
		c-2.8-3.1-4.1-6.5-4.1-10.2c0-4.9,1.6-9,4.9-12.3c3.3-3.3,7.6-4.9,13-4.9c2.2,0,4.9,0.5,8,1.6c3.1,1.1,4.9,1.6,5.4,1.6
		c1.2,0,2.1-0.3,2.5-0.9c0.5-0.6,0.8-1.4,1.1-2.4h2l2.2,20.8h-2.3c-1.6-6.3-4.1-10.6-7.7-13.1c-3.5-2.5-7-3.7-10.4-3.7
		c-2.7,0-5,0.8-7,2.4c-2,1.6-3,3.8-3,6.6c0,2.5,0.8,4.7,2.3,6.4c1.5,1.8,3.9,3.7,7.1,5.7l8.6,5.3c5.4,3.3,9.2,6.3,11.4,9.1
		c2.2,2.8,3.3,6.1,3.3,9.9c0,5.1-1.9,9.4-5.8,12.9c-3.9,3.4-8.8,5.2-14.8,5.2c-3,0-6.2-0.6-9.5-1.7c-3.3-1.1-5.2-1.7-5.7-1.7
		c-1.2,0-1.9,0.4-2.3,1.1c-0.4,0.7-0.7,1.4-0.8,2.2h-2.1l-2.9-20.8H263.1"/>
    <path id="Fill-7_1_" fill-rule="evenodd" d="M9.6,164.2c1.6,4.3,3.5,7.7,5.7,10.3c3.8,4.5,8.5,6.7,14.1,6.7
		c3,0,5.7-1,7.9-2.9c2.2-1.9,3.3-4.6,3.3-8.1c0-3.1-1.1-5.8-3.4-8.1c-1.5-1.5-4.5-3.7-9.2-6.6l-8.2-5.1c-2.5-1.6-4.4-3.1-5.9-4.7
		c-2.7-3-4.1-6.4-4.1-10c0-4.8,1.6-8.8,4.8-12c3.2-3.2,7.5-4.8,12.7-4.8c2.2,0,4.8,0.5,7.9,1.6c3.1,1.1,4.8,1.6,5.2,1.6
		c1.2,0,2-0.3,2.5-0.8c0.5-0.6,0.8-1.4,1.1-2.4h2l2.1,20.4h-2.3c-1.6-6.1-4.1-10.4-7.5-12.8c-3.4-2.4-6.8-3.6-10.2-3.6
		c-2.6,0-4.9,0.8-6.8,2.3c-1.9,1.5-2.9,3.7-2.9,6.4c0,2.5,0.7,4.6,2.2,6.3c1.5,1.8,3.8,3.6,6.9,5.6l8.4,5.2c5.3,3.2,9,6.2,11.1,8.9
		c2.1,2.7,3.2,6,3.2,9.7c0,5-1.9,9.2-5.7,12.6c-3.8,3.4-8.6,5-14.5,5c-3,0-6-0.6-9.3-1.7c-3.2-1.1-5.1-1.7-5.5-1.7
		c-1.1,0-1.9,0.3-2.3,1c-0.4,0.7-0.6,1.4-0.8,2.2h-2.1l-2.8-20.3H9.6"/>
    <path id="Fill-8_1_" fill-rule="evenodd" d="M63.4,120.2h54.1l0.5,16.2h-2.3c-1.1-5.1-2.5-8.4-4.3-10
		c-1.7-1.5-5.4-2.3-10.9-2.3h-5.3v48.9c0,3.7,0.6,6,1.7,6.8c1.2,0.9,3.7,1.5,7.6,1.7v1.8H76.6v-1.8c4-0.3,6.6-1,7.6-2
		c1-1,1.5-3.6,1.5-7.7v-47.8h-5.4c-5.3,0-8.9,0.8-10.8,2.3c-1.9,1.5-3.4,4.9-4.3,10h-2.3L63.4,120.2"/>
    <path id="Fill-9_1_" fill-rule="evenodd" d="M161.1,158.9l-11-26.3l-11,26.3H161.1z M119.9,183.4v-1.8
		c2.5-0.3,4.3-1.2,5.5-2.8c1.2-1.6,3.3-5.9,6.3-12.9l19.9-46.9h1.9l23.8,54.2c1.6,3.6,2.9,5.8,3.8,6.7c0.9,0.8,2.5,1.4,4.8,1.7v1.8
		h-24.3v-1.8c2.8-0.2,4.6-0.5,5.4-0.9c0.8-0.4,1.2-1.2,1.2-2.6c0-0.5-0.2-1.3-0.5-2.5c-0.3-1.2-0.7-2.4-1.3-3.7l-3.8-9.2h-25.2
		c-2.5,6.3-4,10.1-4.4,11.5c-0.5,1.4-0.7,2.5-0.7,3.3c0,1.6,0.7,2.7,2,3.3c0.8,0.4,2.3,0.7,4.6,0.8v1.8H119.9z"/>
    <path id="Fill-10_1_" fill-rule="evenodd" d="M188,120.2H242l0.5,16.2h-2.3c-1.1-5.1-2.5-8.4-4.3-10
		c-1.7-1.5-5.4-2.3-10.9-2.3h-5.3v48.9c0,3.7,0.6,6,1.7,6.8c1.1,0.9,3.7,1.5,7.6,1.7v1.8h-27.9v-1.8c4-0.3,6.6-1,7.6-2
		c1-1,1.5-3.6,1.5-7.7v-47.8h-5.4c-5.3,0-8.9,0.8-10.8,2.3c-1.9,1.5-3.4,4.9-4.3,10h-2.3L188,120.2"/>
    <path id="Fill-11_1_" fill-rule="evenodd" d="M248.8,181.6c3.5-0.4,5.8-1,6.8-1.9c1-0.9,1.6-3.1,1.6-6.7v-42.5
		c0-3.4-0.5-5.6-1.5-6.7c-1-1-3.3-1.7-6.9-1.9v-1.8h50.8l0.3,13.7h-2.4c-0.8-4.2-2-6.9-3.6-8.2c-1.6-1.2-5.2-1.9-10.8-1.9h-13
		c-1.4,0-2.3,0.2-2.6,0.7c-0.3,0.5-0.5,1.3-0.5,2.5v21.3h14.7c4.1,0,6.7-0.6,7.8-1.8c1.1-1.2,2-3.7,2.7-7.3h2.2v22.1h-2.2
		c-0.7-3.7-1.6-6.2-2.8-7.4c-1.1-1.2-3.7-1.8-7.8-1.8h-14.7v23.7c0,1.9,0.6,3,1.8,3.4c1.2,0.3,4.8,0.5,10.8,0.5
		c6.5,0,11.3-0.7,14.4-2.1c3.1-1.4,5.9-4.8,8.3-10.3h2.7l-4.3,16.1h-51.7V181.6"/>
    <polyline id="Fill-12_1_" fill-rule="evenodd" points="0.5,90.8 0.5,94 130.7,94 126.8,90.8 0.5,90.8 	"/>
    <polyline id="Fill-13_1_" fill-rule="evenodd" points="178.6,90.8 174.7,94 304.8,94 304.8,90.8 178.6,90.8 	"/>
    <path id="Fill-15_1_" fill-rule="evenodd" d="M166.2,95.3l-13.3-4.2l21.4,29.5L152.9,105V91.1l-21.5,29.5l8.2-25.2
		l13.3-4.3l-34.7-11.3h26.5l8.2,11.3V54.5l8.2,25.2l-8.2,11.3l34.7-11.3L166.2,95.3z M162.8,77.6L162.8,77.6l-9.8-30.1l-9.8,30.1
		h-31.6l25.6,18.6l-9.8,30.1l25.6-18.6l25.5,18.5v0l0.1,0.1l-9.8-30l0-0.1l25.4-18.5h0l0.2-0.1H162.8z"/>
  </g>
</svg>
